<?xml version="1.0" encoding="utf-8"?><svg xmlns="http://www.w3.org/2000/svg" xmlns:xlink="http://www.w3.org/1999/xlink"><symbol viewBox="0 0 2007 1570" id="arbuz" xmlns="http://www.w3.org/2000/svg"><path fill-rule="evenodd" clip-rule="evenodd" d="M1818.79 891.08c21.38-15.294 42.15-27.529 55.61-30.54-162.2-139.289-460.24-382.191-698.75-575.279-34.01-27.527-69.85-54.48-102.86-79.306l-6.26-4.712-69.803-53.744C911.552 78.189 856.493 16.988 849.239 7.321c-4.265-5.684-16.925-6.066-24.178-4.58-45.939 9.414-123.332 35.593-161.993 52.917l-379.6 596.966L94.691 990.985c27.888 36.145 63.235 74.125 105.523 111.175 28.649 25.1 60.484 49.77 95.343 73.15a965.72 965.72 0 0 0 94.295 55.73c24.682 12.76 44.436 26.15 63.387 38.99l1.353.92c.988.67 1.974 1.34 2.959 2 34.386 23.27 67.145 44.43 123.309 56.34 8.466 1.8 17.351 3.41 26.597 4.85 65.265 10.14 148.542 11.58 229.693 7.43 4.036-.21 8.066-.43 12.089-.66 42.994-2.5 85.105-6.53 123.309-11.62 33.122-4.41 64.862-6.12 96.412-7.82 37.59-2.03 74.9-4.04 113.94-10.58 40.15-6.73 82.14-18.27 128.14-39.55 8.11-3.75 17.05-8.45 26.6-13.85 32.99-18.69 73.21-45.8 110.92-71.23l.02-.01.07-.05c10.8-7.28 21.4-14.43 31.57-21.2 14.9-9.92 28.87-19.04 41.17-26.59 12.15-7.45 25.38-12.86 38.74-18.33 15.62-6.4 31.42-12.87 45.89-22.75 22.73-15.53 41.63-36.16 60.34-58.01 3.27-3.82 6.53-7.67 9.81-11.54 19.18-22.65 38.82-45.847 62.83-65.427 10.38-15.051 45.87-47.011 79.79-71.273zM885.507 396.436c-4.03 39.476-9.672 121.327 0 132.928 12.089 14.501 29.013 29.002 67.699 29.002 30.948 0 43.521-33.836 45.938-50.754-22.566-37.059-76.886-111.176-113.637-111.176zM631.635 253.841c-26.596 29.002-75.92 101.025-79.788 128.094-3.869 27.069 24.178 34.642 41.103 38.67 12.089.805 35.783-2.9 53.192-14.501 17.408-11.601-.806-105.537-14.507-152.263zm-96.714 321.443c-51.58 46.726-139.267 145.979-77.37 169.181C519.447 767.667 559.1 725.13 559.1 710.629c.806-34.642.966-108.276-24.179-135.345zm261.126 96.675c-21.76 50.754-53.192 149.362-33.85 166.764 24.179 21.752 38.686 24.168 67.7 21.752 29.013-2.417 50.774-19.335 55.61-29.003.732-1.463 1.685-2.982 2.726-4.64 5.837-9.295 14.42-22.966 2.109-55.781-16.851-44.919-62.863-84.591-94.295-99.092zm357.843 0c0 74.923 17.89 213.168 89.45 166.764 71.57-46.404-29.81-130.511-89.45-166.764zM302.811 855.641c-47.551 42.698-121.375 135.344-36.268 164.349 85.108 29 59.64-97.482 36.268-164.349zm265.961 128.094c-41.103 62.035-98.648 188.515 0 198.185 98.647 9.67 41.103-128.1 0-198.185zm411.03-21.752C943.535 1049.8 900.981 1213.34 1020.9 1165c119.93-48.34 22.57-155.49-41.098-203.017zm357.838-79.757c11.28 71.701 55.13 199.634 140.23 137.764 85.11-61.874-58.02-117.623-140.23-137.764z"/><path d="M1122.45 386.768c13.7-12.89 44.98-38.186 60.45-36.253m48.36 128.095c4.03-11.279 18.85-34.32 45.93-36.253m145.07 195.766l65.29-41.087m53.19 99.092l41.1-36.253m60.45 137.761l55.61-33.836M796.047 94.328l45.939-31.42m12.089 106.343c3.224-12.89 18.375-38.67 53.192-38.67m41.103 140.178c16.119-10.473 51.258-36.253 62.86-36.253M663.068 55.658c29.929 35.403 96.205 99.076 186.171 171.598 54.085 43.598 124.453 91.406 178.921 135.344 193.81 156.35 521.61 433.054 710.84 599.753M663.068 55.658c38.661-17.324 116.054-43.504 161.993-52.916 7.253-1.487 19.913-1.105 24.178 4.579 7.254 9.667 62.313 70.868 147.488 140.178m-333.659-91.84l-379.6 596.965L94.691 990.985M1884.07 1097.33c-10-13.84-65.19-64.61-145.07-134.977m145.07 134.977c-12.79 23.79-27.76 46.25-44.7 67.67m44.7-67.67c25.82-19.36 67.61-58.62 94.83-89.43M996.727 147.499c19.693 15.971 43.753 34.149 69.803 53.744m-69.803-53.744l69.803 53.744m109.12 84.018l-109.12-84.018m109.12 84.018c238.51 193.088 536.55 435.99 698.75 575.279m-698.75-575.279c-34.01-27.527-69.85-54.48-102.86-79.306m-6.26-4.712c2.07 1.562 4.16 3.132 6.26 4.712m-6.26-4.712l6.26 4.712M1739 962.353c10.38-15.051 45.87-47.011 79.79-71.273M1739 962.353c-24.01 19.58-43.65 42.777-62.83 65.427-3.28 3.87-6.54 7.72-9.81 11.54m208.04-178.78c33.95 29.156 61.95 53.771 82.2 72.441 12.07 11.125 24.95 20.138 34.38 26.742 8.77 6.134 14.56 10.19 13.98 11.928-2.55 7.644-12.5 20.899-26.06 36.249m-104.5-147.36c-13.46 3.011-34.23 15.246-55.61 30.54M94.691 990.985L3 1155.33c36.864 55.57 78.224 104.3 123.309 146.84M94.691 990.985c27.888 36.145 63.235 74.125 105.523 111.175m772.334 227.13l93.982 230.88m-93.982-230.88c-38.204 5.09-80.315 9.12-123.309 11.62-4.023.23-8.053.45-12.089.66m135.398-12.28c33.122-4.41 64.862-6.12 96.412-7.82 37.59-2.03 74.9-4.04 113.94-10.58m423.12-213.56L1739 1264.65m-132.98-167.32c22.73-15.53 41.63-36.16 60.34-58.01m-60.34 58.01c-14.47 9.88-30.27 16.35-45.89 22.75-13.36 5.47-26.59 10.88-38.74 18.33-12.3 7.55-26.27 16.67-41.17 26.59m-297.32 145.89c40.15-6.73 82.14-18.27 128.14-39.55 8.11-3.75 17.05-8.45 26.6-13.85m-154.74 53.4l94.29 220.97m0 0c19.66-4.68 39.02-10.1 58.03-16.41 40.12-13.32 78.82-32.92 116.06-55.06m-174.09 71.47c-67.73 16.15-138.87 23.52-210.66 28.31m384.75-99.78l-113.64-202.9m113.64 202.9c35.6-21.16 69.86-44.65 102.77-67.21l.02-.01.01-.01.01-.01m-216.45-135.66c32.99-18.69 73.21-45.8 110.92-71.23l.02-.01m31.64-21.25l101.62 209.2M1480.22 1165c-10.17 6.77-20.77 13.92-31.57 21.2m133.19 188c13.12-8.89 26.02-17.47 38.69-25.52 43.02-27.34 82.75-54.99 118.47-84.03m-157.16 109.55c-9.06 6.14-18.24 12.43-27.52 18.79M1739 1264.65c38.38-31.19 72.13-63.97 100.37-99.65m-173.01-125.68L1839.37 1165m-772.84 395.17c-29.77 1.98-59.65 3.52-89.445 5.06h-.011m-369.617-231.09c-9.246-1.44-18.131-3.05-26.597-4.85-56.164-11.91-88.923-33.07-123.309-56.34m149.906 61.19l24.178 204.62m-24.178-204.62c65.265 10.14 148.542 11.58 229.693 7.43m-205.515 197.19c24.78 4.19 49.781 7.68 74.952 10.52 15.3 1.73 30.848 3.67 46.55 5.63 44.416 5.54 90.061 11.24 134.787 12.72m-256.289-28.87c-59.549-10.07-117.818-24.15-174.084-42.85m0 0v-222.96m0 222.96c-72.324-24.03-141.34-55.7-205.515-96.28m205.515-126.68c-.985-.66-1.971-1.33-2.959-2m-159.035-95.64a965.72 965.72 0 0 0 94.295 55.73c24.682 12.76 44.436 26.15 63.387 38.99m-157.682-94.72l-43.521 224.32m43.521-224.32c-34.859-23.38-66.694-48.05-95.343-73.15m51.822 297.47c-44.395-28.08-86.473-60.42-125.727-97.46m73.905-200.01l-73.905 200.01M1818.79 891.08l160.11 116.82M977.035 1565.23h.039m-.039 0h-.065m.065 0h-.065m.065 0h.039m577.016-172.08l.09-.06m-.09.06l.09-.06m.14-.1l-.14.1m.14-.1c-.05.03-.09.07-.14.1m-577.21 172.14l-.061.01m.061-.01c-.02 0-.041.01-.061.01m0 0h-.072m.072 0h-.072m0 0c-12.734.66-25.452 1.31-38.138 2-16.711.91-33.675.96-50.775.39m-434.685-297.6l1.353.92m-1.353-.92c.451.31.902.61 1.353.92m993.988-84.7l.07-.05m-.07.05c.02-.02.04-.03.07-.05m-611.5 155.37l50.774 226.06m-60.445-820.748l-2.418 36.253 24.179 26.585 7.253-33.836-29.014-29.002zM573.607 1039.32v77.34h33.85l-33.85-77.34zm444.883 12.09l21.76 50.75 19.34-12.08-24.18-43.51-16.92 4.84zm372.34-116.013l26.6 43.504h12.09l7.25-12.084c-2.42-1.611-7.25-6.284-7.25-12.085 0-5.8-6.45-13.695-9.67-16.918l-9.67-2.417-14.51-2.416-4.84 2.416zM295.557 918.479c-4.835 8.862-14.506 28.519-14.506 36.253 0 2.715-.382 7.525-.823 13.094-1.131 14.264-2.655 33.504.823 35.244 1.141.57 2.283 1.41 3.488 2.3 3.9 2.87 8.465 6.23 15.854 2.53 9.671-4.83.001-84.587-4.836-89.421zm232.111-290.024c-.806 23.363-5.803 72.506-19.342 82.174-13.54 9.667 7.253-50.754 19.342-82.174zm94.296-290.024c-8.06 11.279-22.244 35.77-14.507 43.504 7.737 7.734 17.73 0 21.76-4.834-.806-12.084-3.385-36.736-7.253-38.67zm321.57 140.179c-4.029 11.278-9.187 34.802 2.418 38.669 11.606 3.867 14.507-12.889 14.507-21.751-2.418-8.862-9.188-24.652-16.925-16.918zm263.546 263.438c0 14.501 2.9 43.987 14.5 45.921 11.61 1.933-4.83-29.808-14.5-45.921zM631.635 253.841c-26.596 29.002-75.92 101.025-79.788 128.094-3.869 27.069 24.178 34.642 41.103 38.67 12.089.805 35.783-2.9 53.192-14.501 17.408-11.601-.806-105.537-14.507-152.263zm253.872 142.595c-4.03 39.476-9.672 121.327 0 132.928 12.089 14.501 29.013 29.002 67.699 29.002 30.948 0 43.521-33.836 45.938-50.754-22.566-37.059-76.886-111.176-113.637-111.176zm-89.46 275.523c-21.76 50.754-53.192 149.362-33.85 166.764 24.179 21.752 38.686 24.168 67.7 21.752 29.013-2.417 50.774-19.335 55.61-29.003.732-1.463 1.685-2.982 2.726-4.64 5.837-9.295 14.42-22.966 2.109-55.781-16.851-44.919-62.863-84.591-94.295-99.092zm357.843 0c0 74.923 17.89 213.168 89.45 166.764 71.57-46.404-29.81-130.511-89.45-166.764zm183.75 210.267c11.28 71.701 55.13 199.634 140.23 137.764 85.11-61.874-58.02-117.623-140.23-137.764zm-357.838 79.757C943.535 1049.8 900.981 1213.34 1020.9 1165c119.93-48.34 22.57-155.49-41.098-203.017zm-411.03 21.752c-41.103 62.035-98.648 188.515 0 198.185 98.647 9.67 41.103-128.1 0-198.185zM302.811 855.641c-47.551 42.698-121.375 135.344-36.268 164.349 85.108 29 59.64-97.482 36.268-164.349zm232.11-280.357c-51.58 46.726-139.267 145.979-77.37 169.181C519.447 767.667 559.1 725.13 559.1 710.629c.806-34.642.966-108.276-24.179-135.345z"/></symbol><symbol viewBox="0 0 512.076 512.076" id="call" xmlns="http://www.w3.org/2000/svg"><path d="M498.639 395.039l-103.646-69.12c-13.153-8.701-30.784-5.838-40.508 6.579l-30.191 38.818a12.903 12.903 0 0 1-16.546 3.482l-5.743-3.166c-19.038-10.377-42.726-23.296-90.453-71.04s-60.672-71.45-71.049-90.453l-3.149-5.743a12.92 12.92 0 0 1 3.413-16.606l38.792-30.182c12.412-9.725 15.279-27.351 6.588-40.508l-69.12-103.646C108.12.056 90.25-3.966 76.461 4.323L33.12 30.358A61.136 61.136 0 0 0 5.242 66.539c-15.607 56.866-3.866 155.008 140.706 299.597 115.004 114.995 200.619 145.92 259.465 145.92a151.181 151.181 0 0 0 40.107-5.239 61.079 61.079 0 0 0 36.181-27.878l26.061-43.315c8.301-13.792 4.281-31.673-9.123-40.585zm-5.581 31.829l-26.001 43.341a44.103 44.103 0 0 1-26.027 20.173c-52.497 14.413-144.213 2.475-283.008-136.32S7.29 123.559 21.703 71.054a44.17 44.17 0 0 1 20.198-26.061l43.341-26.001c5.983-3.6 13.739-1.855 17.604 3.959l37.547 56.371 31.514 47.266c3.774 5.707 2.534 13.356-2.85 17.579l-38.801 30.182c-11.808 9.029-15.18 25.366-7.91 38.332l3.081 5.598c10.906 20.002 24.465 44.885 73.967 94.379 49.502 49.493 74.377 63.053 94.37 73.958l5.606 3.089c12.965 7.269 29.303 3.898 38.332-7.91l30.182-38.801c4.224-5.381 11.87-6.62 17.579-2.85l103.637 69.12c5.818 3.862 7.563 11.622 3.958 17.604zM290.161 85.39c80.081.089 144.977 64.986 145.067 145.067 0 4.713 3.82 8.533 8.533 8.533s8.533-3.82 8.533-8.533c-.099-89.503-72.63-162.035-162.133-162.133-4.713 0-8.533 3.82-8.533 8.533s3.82 8.533 8.533 8.533z"/><path d="M290.161 136.59c51.816.061 93.806 42.051 93.867 93.867a8.533 8.533 0 0 0 17.066 0c-.071-61.238-49.696-110.863-110.933-110.933-4.713 0-8.533 3.82-8.533 8.533s3.82 8.533 8.533 8.533z"/><path d="M290.161 187.79c23.552.028 42.638 19.114 42.667 42.667a8.533 8.533 0 0 0 17.066 0c-.038-32.974-26.759-59.696-59.733-59.733-4.713 0-8.533 3.82-8.533 8.533s3.82 8.533 8.533 8.533z"/></symbol><symbol viewBox="0 0 512 512" id="checklist" xmlns="http://www.w3.org/2000/svg"><path d="M274.827 213.911H126.655a7.5 7.5 0 0 0-7.5 7.5 7.5 7.5 0 0 0 7.5 7.5h148.172a7.5 7.5 0 0 0 0-15zm118.73-11.58a7.5 7.5 0 0 0-10.24-2.763l-35.106 20.188 3.225-11.691a7.5 7.5 0 0 0-14.46-3.988l-4.104 14.877a13.596 13.596 0 0 0 4.796 14.412c4.17 3.23 10.333 3.815 15.155 1.041l37.971-21.835a7.5 7.5 0 0 0 2.763-10.241zm-118.73 68.757H126.655a7.5 7.5 0 0 0 0 15h148.172a7.5 7.5 0 0 0 0-15zm118.73-11.579a7.499 7.499 0 0 0-10.24-2.763l-35.106 20.188 3.225-11.691a7.5 7.5 0 0 0-5.236-9.224 7.498 7.498 0 0 0-9.224 5.236l-4.104 14.877a13.595 13.595 0 0 0 4.797 14.412c4.183 3.24 10.318 3.822 15.155 1.041l37.971-21.835a7.5 7.5 0 0 0 2.762-10.241zm-118.73 68.756H126.655a7.5 7.5 0 0 0 0 15h148.172a7.5 7.5 0 0 0 0-15zm118.73-11.579a7.5 7.5 0 0 0-10.24-2.763l-35.106 20.188 3.225-11.692a7.5 7.5 0 0 0-5.236-9.224 7.498 7.498 0 0 0-9.224 5.236l-4.104 14.877a13.597 13.597 0 0 0 4.797 14.413c4.355 3.373 10.381 3.785 15.154 1.041l37.971-21.835a7.5 7.5 0 0 0 2.763-10.241zm-118.73 68.756H126.655a7.5 7.5 0 0 0 0 15h148.172a7.5 7.5 0 0 0 0-15zm118.73-11.579a7.499 7.499 0 0 0-10.24-2.763l-35.106 20.188 3.225-11.692a7.5 7.5 0 0 0-5.236-9.224 7.497 7.497 0 0 0-9.224 5.235l-4.104 14.877a13.596 13.596 0 0 0 4.797 14.413c4.354 3.373 10.379 3.787 15.154 1.041l37.971-21.835a7.5 7.5 0 0 0 2.763-10.24z"/><path d="M412.992 0H206.339c-1.963 0-3.912.81-5.303 2.196L69.006 134.227c-1.367 1.39-2.193 3.351-2.193 5.299v276.282a7.5 7.5 0 0 0 15 0V147.026h95.08c16.553 0 30.598-10.942 35.283-25.973a36.958 36.958 0 0 0 1.664-10.975V15h199.153c9.481 0 17.194 7.718 17.194 17.204v101.604a7.5 7.5 0 0 0 15 0V32.204C445.187 14.447 430.744 0 412.992 0zM198.84 110.079c0 11.9-9.97 21.947-21.947 21.947H92.42l106.42-106.42v84.473zm238.846 46.23a7.5 7.5 0 0 0-7.5 7.5v315.997c0 9.481-7.713 17.194-17.194 17.194H99.008c-9.481 0-17.194-7.713-17.194-17.194v-33.997a7.502 7.502 0 0 0-15.001 0v33.997c0 17.752 14.442 32.194 32.194 32.194h313.985c17.752 0 32.194-14.442 32.194-32.194V163.809a7.5 7.5 0 0 0-7.5-7.5z"/></symbol><symbol viewBox="0 0 512.001 512.001" id="constitution" xmlns="http://www.w3.org/2000/svg"><path d="M431.279 10c0-5.523-4.478-10-10-10H122.606C99.513 0 80.724 18.788 80.724 41.882v360.265c0 .039-.003.077-.003.116v36.312c0 22.494 18.301 40.794 40.795 40.794h13.979V502a10 10 0 0 0 17.237 6.901l23.873-25.039 23.873 25.039A9.998 9.998 0 0 0 217.715 502v-22.631h203.563c5.522 0 10-4.477 10-10V10zM122.606 20h288.673v340.388H122.597a41.619 41.619 0 0 0-21.872 6.183V41.882C100.724 29.816 110.541 20 122.606 20zm75.11 457.021l-13.873-14.55a10 10 0 0 0-14.474 0l-13.873 14.55v-38.539h42.221v38.539zm20-17.652v-20.887h4.348c5.522 0 10-4.477 10-10s-4.478-10-10-10h-89.916c-5.522 0-10 4.477-10 10s4.478 10 10 10h3.344v20.887h-13.975c-11.467 0-20.795-9.328-20.795-20.794V402.34c0-.02.003-.038.003-.058 0-12.066 9.816-21.882 21.882-21.882H411.28v19.864h-86.853c-5.522 0-10 4.477-10 10s4.478 10 10 10h86.853v39.104H217.716z"/><path d="M351.602 267.012H174.386c-5.522 0-10 4.477-10 10s4.478 10 10 10h177.217c5.522 0 10-4.477 10-10s-4.478-10-10.001-10zm0 43.013H174.386c-5.522 0-10 4.477-10 10s4.478 10 10 10h177.217c5.522 0 10-4.477 10-10s-4.478-10-10.001-10zm-63.288 96.415c-1.64-3.938-5.71-6.463-9.971-6.145-4.128.308-7.696 3.205-8.862 7.17-2.481 8.438 6.875 15.79 14.521 11.496 4.339-2.437 6.225-7.929 4.312-12.521zM146.639 154.816l67.229 40.342a9.994 9.994 0 0 0 13.72-3.429c2.842-4.736 1.307-10.878-3.429-13.72l-1.197-.718 6.544-10.905 78.615 47.173c-2.717 4.608-1.333 10.575 3.209 13.487a9.947 9.947 0 0 0 5.388 1.583 9.99 9.99 0 0 0 8.428-4.604l.116-.181 7.796 4.678a29.707 29.707 0 0 0 15.334 4.254c10.163 0 20.087-5.176 25.688-14.507 4.108-6.848 5.305-14.886 3.368-22.634s-6.774-14.278-13.622-18.387l-6.481-3.889c1.577-4.303.029-9.273-3.99-11.85-4.192-2.688-9.623-1.843-12.838 1.752l-80.242-48.149 6.055-10.091 1.197.718a9.996 9.996 0 0 0 13.721-3.429c2.841-4.736 1.306-10.878-3.43-13.72l-67.23-40.342c-4.736-2.842-10.879-1.306-13.721 3.429-2.841 4.736-1.306 10.878 3.43 13.72l1.574.944-43.366 72.269-1.573-.944c-4.736-2.842-10.879-1.306-13.72 3.429-2.844 4.737-1.309 10.88 3.427 13.721zM250 132.272l79.595 47.761-10.69 16.672-79.091-47.458zm106.929 75.706c-2.81 4.681-8.903 6.202-13.581 3.395l-7.286-4.372 10.69-16.672 6.781 4.069c2.268 1.36 3.869 3.522 4.51 6.087s.245 5.226-1.114 7.493zM219.018 76.633l30.161 18.098L205.812 167l-.862-.517-29.299-17.581z"/></symbol><symbol viewBox="0 0 496 496" id="consultation" xmlns="http://www.w3.org/2000/svg"><path d="M248 129.078L306.895 80H384V0H192v80h56zM208 64V16h160v48h-66.895L264 94.922V64zm0 0"/><path d="M224 32h16v16h-16zm32 0h64v16h-64zm80 0h16v16h-16zm71.238 448l-6.468-64.762C427.48 411.016 448 387.887 448 360V256h-32v-11.055c0-10.875-5.977-20.64-15.586-25.648C409.97 210.52 416 197.969 416 184v-16c0-26.473-21.527-48-48-48s-48 21.527-48 48v16c0 20.71 13.207 38.344 31.625 45.063L308.687 272h-44.863c-.894-13.336-10.054-24.96-23.031-28.672L208 233.968V219.68c9.793-8.793 16-21.504 16-35.68v-16c0-26.473-21.527-48-48-48s-48 21.527-48 48v16c0 14.168 6.207 26.879 16 35.68v14.297l-32.793 9.359C97.543 247.23 88 259.886 88 274.106V304H56v48h16v128H0v16h496v-16zM336 352v-36.688l56.688-56.687c4.097-4.098 6.535-9.602 7.082-15.344.07.559.23 1.086.23 1.664V344c0 13.23-10.77 24-24 24h-64v-16zm-24 64h40.762l6.398 64H312zm56.84 0h15.922l6.398 64h-15.922zM416 344v-72h16v88c0 22.055-17.945 40-40 40h-80v-16h64c22.055 0 40-17.945 40-40zm-80-160v-16c0-17.648 14.352-32 32-32s32 14.352 32 32v16c0 17.648-14.352 32-32 32s-32-14.352-32-32zm-20.688 104l53.375-53.375a9.03 9.03 0 0 1 6.344-2.625c4.946 0 8.969 4.023 8.969 8.969a9.03 9.03 0 0 1-2.625 6.344L324.687 304H240c-4.414 0-8-3.586-8-8s3.586-8 8-8zM144 168c0-17.648 14.352-32 32-32s32 14.352 32 32v16c0 17.648-14.352 32-32 32s-32-14.352-32-32zm32 64c5.617 0 10.984-1.023 16-2.8v8.593c-1.984 3.062-7.496 10.207-16 10.207s-14.016-7.145-16-10.207v-8.594c5.016 1.778 10.383 2.801 16 2.801zm-72 42.105c0-7.113 4.777-13.433 11.602-15.386l32.957-9.414C153.199 255.352 162.23 264 176 264s22.8-8.648 27.441-14.703l32.957 9.414c6.13 1.754 10.403 7.082 11.258 13.281H240c-13.23 0-24 10.77-24 24 0 2.817.574 5.488 1.473 8H104zM72 320h248v16H72zm16 64h24v-16H88v-16h208v16H128v16h168v96h-19.055l-16-32h-137.89l-16 32H88zm171.055 96h-134.11l8-16h118.11zm0 0"/></symbol><symbol viewBox="0 0 480 480" id="consulting" xmlns="http://www.w3.org/2000/svg"><path d="M440 0H280c-22.08.026-39.974 17.92-40 40v112c.026 22.08 17.92 39.974 40 40h32v40a8 8 0 0 0 12.8 6.4l61.864-46.4H440c22.08-.026 39.974-17.92 40-40V40c-.026-22.08-17.92-39.974-40-40zm24 152c0 13.255-10.745 24-24 24h-56a7.998 7.998 0 0 0-4.8 1.6L328 216v-32a8 8 0 0 0-8-8h-40c-13.255 0-24-10.745-24-24V40c0-13.255 10.745-24 24-24h160c13.255 0 24 10.745 24 24v112z"/><path d="M408 256h-67.504a24 24 0 0 0-23.288 18.176l-4.896 19.608-9.6 31.92-5.448 18.144-9.336-43.584c-5.628-25.753-28.376-44.149-54.736-44.264H184v-36.392A72.11 72.11 0 0 0 216 160v-48c-.044-39.746-32.254-71.956-72-72H72a8 8 0 0 0-8 8 48 48 0 0 0 14.608 34.256A71.733 71.733 0 0 0 72 112v48a72.11 72.11 0 0 0 32 59.608V256H56c-30.911.04-55.96 25.089-56 56v160a8 8 0 0 0 8 8h224a8 8 0 0 0 8-8v-90.952l7.768 29.112c7.268 27.199 35.209 43.356 62.408 36.088a50.976 50.976 0 0 0 35.192-33.104l27.528-82.6 9.048-27.128C401.478 300.501 415.951 283.75 416 264a8 8 0 0 0-8-8zm-213.792 16L176 303.872 157.792 272h36.416zM152 294.12L166.784 320 152 345.872V294.12zM120 256v-28.16c1.496.536 3.032.976 4.56 1.408.36.104.712.232 1.08.328a71.403 71.403 0 0 0 7.664 1.544c.952.144 1.904.256 2.856.36 2.016.219 4.037.352 6.064.4.6 0 1.184.12 1.776.12s1.176-.104 1.776-.12a72.819 72.819 0 0 0 6.056-.4c.96-.104 1.912-.216 2.864-.36a71.302 71.302 0 0 0 7.704-1.52c.368-.096.72-.224 1.08-.328 1.528-.432 3.064-.872 4.56-1.408V256H120zm24-200c25.989.03 48.553 17.907 54.528 43.2l-16.872-16.864A8 8 0 0 0 176 80h-64c-14.542-.144-27.209-9.955-30.984-24H144zM88 160v-48a55.81 55.81 0 0 1 3.912-20.488A48.407 48.407 0 0 0 97 93.544c.32.104.648.168.968.272a47.685 47.685 0 0 0 5.6 1.36c.592.104 1.176.208 1.768.296A47.65 47.65 0 0 0 112 96h60.688L200 123.312V160c0 30.928-25.072 56-56 56s-56-25.072-56-56zm24 112h18.208L112 303.872 93.792 272H112zm24 22.12v51.752L121.216 320 136 294.12zm194.232 113.96c-6.109 18.33-25.921 28.237-44.251 22.127a34.984 34.984 0 0 1-22.741-24.175l-23.512-88.096A8 8 0 0 0 224 320v144H64V344H48v120H16V312c.026-22.08 17.92-39.974 40-40h19.36l29.696 52 32 56a8 8 0 0 0 13.888 0l32-56 29.696-52h20.552c18.838.075 35.098 13.22 39.12 31.624l15.864 74.056a8 8 0 0 0 7.504 6.32 7.744 7.744 0 0 0 8-5.696L316.352 336h37.88l-24 72.08zM359.568 320h-38.4l4.784-16h38.944l-5.328 16zM376 288h-45.76l2.488-9.936a8 8 0 0 1 7.768-6.064h58.136A24.047 24.047 0 0 1 376 288zm22.664-183.906A23.888 23.888 0 0 0 393.872 96c8.825-9.807 8.029-24.911-1.778-33.736A23.888 23.888 0 0 0 384 57.472V40h-16v16h-16V40h-16v16h-8a8 8 0 0 0-8 8v64a8 8 0 0 0 8 8h8v16h16v-16h16v16h16v-17.472c12.454-4.355 19.019-17.981 14.664-30.434zM376 120h-40v-16h40a8 8 0 0 1 0 16zm0-32h-40V72h40a8 8 0 0 1 0 16z"/><path d="M104 128h16v16h-16zm64 0h16v16h-16zm-32 0h16v40h-16z"/></symbol><symbol viewBox="0 0 512 512" id="consulting-1" xmlns="http://www.w3.org/2000/svg"><path d="M466.191 410.422l-20.668-7.176c11.57-9.164 19.012-23.32 19.012-39.191v-15.149c0-27.562-22.426-49.988-49.988-49.988s-49.988 22.426-49.988 49.988v15.149c0 15.87 7.445 30.027 19.015 39.191l-20.672 7.176c-13.257 4.605-24.402 13.05-32.382 23.82h-55.836v-22.035c0-29.004-18.41-54.883-45.809-64.394l-20.672-7.176c11.57-9.164 19.016-23.32 19.016-39.192v-15.148c0-27.567-22.426-49.988-49.989-49.988s-49.988 22.425-49.988 49.988v15.148c0 15.871 7.445 30.028 19.012 39.192l-20.668 7.176c-27.399 9.511-45.809 35.39-45.809 64.394v22.035H7.574A7.574 7.574 0 0 0 0 441.816v62.61A7.574 7.574 0 0 0 7.574 512h315.078c.34 0 .676-.031 1.008-.074a7.85 7.85 0 0 0 1.012.074h179.754a7.574 7.574 0 0 0 7.574-7.574v-29.61c0-29-18.406-54.879-45.809-64.394zm-86.484-61.516c0-19.21 15.629-34.84 34.84-34.84s34.84 15.63 34.84 34.84v15.149c0 19.21-15.63 34.84-34.84 34.84s-34.84-15.63-34.84-34.84zm-237.316-62.61c0-19.21 15.629-34.839 34.84-34.839 19.21 0 34.84 15.629 34.84 34.84v15.148c0 19.211-15.63 34.84-34.84 34.84-19.211 0-34.84-15.629-34.84-34.84zm50.73 65.138l7.36 2.554-23.25 40.34-23.25-40.34 7.359-2.554zm-98.195 60.773c0-22.559 14.32-42.687 35.629-50.086l8.86-3.074 31.253 54.234a7.573 7.573 0 0 0 13.125 0l31.254-54.234 8.86 3.074c21.308 7.399 35.624 27.527 35.624 50.086v22.035H94.926zm-79.778 37.184h306.883a67.924 67.924 0 0 0-4.933 25.425v22.036H15.148zm481.704 47.46H332.246v-22.035c0-22.558 14.316-42.683 35.625-50.086l30.785-10.687h31.781l30.786 10.687c21.312 7.403 35.629 27.528 35.629 50.086zm0 0"/><path d="M464.031 54.531h-76.937a7.576 7.576 0 0 0-7.574 7.574 7.574 7.574 0 0 0 7.574 7.575h76.937c18.098 0 32.82 14.722 32.82 32.824v105.023c0 18.098-14.722 32.82-32.82 32.82H360.016a7.574 7.574 0 0 0-7.575 7.575v32.21l-37.562-37.566a7.572 7.572 0 0 0-5.356-2.218h-61.601c-18.098 0-32.824-14.723-32.824-32.82V102.5c0-18.098 14.722-32.82 32.824-32.82h103.762a7.574 7.574 0 0 0 7.574-7.575 7.574 7.574 0 0 0-7.574-7.574h-39.637V47.97c0-26.45-21.52-47.969-47.969-47.969H47.968C21.52 0 0 21.52 0 47.969v16.746a7.574 7.574 0 0 0 7.574 7.574 7.574 7.574 0 0 0 7.574-7.574V47.969c0-18.098 14.723-32.82 32.82-32.82h216.11c18.098 0 32.82 14.722 32.82 32.82v6.562h-48.976c-26.45 0-47.969 21.52-47.969 47.969v83.313H120.68a7.574 7.574 0 0 0-7.575 7.574v32.21l-37.562-37.566a7.572 7.572 0 0 0-5.356-2.219H47.97c-18.098 0-32.82-14.722-32.82-32.82V99.934a7.574 7.574 0 0 0-7.575-7.575A7.574 7.574 0 0 0 0 99.934v53.058c0 26.453 21.52 47.969 47.969 47.969h19.078l48.277 48.277a7.593 7.593 0 0 0 8.254 1.64 7.576 7.576 0 0 0 4.676-6.995V200.96h71.7v6.566c0 26.45 21.519 47.965 47.968 47.965h58.465l48.273 48.278a7.572 7.572 0 0 0 12.93-5.356v-42.922h96.441c26.45 0 47.969-21.515 47.969-47.965V102.5c0-26.45-21.52-47.969-47.969-47.969zm0 0"/></symbol><symbol viewBox="0 1 512 511" id="customer-service" xmlns="http://www.w3.org/2000/svg"><path d="M452.348 60.152c-79.54-79.535-208.953-79.535-288.489 0-15.226 15.223-27.789 32.47-37.457 51.399L113.88 99.027c-17.125-17.125-44.984-17.125-62.11 0L22.185 128.61c-25.989 25.989-29.16 63.09-9.426 110.274 3.039 7.27 9.605 17.355 20.074 30.84.16.203.328.402.5.597l20.633 22.664c.105.118.215.23.324.34l50.633 50.633c3.906 3.906 10.238 3.906 14.148 0 3.903-3.906 3.903-10.238 0-14.144l-50.468-50.465-20.211-22.203c-11.332-14.622-15.602-22.196-17.184-25.98-16.523-39.52-14.852-68.442 5.121-88.411l10.75-10.75 94.473 94.473-14.672 14.668c-8.422 8.421-9.156 21.75-1.707 31.007 11.402 14.168 32.074 36.543 55.324 59.871 23.309 23.227 45.68 43.903 59.852 55.305 9.254 7.445 22.582 6.711 31-1.71l14.672-14.673 94.472 94.473-10.75 10.75c-19.969 19.973-48.89 21.648-88.41 5.121-3.977-1.664-13.902-7.121-35.789-25.004l-62.86-62.855c-3.906-3.907-10.238-3.907-14.144 0s-3.906 10.238 0 14.144l63.211 63.211c.238.235.484.457.738.668 18.657 15.266 32.11 24.516 41.125 28.29 20.344 8.507 38.809 12.757 55.32 12.757 21.786 0 40.169-7.402 54.954-22.187l29.586-29.583c17.12-17.125 17.12-44.988 0-62.109l-12.524-12.527c18.922-9.664 36.168-22.223 51.395-37.453 79.539-79.536 79.539-208.953.004-288.489zM99.734 113.168l60.653 60.656c9.324 9.324 9.324 24.492 0 33.817l-4.692 4.691-94.472-94.473 4.691-4.691c9.324-9.324 24.496-9.32 33.82 0zm299.594 333.418l-4.687 4.687-94.473-94.472 4.687-4.688c9.325-9.328 24.497-9.324 33.82 0l60.653 60.653c9.324 9.324 9.324 24.496 0 33.82zm-13.332-75.441l-33.176-33.176c-17.12-17.121-44.984-17.125-62.11 0l-33.503 33.504c-1.184 1.187-3.039 1.3-4.32.273-13.649-10.988-35.434-31.133-58.246-53.863-22.754-22.836-42.903-44.621-53.887-58.27-1.027-1.281-.914-3.136.273-4.32l33.504-33.504c17.125-17.125 17.125-44.988 0-62.11l-33.172-33.175c9.04-19.371 21.352-36.918 36.645-52.207 71.738-71.738 188.46-71.738 260.2 0s71.737 188.465 0 260.2c-15.298 15.296-32.837 27.605-52.208 36.648zm0 0"/><path d="M143.676 378.566c-4.188 0-7.992-2.699-9.41-6.632-1.391-3.868-.2-8.336 2.941-10.993 3.281-2.777 8.094-3.12 11.746-.863 3.504 2.168 5.324 6.41 4.524 10.445-.915 4.622-5.098 8.043-9.801 8.043zm215.269-152.211h-50.843c-5.524 0-10-4.476-10-10v-73.722c0-5.524 4.476-10 10-10 5.523 0 10.003 4.476 10.003 10v63.722h40.84c5.524 0 10 4.477 10 10 0 5.524-4.476 10-10 10zm0 0"/><path d="M411.57 317.867a9.961 9.961 0 0 1-7.07-2.93c-3.906-3.906-3.906-10.238 0-14.144 25.703-25.703 39.86-59.938 39.86-96.398 0-36.458-14.157-70.692-39.86-96.395-38.617-38.617-96.406-50.434-147.223-30.098-5.129 2.051-10.949-.445-13.004-5.57-2.05-5.129.446-10.95 5.575-13.004 58.257-23.308 124.511-9.754 168.793 34.527 29.484 29.485 45.718 68.739 45.718 110.543 0 41.801-16.234 81.059-45.718 110.54a9.961 9.961 0 0 1-7.07 2.93zm0 0"/></symbol><symbol viewBox="0 0 511.795 511.795" id="diploma" xmlns="http://www.w3.org/2000/svg"><path d="M307.098 179.004a8.53 8.53 0 0 0 8.533 8.533h85.333c4.719 0 8.533-3.823 8.533-8.533s-3.814-8.533-8.533-8.533h-85.333a8.53 8.53 0 0 0-8.533 8.533zm51.2 51.2a8.53 8.53 0 0 0 8.533 8.533h51.2c4.719 0 8.533-3.823 8.533-8.533s-3.814-8.533-8.533-8.533h-51.2a8.53 8.53 0 0 0-8.533 8.533zm-8.534-93.867a8.53 8.53 0 0 0 8.533-8.533 8.53 8.53 0 0 0-8.533-8.533h-17.067a8.53 8.53 0 0 0-8.533 8.533 8.53 8.53 0 0 0 8.533 8.533h17.067zm-102.4 85.333c-4.719 0-8.533 3.823-8.533 8.533s3.814 8.533 8.533 8.533h85.333c4.719 0 8.533-3.823 8.533-8.533s-3.814-8.533-8.533-8.533h-85.333zm42.667 238.934H127.898c-14.114 0-25.6-11.486-25.6-25.6V42.47a8.53 8.53 0 0 0-8.533-8.533c-23.526 0-42.667 19.14-42.667 42.667 0 4.71 3.814 8.533 8.533 8.533s8.533-3.823 8.533-8.533c0-11.128 7.134-20.617 17.067-24.141v382.541c0 23.526 19.14 42.667 42.667 42.667h162.133c4.719 0 8.533-3.823 8.533-8.533s-3.814-8.534-8.533-8.534z"/><path d="M162.031 187.537h119.467c4.719 0 8.533-3.823 8.533-8.533s-3.814-8.533-8.533-8.533H162.031c-4.719 0-8.533 3.823-8.533 8.533s3.814 8.533 8.533 8.533zm0-51.2h34.133a8.53 8.53 0 0 0 8.533-8.533 8.53 8.53 0 0 0-8.533-8.533h-34.133a8.53 8.53 0 0 0-8.533 8.533 8.53 8.53 0 0 0 8.533 8.533zm136.533-17.067h-68.267a8.53 8.53 0 0 0-8.533 8.533 8.53 8.53 0 0 0 8.533 8.533h68.267a8.53 8.53 0 0 0 8.533-8.533 8.53 8.53 0 0 0-8.533-8.533z"/><path d="M418.031 0H93.764c-42.249 0-76.638 34.295-76.8 76.501v.401c.111 27.213 14.797 52.565 38.391 66.219a8.54 8.54 0 0 0 11.656-3.106c2.372-4.079.964-9.301-3.106-11.657-18.397-10.658-29.84-30.438-29.874-51.66.06-32.888 26.829-59.631 59.733-59.631h324.267c32.93 0 59.733 26.795 59.733 59.733v358.4c0 4.326-1.212 8.67-3.49 12.544-2.381 4.062-1.033 9.293 3.029 11.682a8.486 8.486 0 0 0 4.318 1.178 8.52 8.52 0 0 0 7.364-4.207c3.823-6.494 5.845-13.824 5.845-21.197V76.8C494.831 34.449 460.382 0 418.031 0z"/><path d="M443.631 392.337c0-28.237-22.963-51.2-51.2-51.2-28.237 0-51.2 22.963-51.2 51.2 0 28.237 22.963 51.2 51.2 51.2 28.237 0 51.2-22.963 51.2-51.2zm-51.2 34.133c-18.825 0-34.133-15.309-34.133-34.133s15.309-34.133 34.133-34.133c18.825 0 34.133 15.309 34.133 34.133s-15.308 34.133-34.133 34.133zm-15.403 25.609c-4.07-2.355-9.293-.956-11.657 3.123l-18.372 31.838-2.918-4.403a8.489 8.489 0 0 0-6.605-3.814l-5.274-.316 18.68-32.341c2.355-4.079.956-9.301-3.123-11.657-4.079-2.364-9.301-.964-11.665 3.123l-25.574 44.297c-1.476 2.56-1.519 5.709-.12 8.311s4.045 4.301 7.006 4.471l14.788.887 8.166 12.365a8.52 8.52 0 0 0 7.117 3.831h.265a8.576 8.576 0 0 0 7.134-4.267l25.284-43.793c2.355-4.077.956-9.3-3.132-11.655zm71.962-14.046c-2.364-4.087-7.595-5.487-11.657-3.123-4.087 2.355-5.487 7.578-3.132 11.656l18.458 31.94-5.274.316a8.569 8.569 0 0 0-6.613 3.814l-2.901 4.403-18.278-31.676c-2.372-4.079-7.595-5.478-11.665-3.123-4.079 2.355-5.478 7.578-3.123 11.657l25.19 43.631a8.576 8.576 0 0 0 7.134 4.267h.265a8.56 8.56 0 0 0 7.125-3.831l8.158-12.356 14.78-.896c2.961-.171 5.606-1.869 7.006-4.471s1.348-5.751-.119-8.311l-25.354-43.897zM162.031 238.737h51.2c4.719 0 8.533-3.823 8.533-8.533s-3.814-8.533-8.533-8.533h-51.2c-4.719 0-8.533 3.823-8.533 8.533s3.814 8.533 8.533 8.533zm0 51.2h102.4c4.719 0 8.533-3.823 8.533-8.533s-3.814-8.533-8.533-8.533h-102.4c-4.719 0-8.533 3.823-8.533 8.533s3.814 8.533 8.533 8.533zm.904 106.214c2.099 4.215 7.228 5.922 11.443 3.823 4.215-2.108 5.931-7.236 3.814-11.452-8.448-16.896-10.342-32.051-5.086-40.559 2.799-4.531 7.68-6.827 14.524-6.827 4.07 0 5.589 1.399 6.545 2.765 6.357 9.165.316 37.077-6.007 53.973a8.54 8.54 0 0 0 3.379 10.172 8.56 8.56 0 0 0 10.65-1.143 204.463 204.463 0 0 1 11.034-10.206v4.173a8.514 8.514 0 0 0 5.265 7.876 8.518 8.518 0 0 0 9.301-1.843c3.9-3.891 8.422-7.706 12.228-10.453-.102.213-.205.418-.307.614a8.563 8.563 0 0 0 .393 8.294 8.553 8.553 0 0 0 7.253 4.045h34.133c4.719 0 8.533-3.823 8.533-8.533s-3.814-8.533-8.533-8.533h-22.212c.691-4.062.521-8.192-1.536-11.52-2.176-3.524-5.965-5.547-10.385-5.547-5.274 0-11.477 3.208-17.143 7.185-.435-3.721-2.637-6.784-5.982-8.166-2.278-.939-5.214-2.167-12.339 2.108 2.807-14.703 3.627-31.65-3.695-42.214-3.2-4.617-9.361-10.112-20.574-10.112-12.783 0-23.1 5.299-29.047 14.925-8.508 13.772-6.93 34.602 4.351 57.155zm229.496-114.747a8.53 8.53 0 0 0-8.533-8.533h-85.333c-4.719 0-8.533 3.823-8.533 8.533s3.814 8.533 8.533 8.533h85.333a8.53 8.53 0 0 0 8.533-8.533z"/></symbol><symbol viewBox="0 0 512 512" id="employee" xmlns="http://www.w3.org/2000/svg"><path d="M421.054 414.843a7.5 7.5 0 0 0-7.5 7.5v70.514a4.146 4.146 0 0 1-4.141 4.141h-40.317V349.301a7.5 7.5 0 0 0-15 0v147.698h-81.185l23.543-25.9c2.572-2.83 3.785-6.861 3.244-10.787a5.982 5.982 0 0 0-.035-.228L277.24 327.617l6.041-9.094c3.34 2.372 5.913 4.656 10.738 4.656 4.908 0 9.497-2.747 11.755-7.269v-.001l23.65-47.4 53.876 20.865c1.949.836 30.252 13.582 30.252 47.238v50.73a7.5 7.5 0 0 0 15 0v-50.73c0-44.344-37.969-60.463-39.585-61.128a3.546 3.546 0 0 0-.143-.057l-89.668-34.726v-21.03c14.242-11.076 24.117-27.495 26.596-46.227 7.101-.5 13.69-3.152 19.071-7.779a31.786 31.786 0 0 0 11.059-24.126 31.791 31.791 0 0 0-7.737-20.803V92.953C348.144 41.699 306.446 0 255.192 0c-51.254 0-92.952 41.699-92.952 92.953v28.511c-5.009 5.677-7.733 12.665-7.733 20.074 0 9.291 4.03 18.085 11.059 24.129 5.377 4.625 11.962 7.274 19.061 7.775 2.499 19.083 12.662 36.114 28.117 47.339v19.92l-89.571 34.725a8.255 8.255 0 0 0-.141.056c-1.617.665-39.585 16.784-39.585 61.128v156.245c0 10.555 8.587 19.142 19.142 19.142h71.457a7.5 7.5 0 0 0 0-15h-16.137V349.301a7.5 7.5 0 0 0-15 0v147.698H102.59a4.146 4.146 0 0 1-4.141-4.141V336.611c0-33.769 28.493-46.486 30.243-47.234l53.834-20.87 23.652 47.402a13.133 13.133 0 0 0 11.756 7.27c4.801 0 7.349-2.249 10.738-4.656l6.041 9.094-22.421 132.468c-.013.075-.024.15-.035.226-.542 3.924.671 7.957 3.244 10.789l23.543 25.9h-29.995a7.5 7.5 0 0 0 0 15h200.365c10.555 0 19.142-8.588 19.142-19.142v-70.514a7.503 7.503 0 0 0-7.502-7.501zM315.375 263.069l-22.049 44.19c-.548-.389-12.233-8.691-26.517-18.834l27.235-33.617 21.331 8.261zm-44.332 46.764l-5.718 8.607h-18.703l-5.718-8.607 15.07-10.703 15.069 10.703zm-43.3-66.712v-14.036c9.112 3.673 18.85 5.376 28.36 5.376 9.833 0 19.476-2.096 28.052-5.846v14.567l-28.181 34.785-28.231-34.846zm113.138-101.582a16.804 16.804 0 0 1-5.839 12.753c-2.453 2.11-5.416 3.459-8.661 3.987v-33.477c8.62 1.4 14.5 8.55 14.5 16.737zm-156.874 16.74c-8.718-1.415-14.5-8.623-14.5-16.741 0-8.018 6.647-14.544 14.5-16.359v33.1zm.403-48.383c-2.389.274-5.127.921-7.168 1.615V92.953c0-42.983 34.968-77.952 77.951-77.952 42.983 0 77.951 34.969 77.951 77.952v18.043a33.343 33.343 0 0 0-6.762-1.307c0-7.237.063-5.841-23.612-31.294-4.354-4.678-11.556-5.658-17.037-2.077-26.13 17.069-58.005 25.644-87.415 23.532-6.451-.483-12.327 3.766-13.908 10.046zm14.598 54.288v-49.257c32.375 1.896 66.318-7.722 93.739-25.283 10.858 11.658 16.738 17.773 18.634 20.099v54.44c0 30.447-24.826 55.276-55.277 55.276-34.194.001-57.096-26.525-57.096-55.275zm19.615 143.075l-22.049-44.19 21.293-8.247 27.241 33.625c-13.853 9.837-25.228 17.919-26.485 18.812zm8.605 154.443l21.709-128.263h14.071l21.709 128.263-28.744 31.623-28.745-31.623z"/></symbol><symbol viewBox="0 0 512 512" id="growth" xmlns="http://www.w3.org/2000/svg"><path d="M87.847 280.104c0 27.829 10.137 56.011 27.811 77.321 18.586 22.409 42.849 34.751 68.318 34.751 25.466 0 49.699-12.335 68.237-34.732 17.616-21.284 27.719-49.455 27.719-77.291v-.143a8 8 0 0 0-16 0v.143c0 24.174-8.764 48.626-24.045 67.089-15.442 18.658-35.299 28.934-55.911 28.934-20.623 0-40.512-10.287-56.003-28.965-15.333-18.487-24.126-42.947-24.126-67.107v-9.595c0-19.791 13.293-46.696 18.333-56.187 32.113-3.683 63.08-2.321 92.099 4.084a8.004 8.004 0 0 0 9.536-6.088 8 8 0 0 0-6.088-9.536c-31.833-7.026-65.791-8.346-100.941-3.936a7.984 7.984 0 0 0-6.553 3.983c-.512.886-7.474 13.042-13.5 28.589-2.735-14.816-5.242-31.478-5.242-42.78 0-27.988 17.719-40.516 35.28-40.516.58 0 1.144-.065 1.688-.182a8.013 8.013 0 0 0 1.677.183 7.963 7.963 0 0 0 4.833-1.63c17.543-13.325 40.98-11.589 63.694-7.728a8 8 0 0 0 9.228-6.546 8 8 0 0 0-6.546-9.228c-24.198-4.113-51.751-6.161-73.856 9.167a8.102 8.102 0 0 0-.718-.036c-15.185 0-28.667 6.068-37.963 17.086-8.587 10.178-13.317 24.181-13.317 39.43 0 24.975 10.624 71.13 12.354 78.481v12.985z"/><path d="M321.753 409.886a8.412 8.412 0 0 0-.521-.127l-47.597-9.956-12.583-19.081a7.827 7.827 0 0 0-.279-.396 14.131 14.131 0 0 0-9.557-5.523 14.143 14.143 0 0 0-10.754 3.206l-56.594 48.716-56.593-48.716-.153-.129a14.128 14.128 0 0 0-10.601-3.077 14.135 14.135 0 0 0-9.557 5.523c-.097.129-.19.261-.279.396l-12.583 19.081-47.597 9.956a8.412 8.412 0 0 0-.521.127c-13.84 3.877-25.614 12.458-34.051 24.815C4.238 445.974 0 459.582 0 473.019v15.041c0 13.195 11.75 23.931 26.193 23.931h139.46l.03.001.033-.001h36.303l.033.001.03-.001h139.461c14.443 0 26.193-10.735 26.193-23.931v-15.041c0-13.437-4.238-27.045-11.934-38.317-8.435-12.357-20.209-20.938-34.049-24.816zm-72.643-18.209l9.931 15.06-39.749 54.654-23.671-23.67 53.489-46.044zm-70.489 88.379h10.496l3.187 15.935h-16.87l3.187-15.935zm13.248-20.383c0 2.634-1.605 4.382-2.667 4.382h-10.667c-1.062 0-2.667-1.748-2.667-4.382v-3.079l8-8 8 8v3.079zm-73.241-67.996l53.488 46.043-23.67 23.67-39.749-54.654 9.931-15.059zM16 488.06v-15.041c0-18.872 11.696-41.252 34.055-47.656l45.486-9.514 45.472 62.524a8 8 0 0 0 12.126.952l9.328-9.329c.423.782.888 1.531 1.4 2.242l-4.75 23.752H26.193c-5.525 0-10.193-3.632-10.193-7.93zm335.738 0c0 4.299-4.668 7.931-10.193 7.931H208.62l-4.75-23.752c.512-.71.977-1.46 1.4-2.242l9.329 9.329a7.999 7.999 0 0 0 12.126-.952l45.472-62.524 45.486 9.514c22.358 6.404 34.055 28.784 34.055 47.656v15.04zM368 .009c-79.402 0-144 64.598-144 144s64.598 144 144 144 144-64.598 144-144-64.598-144-144-144zm0 272c-70.58 0-128-57.421-128-128s57.42-128 128-128 128 57.421 128 128-57.42 128-128 128z"/><path d="M455.96 79.218c-.011-.114-.033-.225-.049-.337-.021-.146-.038-.292-.067-.437-.026-.132-.062-.26-.095-.389-.031-.124-.058-.248-.095-.37-.039-.127-.087-.25-.131-.375-.043-.121-.083-.244-.133-.363-.049-.118-.106-.23-.16-.345-.057-.122-.111-.245-.175-.364-.06-.112-.128-.218-.193-.327-.069-.115-.134-.231-.209-.343-.082-.122-.173-.237-.261-.355-.069-.091-.132-.185-.205-.274a8.036 8.036 0 0 0-1.118-1.118c-.089-.073-.183-.136-.274-.205-.117-.088-.233-.179-.355-.261-.112-.075-.228-.14-.342-.208-.109-.065-.216-.134-.328-.194-.119-.063-.242-.118-.363-.175-.115-.054-.228-.112-.346-.161-.12-.049-.242-.089-.363-.133-.125-.045-.248-.093-.375-.131-.122-.037-.247-.064-.371-.095-.129-.032-.257-.069-.389-.095-.144-.029-.29-.046-.435-.066-.113-.016-.224-.038-.338-.049a8.082 8.082 0 0 0-.793-.04H400a8 8 0 0 0 0 16h28.687L368 148.695l-18.343-18.344a8 8 0 0 0-11.313 0l-64 64a7.999 7.999 0 0 0 0 11.314c1.562 1.562 3.609 2.343 5.657 2.343s4.095-.781 5.657-2.343L344 147.322l18.343 18.344a7.968 7.968 0 0 0 5.657 2.342 7.968 7.968 0 0 0 5.659-2.345L440 99.322v28.687a8 8 0 0 0 16 0V80.011c0-.264-.014-.529-.04-.793z"/></symbol><symbol viewBox="0 0 512.001 512.001" id="law" xmlns="http://www.w3.org/2000/svg"><path d="M501.998 437.999h-44v-80.843c0-5.522-4.477-10-10-10s-10 4.478-10 10v80.843H217.984c-5.523 0-10 4.478-10 10 0 .365.014 1.69.014 2 0 23.159-18.841 42-42 42s-42-18.841-42-42V321c0-5.522-4.477-10-10-10s-10 4.478-10 10v128.999c0 34.187 27.813 62 62 62h282c35.29 0 64-28.71 64-64 0-5.522-4.477-10-10-10zm-54 54H211.553c8.491-9.203 14.224-20.973 15.911-34h263.388c-4.539 19.461-22.03 34-42.854 34zM121.071 270.93a10.076 10.076 0 0 0-7.07-2.93c-2.63 0-5.21 1.069-7.07 2.93a10.076 10.076 0 0 0-2.93 7.07c0 2.63 1.07 5.21 2.93 7.069a10.072 10.072 0 0 0 7.07 2.931c2.63 0 5.21-1.07 7.07-2.931a10.072 10.072 0 0 0 2.93-7.069c0-2.63-1.07-5.21-2.93-7.07z"/><path d="M511.368 252.667l.008-.004-41.042-110.638h12.664c5.523 0 10-4.478 10-10s-4.477-10-10-10h-25V64.002c0-35.29-28.71-63.999-64-63.999H61.999c-34.187 0-62 27.813-62 62 0 5.522 4.477 10 10 10h93.999v163.999c0 5.522 4.477 10 10 10s10-4.478 10-10V62.003c0-16.191-6.245-30.946-16.445-42h286.445c24.262 0 44 19.738 44 44v58.023h-79.694c-3.609-10.781-13.796-18.575-25.776-18.575h-1.057c-11.98 0-22.167 7.794-25.776 18.575H181.003c-5.523 0-10 4.478-10 10s4.477 10 10 10h12.667l-41.042 110.638.008.004a9.953 9.953 0 0 0-.632 3.473v1.374c0 30.144 24.524 54.668 54.668 54.668h2.748c30.144 0 54.668-24.524 54.668-54.668v-1.374a9.95 9.95 0 0 0-.634-3.477h.009l-41.043-110.64h81.874v215.163h-9.773c-5.523 0-10 4.478-10 10s4.477 10 10 10h74.961c5.523 0 10-4.478 10-10s-4.477-10-10-10h-9.773V228.334c0-5.522-4.477-10-10-10s-10 4.478-10 10v128.854h-15.416V157.896c2.288.627 4.693.969 7.178.969h1.057c11.328 0 21.055-6.968 25.132-16.841h83.819c.027.023.051.049.078.071l-41.016 110.566a.043.043 0 0 1 .007.006 9.948 9.948 0 0 0-.632 3.472v1.374c0 30.144 24.524 54.668 54.668 54.668h2.748c30.144 0 54.668-24.524 54.668-54.668v-1.374c0-1.222-.23-2.388-.632-3.472zM21.213 52.002c4.499-18.345 21.074-32 40.787-32s36.288 13.655 40.787 32H21.213zm188.205 240.18h-2.748c-16.14 0-29.738-11.085-33.582-26.042H243c-3.844 14.957-17.442 26.042-33.582 26.042zm30.293-46.041h-63.333l31.666-85.363 31.667 85.363zm99.997-114.455c0 3.959-3.221 7.18-7.18 7.18h-1.057c-3.959 0-7.18-3.221-7.18-7.18v-1.057c0-3.959 3.221-7.18 7.18-7.18h1.057c3.959 0 7.18 3.221 7.18 7.18v1.057zm116.251 29.091l31.666 85.363h-63.333l31.667-85.363zm1.373 131.405h-2.748c-16.14 0-29.738-11.085-33.582-26.042h69.911c-3.842 14.957-17.441 26.042-33.581 26.042z"/><path d="M356.779 181.931a10.076 10.076 0 0 0-7.07-2.93c-2.63 0-5.21 1.07-7.07 2.93a10.076 10.076 0 0 0-2.93 7.07c0 2.63 1.07 5.21 2.93 7.069a10.077 10.077 0 0 0 7.07 2.931c2.63 0 5.21-1.07 7.07-2.931a10.072 10.072 0 0 0 2.93-7.069c0-2.63-1.07-5.21-2.93-7.07z"/></symbol><symbol viewBox="0 0 512 512" id="libra" xmlns="http://www.w3.org/2000/svg"><path d="M306 462c0 5.52 4.48 10 10 10s10-4.48 10-10-4.48-10-10-10-10 4.48-10 10zm-30-10h-80c-5.523 0-10 4.477-10 10s4.477 10 10 10h80c5.523 0 10-4.477 10-10s-4.477-10-10-10zm0 0"/><path d="M511.965 289.336a8.616 8.616 0 0 0-.082-.785 9.074 9.074 0 0 0-.051-.344 10.43 10.43 0 0 0-.262-1.105 10.27 10.27 0 0 0-.414-1.114c-.008-.015-.011-.035-.02-.05l-77.21-173.723L469.07 77.07c3.907-3.906 3.907-10.234 0-14.14s-10.234-3.907-14.14 0l-35.524 35.523L305.398 57.7A50.53 50.53 0 0 0 306 50c0-27.57-22.43-50-50-50s-50 22.43-50 50c0 2.594.21 5.164.602 7.7L92.594 98.452 57.07 62.93c-3.906-3.907-10.234-3.907-14.14 0s-3.907 10.234 0 14.14l35.14 35.145L.863 285.938c-.008.015-.011.035-.02.05-.16.36-.296.73-.413 1.114a10.71 10.71 0 0 0-.262 1.102c-.02.116-.035.23-.05.343-.04.262-.067.52-.083.785-.012.137-.02.273-.023.41 0 .086-.012.172-.012.258 0 49.625 40.375 90 90 90 24.031 0 46.629-9.36 63.645-26.36C170.64 336.634 180 314.028 180 290c0-.086-.012-.172-.012-.258a7.079 7.079 0 0 0-.023-.406 8.616 8.616 0 0 0-.082-.785 9.074 9.074 0 0 0-.051-.344 10.43 10.43 0 0 0-.262-1.105 10.27 10.27 0 0 0-.414-1.114c-.008-.015-.011-.035-.02-.05l-75.62-170.149 110.062-39.344A50.288 50.288 0 0 0 226 89.988v268.77c-7.207 3.433-13.86 8.101-19.504 13.746-10.945 10.957-17.805 24.898-19.844 39.98C141.402 417.176 106 455.531 106 502c0 5.523 4.477 10 10 10h280c5.523 0 10-4.477 10-10 0-46.469-35.402-84.824-80.652-89.516-2.04-15.082-8.899-29.027-19.848-39.984-5.64-5.645-12.29-10.309-19.5-13.742V89.992a50.31 50.31 0 0 0 12.422-13.547l110.062 39.344-75.62 170.149c-.009.015-.012.035-.02.05-.16.364-.297.735-.414 1.114a10.43 10.43 0 0 0-.262 1.105c-.02.113-.035.227-.05.344-.04.258-.067.52-.083.785a6.88 6.88 0 0 0-.023.406c0 .086-.012.172-.012.258 0 49.625 40.375 90 90 90 24.031 0 46.629-9.36 63.645-26.36C502.64 336.634 512 314.028 512 290c0-.086-.012-.172-.012-.258a7.079 7.079 0 0 0-.023-.406zM256 352c-3.367 0-6.703.25-10 .723V98.984c3.281.668 6.629 1.016 10 1.016s6.719-.348 10-1.016v253.739a70.41 70.41 0 0 0-10-.723zm0-332c16.543 0 30 13.457 30 30 0 3.629-.64 7.172-1.902 10.54-2.43 6.48-7.086 11.968-13.094 15.448C266.454 78.613 261.27 80 256 80s-10.453-1.387-14.988-4.004c-6.024-3.488-10.68-8.976-13.11-15.457v-.004A29.883 29.883 0 0 1 226 50c0-16.543 13.457-30 30-30zM139.5 339.496C126.27 352.72 108.691 360 90 360c-35.203 0-64.406-26.125-69.273-60h138.558c-2.117 14.898-8.953 28.66-19.785 39.496zM100 280v-30c0-5.523-4.477-10-10-10s-10 4.477-10 10v30H25.387L90 134.621 154.613 280zm285.29 212H126.71c4.868-33.879 34.087-60 69.29-60h120c35.203 0 64.422 26.121 69.29 60zm-80.286-80H207c1.926-9.54 6.605-18.313 13.64-25.36 5.255-5.25 11.72-9.331 18.688-11.8A49.907 49.907 0 0 1 256 372a49.89 49.89 0 0 1 16.664 2.836 50.366 50.366 0 0 1 18.691 11.805c7.04 7.043 11.72 15.82 13.649 25.359zM422 134.621L486.613 280H432v-30c0-5.523-4.477-10-10-10s-10 4.477-10 10v30h-54.613zm49.5 204.875C458.27 352.72 440.691 360 422 360c-35.203 0-64.406-26.125-69.273-60h138.558c-2.117 14.898-8.953 28.66-19.785 39.496zm0 0"/></symbol><symbol viewBox="0 0 783 925" id="logo" xmlns="http://www.w3.org/2000/svg"><path d="M783 86.376C702.4-39.994 23.06-17.019.034 86.376.034 212.748-11.48 787.157 391.515 925c299.369-103.378 426.058-562.89 379.968-585.882-92.116-45.953-345.423-57.457-368.452-57.457-18.422 0-7.676 114.898 0 172.339 38.381-3.83 98.275-.253 132.969 15 18.313 8.051-86.914 180.283-155.997 214.748-126.658-103.394-179.624-363.027-161.201-436.551 18.422-73.525 383.806-22.961 564.195 22.992L783 86.376z"/><defs><linearGradient id="na" x1="782.997" y1="419.535" x2="-34.509" y2="419.535" gradientUnits="userSpaceOnUse"><stop stop-color="#780F0F"/><stop offset="0" stop-color="#A80000"/><stop offset="1" stop-color="#E42626"/></linearGradient></defs></symbol><symbol viewBox="-35 1 511 511.999" id="manager" xmlns="http://www.w3.org/2000/svg"><path d="M271.05 180c5.52 0 10-4.48 10-10s-4.48-10-10-10c-5.53 0-10 4.48-10 10s4.47 10 10 10zm-100 0c5.52 0 10-4.48 10-10s-4.48-10-10-10c-5.53 0-10 4.48-10 10s4.47 10 10 10zm23.266 68.734c8.395 3.957 17.391 5.965 26.73 5.965 9.138 0 17.958-1.926 26.22-5.722 5.02-2.309 7.214-8.247 4.91-13.266-2.309-5.016-8.246-7.215-13.266-4.906a42.502 42.502 0 0 1-17.863 3.894c-6.371 0-12.496-1.363-18.203-4.054-4.996-2.356-10.957-.215-13.309 4.78a10 10 0 0 0 4.781 13.31zm0 0"/><path d="M441.59 405.77c0-54.989-62.625-98.114-116.305-100.157l-27.387-24.605C331.254 256.672 351.5 217.562 351.5 176v-66c0-60.652-49.504-110-110.352-110h-40C140.383 0 91.5 49.172 91.5 110v66c0 41.492 19.977 80.527 52.898 104.82l-27.593 24.793C63.242 307.653.5 350.668.5 405.77V502c0 5.523 4.477 10 10 10h421.09c5.523 0 10-4.477 10-10zM198.895 446h44.246l10.484 46h-65.52zM244 426h-45.738l-7.672-23.902 30.46-15.23 31.114 15.562zm-22.953-69.18l-34.75-55.59a130.176 130.176 0 0 0 34.851 4.766c11.727 0 23.368-1.598 34.594-4.684zm14.312 14.844l48.012-76.824 25.895 23.265-32.95 74.043zM201.15 20h40c49.82 0 90.351 40.371 90.351 90v8.266l-18.777-27.04a10 10 0 0 0-15.364-1.288C277.031 110.727 253.496 120 221.051 120c-32.442 0-55.98-9.273-76.324-30.063a9.994 9.994 0 0 0-8.024-2.968 9.989 9.989 0 0 0-7.383 4.324l-17.82 26.113V110c0-49.629 40.215-90 89.648-90zM111.5 176v-23.113l27.773-40.7C161.523 131.113 187.816 140 221.051 140c33.27 0 59.582-8.906 81.836-27.871l28.613 41.203V176c0 59.887-48.95 110-110.352 110-61.203 0-109.648-49.957-109.648-110zm47.219 118.844l48.02 76.82-40.966 20.484-32.949-74.043zM20.5 405.77c0-41.196 50.078-76.766 93.84-80l37.414 84.066a10.002 10.002 0 0 0 13.609 4.878l7.125-3.566 8.114 25.266L167.562 492H20.5zM421.59 492H274.137l-12.633-55.434 8.7-25.117 6.523 3.266a10.003 10.003 0 0 0 13.609-4.88l37.414-84.065c43.762 3.238 93.84 38.804 93.84 80zm0 0"/><path d="M351.05 446h-40c-5.523 0-10 4.477-10 10s4.477 10 10 10h40c5.524 0 10-4.477 10-10s-4.476-10-10-10zm39.45 0c5.52 0 10 4.48 10 10s-4.48 10-10 10-10-4.48-10-10 4.48-10 10-10zm0 0"/></symbol><symbol viewBox="0 0 23.548 16.404" id="manager_law" xmlns="http://www.w3.org/2000/svg"><g stroke-width=".433" color="#000" font-weight="400" font-family="sans-serif"><path d="M33.478 1.625c-1.117-.035-2.245.482-2.188 1.695l.076 1.624c.034.708.288 1.22.66 1.542.372.324.852.456 1.323.448a2.468 2.468 0 0 0 1.305-.4c.369-.246.645-.599.691-1.022l.247-2.278c.107-.99-.998-1.575-2.114-1.61zm-.013.324c.949.045 1.889.523 1.81 1.251l-.245 2.277c-.033.306-.24.585-.552.793a2.17 2.17 0 0 1-1.135.345c-.409.008-.808-.106-1.11-.368-.301-.262-.518-.677-.548-1.319l-.078-1.623c-.048-1.012.909-1.401 1.858-1.356zm-1.414 5.458a.437.437 0 0 0-.32.008c-.564.233-1.622.293-2.196 1.175a.91.91 0 0 0-.132.256c-.026.091-.033.184-.048.36-.03.349-.087 1.04-.33 2.626l.315.05c.243-1.594.303-2.301.332-2.65.015-.176.024-.257.036-.3a.628.628 0 0 1 .093-.168c.48-.737 1.391-.784 2.051-1.056.042-.018.058-.015.083-.005.026.01.064.037.106.09.085.107.178.306.267.538.177.463.338 1.054.63 1.425.01.013.025.03.055.045a.345.345 0 0 0 .056.018l.063-.005s.037-.014.05-.023a.178.178 0 0 0 .059-.066c.022-.044.022-.066.027-.097.01-.062.017-.14.023-.238.012-.195.02-.46.026-.728.006-.268.01-.54.017-.74.003-.075.007-.127.01-.177h.198v-.318h-.335l.054.01-.093-.006-.067.036s-.024.023-.03.033c-.007.01-.01.018-.013.024-.013.026-.014.038-.016.052a.729.729 0 0 0-.012.084 7.013 7.013 0 0 0-.013.251c-.007.205-.012.477-.018.744l-.013.394c-.121-.279-.249-.532-.363-.831-.092-.241-.185-.46-.314-.622a.577.577 0 0 0-.238-.19z" overflow="visible"/><path d="M35.293 7.41a.458.458 0 0 0-.32.014.617.617 0 0 0-.234.193c-.129.163-.222.38-.313.618-.112.294-.237.543-.357.817-.004-.133-.009-.25-.012-.397-.007-.267-.01-.54-.018-.744a5.089 5.089 0 0 0-.014-.25c-.003-.033-.005-.058-.01-.085-.003-.014-.004-.026-.016-.052a.198.198 0 0 0-.043-.057l-.067-.036-.093.006.053-.01h-.334v.318h.198c.003.05.006.102.008.178.007.2.013.471.019.74.006.267.012.532.024.727.006.098.013.176.023.238.005.03.006.053.029.098a.163.163 0 0 0 .059.065.356.356 0 0 0 .048.023l.065.005s.04-.01.054-.017a.162.162 0 0 0 .056-.046c.29-.37.449-.95.624-1.406.087-.229.18-.427.266-.536a.323.323 0 0 1 .113-.1c.03-.012.051-.016.095-.002.375.12.856.237 1.257.408.401.171.699.388.771.674l.307-.077c-.112-.44-.517-.703-.953-.889-.437-.186-.93-.303-1.285-.417zm5.49-5.72c-1.352-.043-2.717.577-2.647 2.04-.002.016-.026.351-.03.787-.005.446.007.976.094 1.349.384 1.645 1.48 2.31 2.533 2.272 1.052-.04 2.062-.743 2.326-1.756.242-.93.289-2.742.29-2.76.123-1.182-1.215-1.888-2.566-1.931zm-.013.326c1.184.054 2.36.653 2.263 1.574v.006l-.001.005s-.061 1.86-.28 2.7c-.222.854-1.116 1.486-2.032 1.52-.917.034-1.852-.49-2.21-2.027-.073-.311-.091-.836-.086-1.273.004-.436.028-.788.028-.788l.002-.01-.002-.009c-.06-1.26 1.134-1.752 2.318-1.698zm-.105 6.824c-1.623.007-3.237.266-4.374.784-.33.15-.552.512-.735.95-.184.438-.323.966-.429 1.483a17.451 17.451 0 0 0-.275 1.898c-.01.123-.017.192-.017.238h.318c0-.001.004-.09.014-.21s.028-.284.05-.475c.046-.383.117-.88.221-1.386.104-.506.241-1.02.412-1.426.17-.407.38-.695.573-.783 1.069-.487 2.654-.748 4.244-.755 1.59-.007 3.189.238 4.284.73.256.114.49.42.678.837.187.416.329.934.431 1.44a14.492 14.492 0 0 1 .244 1.833l.01.19h.318a14.588 14.588 0 0 0-.052-.68 14.83 14.83 0 0 0-.209-1.406c-.105-.52-.25-1.056-.453-1.508-.203-.451-.465-.828-.838-.996-1.163-.522-2.792-.766-4.415-.758z" overflow="visible"/><path d="M44.612.283a.159.159 0 0 0-.141.158v6.093a.159.159 0 0 0 .159.159h1.956a.16.16 0 1 0 0-.318h-1.799V.6h7.337v5.723h-4.302a.159.159 0 0 0-.122.057l-1.854 2.196a.159.159 0 1 0 .243.205l1.806-2.14h4.388a.159.159 0 0 0 .16-.159V.441a.159.159 0 0 0-.16-.158H44.63a.159.159 0 0 0-.018 0z" overflow="visible" opacity=".92"/><path d="M46.798 2.995c-.108 0-.2.092-.2.2v.329c0 .108.092.2.2.2h.553c.108 0 .2-.092.2-.2v-.33a.203.203 0 0 0-.2-.199zm.118.317h.318v.094h-.318zm1.275-.317c-.107 0-.2.092-.2.2v.329c0 .108.093.2.2.2h.554a.203.203 0 0 0 .199-.2v-.33a.202.202 0 0 0-.2-.199zm.118.317h.317v.094h-.317zm1.283-.317c-.108 0-.2.092-.2.2v.329c0 .108.092.2.2.2h.554c.108 0 .2-.092.2-.2v-.33a.202.202 0 0 0-.2-.199zm.119.317h.316v.094h-.316z" overflow="visible" opacity=".92"/></g><g color="#000" font-weight="400" font-family="sans-serif"><path d="M9.6 3.43c-.323.076-.614.31-1.08.301-.288-.006-.658-.158-1.04-.273-.124-.038-.231.02-.3.08a.5.5 0 0 0-.15.213c-.085.242-.038.538-.019.816.008.105.009.193.008.28-.007-.037-.016-.061-.021-.118a.535.535 0 0 0-.122-.332c-.092-.101-.198-.125-.289-.15-.09-.025-.168-.037-.168-.037l-.046.314s.059.01.128.03c.07.018.146.061.141.056.017.019.03.065.04.15.008.085.008.201.075.32.019.033.055.11.104.178.024.035.049.072.11.104a.2.2 0 0 0 .124.021.21.21 0 0 0 .12-.064c.095-.104.114-.23.122-.361.01-.131 0-.272-.01-.414-.02-.285-.033-.583.005-.688a.241.241 0 0 1 .054-.078c.023-.02.024-.01.002-.016.357.108.74.28 1.125.287.575.012.972-.266 1.158-.31.013-.003.055.004.1.035a.275.275 0 0 1 .092.113c.045.14.028.363.014.588-.015.225-.038.472.136.654a.26.26 0 0 0 .215.075.271.271 0 0 0 .149-.086c.066-.066.108-.139.128-.166.071-.096.081-.196.09-.268a.464.464 0 0 1 .03-.137.898.898 0 0 1 .115-.119c.05-.043.094-.074.094-.074l-.188-.256s-.053.038-.113.09a.807.807 0 0 0-.18.195c-.06.099-.065.192-.074.26a.331.331 0 0 1-.03.121l-.02.03c-.022-.075-.046-.145-.036-.3.014-.214.05-.466-.027-.704a.541.541 0 0 0-.211-.276.44.44 0 0 0-.356-.084zM7.312 6.65a.159.159 0 0 0-.148.097s-.053.11-.127.242c-.075.131-.18.283-.24.334-.358.301-.91.398-1.47.517-.551.118-1.117.274-1.452.758-.165.154-.243.392-.319.703a8.99 8.99 0 0 0-.18 1.098c-.042.39-.067.784-.078 1.113-.01.33-.01.587.012.74a.159.159 0 0 0 .078.118c.905.522 1.944 1.218 2.645 1.623a.45.45 0 0 0 .457-.006.901.901 0 0 0 .283-.338c.148-.268.255-.603.342-.793.028-.061.083-.158.119-.268a.46.46 0 0 0 .027-.185.305.305 0 0 0-.11-.205 5.527 5.527 0 0 0-.886-.59c-.246-.134-.49-.259-.91-.55.027.018.021.026.016.003a.555.555 0 0 1-.012-.12c0-.106.015-.25.033-.394.019-.143.04-.285.05-.398a.833.833 0 0 0 .005-.154.224.224 0 0 0-.022-.09.202.202 0 0 0-.154-.104.159.159 0 0 0-.14.246.75.75 0 0 1-.005.075c-.008.096-.03.237-.048.384-.02.148-.036.3-.035.436 0 .068.002.131.017.193.015.062.04.132.113.184.433.3.7.437.942.568.238.13.459.26.828.551a.147.147 0 0 1-.01.05c-.02.065-.07.154-.107.237-.103.225-.207.546-.33.77a.684.684 0 0 1-.178.224c-.047.03-.057.038-.125-.002-.662-.382-1.67-1.052-2.568-1.576a5.19 5.19 0 0 1-.01-.617c.01-.321.037-.709.078-1.09.041-.381.1-.758.172-1.057.072-.298.181-.521.228-.562a.159.159 0 0 0 .028-.031c.254-.38.725-.516 1.273-.633.548-.117 1.158-.206 1.607-.586.131-.11.231-.276.313-.42.082-.144.137-.266.137-.266a.159.159 0 0 0-.139-.228zm2.471.089a.159.159 0 0 0-.117.248s.087.133.205.28c.117.146.244.31.43.382.654.255 1.84.701 1.84.701a.159.159 0 1 0 .11-.297s-1.186-.446-1.835-.699c-.038-.015-.191-.152-.297-.285-.107-.133-.188-.256-.188-.256a.159.159 0 0 0-.148-.074zm-.762 1.008l-.937.004a.242.242 0 0 0-.153.058.261.261 0 0 0-.07.11.546.546 0 0 0-.027.205c.002.133.022.254.05.337.036.105.103.171.135.207.032.037.021.024.022.018l-.213 3.266a.159.159 0 1 0 .316.021l.213-3.267a.348.348 0 0 0-.1-.248c-.04-.045-.06-.067-.072-.1a1.195 1.195 0 0 1-.035-.238c0-.025.004-.034.006-.051l.812-.004c.004.013.006.017.008.039a.973.973 0 0 1-.02.258c.007-.027-.002-.005-.046.033a.468.468 0 0 0-.078.082.267.267 0 0 0-.051.166l.166 3.32a.159.159 0 1 0 .316-.015L9.1 8.655c.005-.005.008-.01.02-.02.037-.032.118-.08.146-.203.023-.098.038-.228.028-.355a.47.47 0 0 0-.051-.192c-.035-.065-.124-.139-.221-.138z" overflow="visible"/><path d="M10.814 5.768a.159.159 0 0 0-.13.072l-.391.584H9.029a.159.159 0 1 0 0 .317h1.347a.159.159 0 0 0 .133-.07l.438-.653a.159.159 0 0 0-.133-.25z" overflow="visible"/><path d="M8.195 6.104c-.041 0-.075-.001-.121.008a.244.244 0 0 0-.149.101c-.066.112-.039.17-.039.28 0 .148-.017.233.06.34.04.053.11.082.155.09.045.006.077.003.11.003h.736c.05 0 .123-.02.168-.07a.245.245 0 0 0 .06-.143c.011-.082.004-.157.004-.263 0-.018.01-.079-.013-.158a.253.253 0 0 0-.082-.127c-.003-.002-.006 0-.008-.002l-.002-.053h-.157l-.72-.006zm.006.318l.562.004h.098v.184h-.656c.005-.002 0-.01 0-.117 0-.069-.004-.056-.004-.07z" overflow="visible"/><path d="M8.337 1.319a2.807 2.807 0 0 0-1.353.47c-.382.267-.667.644-.744 1.106a.159.159 0 0 0-.004.025v1.448l-.002.013-.008.084c-.006.07-.013.164-.018.266a3.58 3.58 0 0 0-.002.313c.005.1.011.19.045.277.306.786.793 1.564 1.436 1.976.322.207.687.318 1.076.276.39-.042.794-.237 1.197-.61.08-.072.085-.164.088-.212.004-.05.011-.07.004-.057.011-.021.08-.067.154-.176.286-.417.67-.865.754-1.435.028-.185.018-.365.028-.53a.554.554 0 0 0-.053-.252c-.026-.064-.049-.115-.055-.148-.073-.415.07-.928-.107-1.436-.375-1.075-1.448-1.484-2.436-1.398zm.028.316c.884-.076 1.788.266 2.11 1.188.133.383.002.873.093 1.387.016.09.05.158.072.212a.29.29 0 0 1 .03.112c-.012.189-.003.364-.024.504-.067.451-.403.865-.701 1.3-.02.03-.107.08-.174.207-.043.083-.037.148-.039.182-.002.034-.007.02.014.002a.159.159 0 0 0 0 .002c-.367.34-.707.494-1.016.527-.31.034-.599-.052-.873-.228-.549-.352-1.02-1.08-1.309-1.824a.817.817 0 0 1-.023-.176 3.292 3.292 0 0 1 .002-.285c.004-.096.01-.186.016-.252l.007-.08.002-.022.002-.006a.159.159 0 0 0 0-.017V2.944c.061-.363.284-.666.612-.895a2.507 2.507 0 0 1 1.199-.414zm-.864 10.848c-.129.002-.245.005-.33.008a4.715 4.715 0 0 1-.097.002h-.018s.003-.001.016.002l.012.004.023.01.039.027.025.031.022.053-.313.058.02.053.027.033.04.03a4.879 4.879 0 0 0 .038.011c.016.004.023.004.03.004l.039.002c.027 0 .062 0 .105-.002.086-.002.201-.006.326-.008.25-.003.55.007.678.041.151.04.51.296.69.551a.24.24 0 0 1 .025.172 2.599 2.599 0 0 1-.219.441c-.087.137-.191.23-.234.243a.94.94 0 0 1-.338-.014c-.148-.026-.313-.067-.469-.092-.173-.028-.452-.146-.674-.258-.22-.111-.388-.214-.388-.214l-.166.271s.179.109.412.227c.233.118.516.247.765.287.135.021.3.062.465.092.165.029.328.053.487.003.185-.057.303-.21.408-.373a2.85 2.85 0 0 0 .246-.5.497.497 0 0 0-.06-.468c-.227-.323-.57-.596-.868-.674-.21-.056-.505-.056-.764-.053zm5.76-10.74a.159.159 0 0 0-.158.16V4.21l-1.271.65a.159.159 0 0 0 .078.3l1.174-.036v.66a.159.159 0 0 0 .158.158h5.54a.159.159 0 0 0 .16-.158V1.903a.159.159 0 0 0-.16-.16zm.16.318h5.204v3.565H13.4v-.668a.159.159 0 0 0-.164-.159l-.629.02.727-.371a.159.159 0 0 0 .087-.14z" overflow="visible"/><path d="M14.126 2.913a.16.16 0 1 0 0 .318h3.79a.16.16 0 1 0 0-.318zm-.016.779a.159.159 0 0 0 .017.316h3.789a.159.159 0 1 0 0-.316h-3.79a.159.159 0 0 0-.015 0zm0 .778a.16.16 0 0 0 .017.318h1.787a.16.16 0 1 0 0-.319h-1.787a.159.159 0 0 0-.016 0zm-.773 3.109a.159.159 0 0 0-.136.117l-1.069 3.988a.159.159 0 1 0 .307.082l1.037-3.87h6.348a.159.159 0 1 0 0-.317h-6.47a.159.159 0 0 0-.017 0z" overflow="visible"/><path d="M20.697 6.967l-7.73.026a.159.159 0 0 0-.155.117l-1.379 5.148a.159.159 0 0 0 .154.2h3.522l.289 1.078h-1.037a.159.159 0 0 0-.111.271l.572.572a.159.159 0 0 0 .113.047h3.918a.159.159 0 0 0 .111-.271l-.716-.715a.159.159 0 0 0-.112-.047h-1.01l-.269-1.002h2.473a.159.159 0 0 0 .152-.117l1.37-5.107a.159.159 0 0 0-.155-.2zm-.205.317l-1.285 4.79h-2.555a.159.159 0 0 0-.154.2l.353 1.318a.159.159 0 0 0 .154.118h1.065l.4.4H15l-.256-.256h.86a.159.159 0 0 0 .153-.201l-.375-1.395a.159.159 0 0 0-.152-.117h-3.437l1.294-4.83z" overflow="visible"/><path d="M9.298 11.874a.159.159 0 0 0-.154.162l.004.318a.159.159 0 0 0 .05.113l1.01.955a.159.159 0 0 0 .11.045h4.738a.16.16 0 1 0 0-.318H10.38l-.916-.865-.002-.25a.159.159 0 0 0-.164-.16z" overflow="visible"/><path d="M14.158 13.15a.223.223 0 0 0-.219.222v.037c0 .119.1.22.219.22h.931c.12 0 .221-.101.221-.22v-.037a.225.225 0 0 0-.22-.221z" overflow="visible"/><path d="M1.199 11.83l4.285 3.266h16.865l-4.303-2.515v-.282a.159.159 0 1 0-.316 0v.463l3.445 2.016H5.591l-3.45-2.629H3.4a.16.16 0 1 0 0-.318z" overflow="visible"/><path d="M6.554 11.803v.319h5.114v-.319z" overflow="visible"/></g><g stroke-width="3.752" color="#000" font-weight="400" font-family="sans-serif"><path d="M-25.51 3.793a.934.934 0 0 0-.356 0c-.115.025-.24.086-.292.217-.166.414-.272 1.144-.272 1.876 0 .731.088 1.453.447 1.842.083.09.19.1.285.097a.992.992 0 0 0 .282-.057 1.36 1.36 0 0 0 .264-.123c.08-.05.15-.1.2-.182.086-.14.07-.285.05-.444a1.836 1.836 0 0 0-.127-.47l-.028-.063-.066-.023s-.096-.034-.195-.088c-.099-.053-.176-.143-.175-.137a2.55 2.55 0 0 1-.045-.844c.001-.005-.001-.004.013-.017a.484.484 0 0 1 .087-.056c.083-.044.212-.09.298-.228.18-.289.236-.614.19-.897-.023-.137-.12-.224-.222-.284a1 1 0 0 0-.338-.119zm-.289.31a.667.667 0 0 1 .235.003.725.725 0 0 1 .23.079c.057.033.07.064.07.062.033.204-.007.456-.146.678a.69.69 0 0 1-.178.116.697.697 0 0 0-.152.103.356.356 0 0 0-.112.208 2.73 2.73 0 0 0 .051.963c.049.194.207.272.332.34.084.045.118.055.162.072.039.102.075.223.09.333.017.128-.008.242-.005.237a.452.452 0 0 1-.096.077 1.047 1.047 0 0 1-.2.093.731.731 0 0 1-.192.04c-.048.003-.057-.014-.04.005-.228-.246-.362-.927-.362-1.626 0-.7.116-1.427.249-1.757-.002.004.006-.013.064-.025z" overflow="visible"/><path d="M-27.191 5.278a.738.738 0 0 0-.491.218 1.23 1.23 0 0 0-.294.424c-.403.967-.589 2.625-.636 3.684-.006.13.056.239.135.337.08.098.186.191.312.287.25.19.581.39.929.594.676.397 1.413.83 1.681 1.144.006.097.074 1.28.014 1.949a.159.159 0 1 0 .316.028c.067-.754-.016-2.055-.016-2.055a.159.159 0 0 0-.033-.088c-.34-.435-1.11-.846-1.801-1.252-.346-.203-.67-.4-.898-.573a1.583 1.583 0 0 1-.257-.234c-.054-.067-.065-.111-.065-.123.046-1.035.246-2.699.612-3.576a.947.947 0 0 1 .216-.313.436.436 0 0 1 .278-.133c.05 0 .122.028.184.08.062.054.11.128.125.186.074.277-.02.922-.124 1.512-.051.295-.102.58-.123.821-.022.241-.043.437.083.601.155.201.418.27.701.333.283.062.595.098.838.139.712.118 1.486.07 2.218.032.731-.039 1.421-.067 1.943.065.392.099.918.215 1.352.357.217.071.41.15.547.229.136.079.2.159.209.194.096.39.163 1.344.199 2.178.035.833.044 1.56.044 1.56a.159.159 0 1 0 .317-.004s-.009-.73-.044-1.57c-.036-.839-.093-1.772-.208-2.24-.044-.18-.188-.294-.357-.393a3.32 3.32 0 0 0-.608-.255c-.458-.15-.99-.267-1.373-.364-.594-.15-1.305-.113-2.038-.074-.733.039-1.488.081-2.149-.028-.255-.043-.561-.08-.822-.136-.26-.057-.468-.152-.517-.216a1.256 1.256 0 0 1-.02-.38c.02-.219.07-.5.121-.794.103-.59.232-1.22.118-1.649a.693.693 0 0 0-.226-.345.602.602 0 0 0-.392-.157z" overflow="visible"/><path d="M-20.195 11.715a.159.159 0 0 0-.157.161v2.013a.159.159 0 1 0 .318 0v-2.013a.159.159 0 0 0-.161-.161zm-2.556-8.223c-1.026-.03-2.064.446-2.01 1.562l.07 1.48c.031.65.263 1.121.606 1.419.342.297.783.418 1.216.41.432-.008.86-.14 1.199-.366.339-.226.594-.552.636-.944l.225-2.076c.099-.915-.916-1.453-1.942-1.485zm-.013.323c.858.042 1.71.475 1.639 1.127l-.225 2.077c-.03.274-.213.525-.496.713a1.97 1.97 0 0 1-1.029.314c-.37.006-.73-.096-1.002-.333-.272-.237-.469-.611-.497-1.194l-.07-1.48c-.044-.915.821-1.265 1.68-1.224zm3.25-3.638a.159.159 0 0 0-.159.159V4.94a.159.159 0 0 0 .16.16h1.582a.159.159 0 1 0 0-.318h-1.424V.495h5.743v4.234l-3.447.054a.159.159 0 0 0-.11.047c-.575.574-.9 1.08-1.45 1.63a.159.159 0 1 0 .225.225c.558-.559.886-1.053 1.41-1.586l3.533-.055a.159.159 0 0 0 .157-.159V.335a.159.159 0 0 0-.159-.158z" overflow="visible"/><path d="M-18.485 1.269a.159.159 0 1 0 0 .317h4.003a.159.159 0 1 0 0-.317zm0 .769a.159.159 0 1 0 0 .317h4.003a.159.159 0 1 0 0-.317zm0 .769a.159.159 0 1 0 0 .317h4.003a.159.159 0 1 0 0-.317zm0 .769a.159.159 0 1 0 0 .317h1.9a.159.159 0 1 0 0-.317z" overflow="visible"/></g></symbol><symbol viewBox="0 0 512 512" id="parents" xmlns="http://www.w3.org/2000/svg"><path d="M153.6 324.267a8.53 8.53 0 0 0 8.533-8.533v-62.106c5.077-2.961 8.533-8.405 8.533-14.694 0-9.412-7.654-17.067-17.067-17.067-9.412 0-17.067 7.654-17.067 17.067 0 6.289 3.456 11.733 8.533 14.694v62.106a8.534 8.534 0 0 0 8.535 8.533zM85.658 134.426c1.63 16.401 8.764 30.839 9.105 31.522 7.74 15.471 19.43 38.852 58.837 38.852 39.407 0 51.098-23.381 58.837-38.852.341-.683 7.475-15.121 9.105-31.522 5.274-2.901 8.858-8.525 8.858-14.959V102.4c0-6.306-3.43-11.819-8.533-14.771v-2.295c0-28.237-22.963-51.2-51.2-51.2h-34.133c-28.237 0-51.2 22.963-51.2 51.2v2.295C80.23 90.581 76.8 96.094 76.8 102.4v17.067c0 6.434 3.584 12.057 8.858 14.959zm8.209-32.026a8.53 8.53 0 0 0 8.533-8.533v-8.533c0-18.825 15.309-34.133 34.133-34.133h34.133c18.825 0 34.133 15.309 34.133 34.133v8.533a8.53 8.53 0 0 0 8.533 8.533v17.067a8.53 8.53 0 0 0-8.533 8.533c0 14.763-7.56 30.174-7.637 30.319-8.883 17.766-16.717 29.414-43.563 29.414-26.846 0-34.68-11.648-43.554-29.406-.085-.154-7.646-15.565-7.646-30.327a8.53 8.53 0 0 0-8.533-8.533V102.4z"/><path d="M170.667 119.467h8.533a8.53 8.53 0 0 0 8.533-8.533 8.53 8.53 0 0 0-8.533-8.533h-8.533a8.53 8.53 0 0 0-8.533 8.533 8.53 8.53 0 0 0 8.533 8.533zm-42.667 0h8.533a8.53 8.53 0 0 0 8.533-8.533 8.53 8.53 0 0 0-8.533-8.533H128a8.53 8.53 0 0 0-8.533 8.533 8.53 8.53 0 0 0 8.533 8.533zm-68.267 204.8A8.53 8.53 0 0 0 51.2 332.8v136.533c0 4.71 3.814 8.533 8.533 8.533s8.533-3.823 8.533-8.533V332.8a8.53 8.53 0 0 0-8.533-8.533zm393.097 0h-.034c-4.693 0-8.516 3.797-8.533 8.499l-.529 136.533c-.017 4.71 3.78 8.55 8.499 8.568h.034a8.529 8.529 0 0 0 8.533-8.499l.529-136.533c.017-4.711-3.78-8.551-8.499-8.568zm-77.807-216.03c-1.152-3.49-4.412-5.837-8.09-5.837s-6.929 2.347-8.09 5.837c-6.417 19.243-25.301 19.755-26.044 19.763a8.53 8.53 0 0 0-8.533 8.533v34.133c0 28.501 19.473 68.267 51.2 68.267s51.2-39.765 51.2-68.267v-34.133a8.53 8.53 0 0 0-8.533-8.533c-.367 0-36.693-.538-43.11-19.763zm34.577 62.43c0 23.194-15.224 51.2-34.133 51.2s-34.133-28.006-34.133-51.2v-26.641c8.354-1.894 18.671-6.656 26.249-16.35 11.955 11.955 31.019 15.693 42.018 16.862v26.129z"/><path d="M491.076 264.542c-16.725-16.691-41.847-25.506-72.687-25.506-4.779.094-8.764 3.729-8.789 8.508-.009 1.741-.597 42.59-34.133 42.59s-34.125-40.841-34.133-42.581c-.009-4.702-3.823-8.508-8.533-8.508a8.525 8.525 0 0 0-8.533 8.533c0 19.081 9.216 53.837 42.667 58.931v43.358c0 4.71 3.814 8.533 8.533 8.533s8.533-3.823 8.533-8.533V306.5c28.8-4.395 39.646-30.746 42.095-50.185 22.63 1.271 40.815 8.218 52.924 20.309 10.266 10.249 15.915 24.132 15.915 39.108v136.533a8.53 8.53 0 0 0 8.533 8.533 8.53 8.53 0 0 0 8.533-8.533V315.733c-.001-19.541-7.433-37.717-20.925-51.191zm-243.609 59.725a8.53 8.53 0 0 0-8.533 8.533v136.533c0 4.71 3.814 8.533 8.533 8.533s8.533-3.823 8.533-8.533V332.8a8.53 8.53 0 0 0-8.533-8.533zm119.466-256H384c22.46 0 49.749 23.057 51.226 43.324l8.533 110.933c.341 4.471 4.079 7.876 8.499 7.876.213 0 .444-.008.666-.026 4.693-.358 8.209-4.463 7.851-9.165l-8.533-110.899C449.963 79.036 412.186 51.2 384 51.2h-17.067c-31.061 0-65.493 29.747-68.241 59.076l-8.533 110.933c-.358 4.702 3.157 8.806 7.851 9.165 4.787.307 8.806-3.157 9.165-7.851l8.525-110.797c1.902-20.308 29.192-43.459 51.233-43.459z"/><path d="M196.821 221.978c-4.224-.068-8.055 2.645-8.909 6.793L153.6 393.404 119.287 228.77c-.862-4.147-4.821-6.784-8.926-6.793-44.826 0-79.121 9.6-96.606 27.042C4.634 258.133 0 269.099 0 281.6v170.667c0 4.71 3.814 8.533 8.533 8.533s8.533-3.823 8.533-8.533V281.6c0-7.919 2.867-14.626 8.747-20.506 13.295-13.269 41.574-21.163 78.191-21.982l41.225 197.709c0 .017.009.034.009.051l.008.068c.06.265.239.469.316.725.247.802.512 1.596.981 2.287.273.418.683.708 1.024 1.067.427.427.785.913 1.289 1.254.563.375 1.22.555 1.86.785.393.145.717.41 1.143.495h.06c.538.111 1.126.009 1.69.009.563 0 1.152.102 1.698-.009h.034c.282-.06.495-.239.759-.324.794-.247 1.587-.512 2.27-.973.427-.29.725-.708 1.092-1.067.41-.401.879-.751 1.203-1.237.461-.674.708-1.459.956-2.244.085-.265.273-.486.333-.768l.008-.068c0-.017.009-.034.009-.051l41.225-197.709c36.625.819 64.896 8.721 78.191 21.982 5.88 5.879 8.747 12.587 8.747 20.506v170.667c0 4.71 3.814 8.533 8.533 8.533s8.533-3.823 8.533-8.533V281.6c0-12.501-4.634-23.467-13.756-32.58-17.485-17.451-51.78-27.042-96.623-27.042z"/></symbol><symbol viewBox="0 0 17.727 16.404" id="people" xmlns="http://www.w3.org/2000/svg"><g transform="translate(21.297 -21.411) scale(.73383)" stroke-width=".433"><path d="M32.225 38.45l.105 2.213c.176 3.679 4.774 2.748 4.99.76l.335-3.102c.254-2.34-5.575-2.903-5.43.13zm-3.088 11.644c.662-4.332.323-3.813.662-4.332.718-1.104 2.06-1.177 2.894-1.522.799-.33 1.036 1.969 1.732 2.856.126.161.09-2.851.17-2.823h.455"/><path d="M40.305 45.868c-.25-.99-1.912-1.308-2.906-1.628-.824-.264-1.037 1.969-1.733 2.856-.126.161-.09-2.851-.17-2.823h-.455m6.513-5.265s-.135 1.94.083 2.872c1.01 4.337 5.539 3.24 6.2.698.315-1.21.39-3.728.39-3.728.3-2.866-6.85-3.554-6.673.158zm-4.497 14.269c0-.255.432-5.379 1.857-6.029 3.007-1.37 8.722-1.416 11.799-.035 1.715.77 1.986 5.899 1.986 6.057M52.01 45.763l2.526-2.993h6.08v-8.232h-10.43v8.302h2.667"/><rect ry=".055" y="38.233" x="53.086" height=".561" width=".865"/><rect ry=".055" y="38.233" x="54.985" height=".561" width=".865"/><rect ry=".055" y="38.233" x="56.895" height=".561" width=".865"/></g><g stroke-width=".289"><path d="M26.123 7.306s.277.04.364.136c.116.128.051.349.136.499.048.084.136.281.201.21.205-.222-.039-1.061.084-1.409.036-.1.152-.224.253-.194.37.112.747.274 1.083.281.52.01.864-.246 1.119-.306.148-.035.332.108.38.253.121.378-.106.954.112 1.182.094.098.19-.082.25-.161.08-.11.041-.277.111-.394.06-.099.251-.239.251-.239M27.035 9.751s-.217.47-.409.631c-.807.681-2.322.375-2.91 1.252-.444.386-.592 3.025-.521 3.536.912.527 1.953 1.224 2.645 1.623.436.252.668-.65.857-1.064.066-.145.209-.37.084-.469-.77-.612-.936-.54-1.789-1.133-.188-.131.11-1.224 0-1.228m4.534-3.061s.336.515.56.602c.651.254 1.838.7 1.838.7m-4.211 3.76l.213-3.266c.008-.11-.116-.148-.163-.286-.035-.102-.098-.5.049-.5l.938-.003c.143-.001.125.329.088.491-.022.096-.177.14-.172.239l.167 3.318"/><g stroke-width=".515"><path d="M28.755 9.521h1.35l.438-.653"/><path d="M28.646 9.207c.116 0 .101.119.101.18 0 .223.02.32-.073.32h-.736c-.139 0-.165.012-.165-.275 0-.221-.008-.23.15-.23l.723.005z"/></g><path d="M26.123 7.306V5.859c.275-1.65 3.532-2.148 4.228-.15.156.445.018.946.1 1.41.023.125.113.238.105.363-.01.177-.001.354-.025.517-.076.51-.436.942-.728 1.368-.047.07-.125.117-.164.19-.036.07 0 .174-.059.228-1.54 1.424-2.857-.053-3.452-1.582-.081-.209-.005-.896-.005-.897zM26.763 15.588c.003.017.85-.05 1.189.04.224.059.575.323.778.612a.36.36 0 0 1 .043.32c-.11.287-.326.707-.555.778-.215.067-.588-.054-.878-.1-.423-.068-1.12-.494-1.12-.494M31.631 7.94l1.358-.695V4.84h5.522v3.881h-5.542v-.825zm2.223-1.93h3.79m-3.79.779h3.79m-3.79.778h1.787m-3.628 7.096l1.068-3.988h6.47"/><path d="M40.425 10.064l-1.369 5.107H36.38l.353 1.319h1.131l.717.716h-3.918l-.574-.573h1.243l-.374-1.395h-3.643l1.38-5.148z"/><g transform="translate(-63.106 -88.81) scale(.61607)" stroke-width=".515" stroke-linecap="round" stroke-linejoin="round"><path d="M158.891 170.526h-7.69l-1.64-1.551-.006-.515"/><rect ry=".099" width="1.711" height=".26" x="157.336" y="170.53"/></g><path d="M23.127 14.929h-1.73l3.868 2.947H41.49l-3.875-2.266v-.371M31.395 14.9h-5.114"/></g><g stroke-width="3.752" color="#000" font-weight="400" font-family="sans-serif"><path d="M4.307 4.863a.934.934 0 0 0-.356 0c-.115.025-.24.086-.292.217-.166.414-.272 1.144-.272 1.876 0 .731.088 1.453.447 1.842.083.09.19.1.284.097a.992.992 0 0 0 .283-.058c.094-.032.185-.074.264-.123a.55.55 0 0 0 .2-.18c.086-.14.07-.286.05-.445a1.836 1.836 0 0 0-.127-.47l-.028-.063-.066-.024S4.598 7.5 4.5 7.445c-.099-.053-.177-.143-.175-.137a2.55 2.55 0 0 1-.045-.844c.001-.005-.001-.004.013-.017a.484.484 0 0 1 .087-.056c.083-.045.212-.09.298-.228.18-.289.236-.614.19-.897-.023-.137-.12-.224-.222-.284a1 1 0 0 0-.338-.12zm-.289.31a.667.667 0 0 1 .235.003.725.725 0 0 1 .23.079c.057.033.07.064.07.062.033.204-.007.456-.146.678a.69.69 0 0 1-.178.116.697.697 0 0 0-.153.103.356.356 0 0 0-.111.208 2.73 2.73 0 0 0 .051.963c.049.194.207.272.332.34.084.045.118.055.162.072.038.102.075.222.09.333.017.128-.008.242-.005.237a.452.452 0 0 1-.096.077 1.047 1.047 0 0 1-.2.093.731.731 0 0 1-.192.04c-.048.002-.058-.014-.04.005-.228-.246-.362-.927-.362-1.626 0-.7.116-1.427.248-1.757-.001.004.007-.013.065-.025z" overflow="visible"/><path d="M2.626 6.348a.738.738 0 0 0-.491.218 1.23 1.23 0 0 0-.294.424c-.403.967-.59 2.625-.636 3.684-.006.13.056.239.135.337.08.098.186.19.311.286.251.192.582.39.93.595.676.397 1.413.83 1.681 1.144.006.097.073 1.28.014 1.948a.159.159 0 1 0 .316.029c.067-.754-.016-2.055-.016-2.055a.159.159 0 0 0-.033-.088c-.34-.435-1.11-.846-1.801-1.252-.346-.203-.67-.4-.898-.573a1.583 1.583 0 0 1-.258-.235c-.053-.066-.064-.11-.064-.122.046-1.035.246-2.699.612-3.576a.947.947 0 0 1 .216-.313.436.436 0 0 1 .278-.133c.05 0 .122.028.184.08.062.053.11.128.125.186.074.277-.02.922-.124 1.512-.051.295-.102.58-.123.821-.022.241-.044.437.083.601.155.2.418.27.701.333.283.062.594.098.838.139.712.118 1.486.07 2.218.032.731-.04 1.421-.067 1.943.065.392.099.918.215 1.352.357.217.071.41.15.547.229.136.079.2.159.209.193.096.392.163 1.345.198 2.179.036.833.045 1.56.045 1.56a.159.159 0 1 0 .317-.004s-.009-.731-.044-1.57c-.036-.839-.093-1.772-.208-2.24-.044-.18-.188-.294-.357-.393a3.39 3.39 0 0 0-.608-.256c-.458-.15-.99-.266-1.373-.363-.594-.15-1.305-.113-2.038-.074-.733.038-1.488.081-2.149-.028-.255-.043-.561-.08-.822-.136-.26-.057-.468-.152-.517-.216a1.256 1.256 0 0 1-.02-.38c.02-.219.07-.5.121-.795.103-.59.232-1.218.118-1.648a.693.693 0 0 0-.226-.345.602.602 0 0 0-.392-.157z" overflow="visible"/><path d="M9.622 12.785a.159.159 0 0 0-.157.16v2.014a.159.159 0 1 0 .318 0v-2.013a.159.159 0 0 0-.161-.161zM7.066 4.562c-1.026-.031-2.064.446-2.01 1.562l.07 1.48c.031.65.263 1.121.606 1.419.342.297.783.418 1.216.41.432-.008.86-.14 1.199-.367.339-.225.593-.551.636-.943l.225-2.076c.099-.915-.916-1.454-1.942-1.485zm-.013.323c.858.042 1.71.475 1.639 1.127L8.467 8.09c-.03.274-.213.525-.496.713a1.97 1.97 0 0 1-1.029.314c-.37.006-.73-.096-1.002-.333-.272-.237-.469-.611-.497-1.194l-.07-1.48c-.044-.915.821-1.265 1.68-1.224zm3.25-3.638a.159.159 0 0 0-.159.159V6.01a.159.159 0 0 0 .159.159h1.583a.159.159 0 1 0 0-.318h-1.424V1.564h5.743V5.8l-3.447.054a.159.159 0 0 0-.11.047c-.575.574-.9 1.08-1.45 1.63a.159.159 0 1 0 .225.225c.558-.559.886-1.053 1.41-1.586l3.533-.055a.159.159 0 0 0 .157-.159v-4.55a.159.159 0 0 0-.16-.158z" overflow="visible"/><path d="M11.332 2.339a.159.159 0 1 0 0 .317h4.003a.159.159 0 1 0 0-.317zm0 .769a.159.159 0 1 0 0 .317h4.003a.159.159 0 1 0 0-.317zm0 .769a.159.159 0 1 0 0 .317h4.003a.159.159 0 1 0 0-.317zm0 .769a.159.159 0 1 0 0 .317h1.9a.159.159 0 1 0 0-.317z" overflow="visible"/></g></symbol><symbol viewBox="0 0 480.001 480.001" id="presentation" xmlns="http://www.w3.org/2000/svg"><path d="M123.584 102.504A47.611 47.611 0 0 0 89.232 88h-2.464a47.611 47.611 0 0 0-34.312 14.504 44.002 44.002 0 0 0-12.416 32.624l.936 21.536c1.418 24.644 22.039 43.772 46.72 43.336h.608c24.681.436 45.302-18.692 46.72-43.336l.976-21.536a44.002 44.002 0 0 0-12.416-32.624zM119.04 156c-1.084 16.063-14.642 28.414-30.736 28h-.608c-16.094.414-29.652-11.937-30.736-28l-.28-6.536a72.198 72.198 0 0 0 41.824-15.696 35.729 35.729 0 0 0 20.864 14.632l-.328 7.6zm-10.032-37.816a8 8 0 0 0-6.4-6.816 7.929 7.929 0 0 0-8.496 3.84c-.104.168-10.032 15.872-38.048 18.272A28.213 28.213 0 0 1 64 113.6a31.625 31.625 0 0 1 22.768-9.6h2.464A31.625 31.625 0 0 1 112 113.6a28.191 28.191 0 0 1 7.808 17.968 18.927 18.927 0 0 1-10.8-13.384zm326.576 176.32A47.611 47.611 0 0 0 401.232 280h-2.464a47.611 47.611 0 0 0-34.312 14.504 43.998 43.998 0 0 0-12.416 32.624l.936 21.536c1.418 24.644 22.039 43.772 46.72 43.336h.608c24.681.436 45.302-18.692 46.72-43.336l.976-21.536a44.002 44.002 0 0 0-12.416-32.624zM432 326.48l-.96 21.52c-1.084 16.063-14.642 28.414-30.736 28h-.608c-16.094.414-29.652-11.937-30.736-28l-.96-21.56a28.236 28.236 0 0 1 8-20.84 31.625 31.625 0 0 1 22.768-9.6h2.464A31.625 31.625 0 0 1 424 305.6a28.239 28.239 0 0 1 8 20.88z"/><path d="M247.134 116.344c-8.584-8.303-22.206-8.303-30.79 0l-89.312 89.312a8 8 0 0 1-5.664 2.344H40c-22.08.026-39.974 17.92-40 40v112c0 13.255 10.745 24 24 24 2.725 0 5.43-.463 8-1.368V392a8 8 0 0 0 8 8h96a8 8 0 0 0 8-8V262.288a8.004 8.004 0 0 1 2.144-5.456l101.512-109.176c8.503-8.79 8.269-22.809-.522-31.312zm-10.903 20.125l-.087.083L134.4 245.944a24.002 24.002 0 0 0-6.4 16.344V384H48V264a8 8 0 0 0-16 0v96a8 8 0 0 1-16 0V248c0-13.255 10.745-24 24-24h81.368a23.825 23.825 0 0 0 16.976-7.032l89.312-89.312a6.312 6.312 0 0 1 8.688 0 6.232 6.232 0 0 1-.113 8.813z"/><path d="M88 232a8 8 0 0 0-8 8v96a8 8 0 0 0 16 0v-96a8 8 0 0 0-8-8zm171.544 62.504A47.611 47.611 0 0 0 225.232 280h-2.464a47.611 47.611 0 0 0-34.312 14.504 43.998 43.998 0 0 0-12.416 32.624l.936 21.536c1.418 24.644 22.039 43.772 46.72 43.336h.608c24.681.436 45.302-18.692 46.72-43.336l.936-21.536a43.998 43.998 0 0 0-12.416-32.624zM256 326.48l-.96 21.52c-1.084 16.063-14.642 28.414-30.736 28h-.608c-16.094.414-29.652-11.937-30.736-28l-.96-21.56a28.236 28.236 0 0 1 8-20.84 31.625 31.625 0 0 1 22.768-9.6h2.464A31.625 31.625 0 0 1 248 305.6a28.239 28.239 0 0 1 8 20.88zm9.336 73.52h-82.672c-21.344.022-38.642 17.32-38.664 38.664V472a8 8 0 0 0 16 0v-33.336c.013-12.512 10.153-22.651 22.664-22.664h82.672c12.512.013 22.651 10.152 22.664 22.664V472a8 8 0 0 0 16 0v-33.336c-.022-21.344-17.32-38.642-38.664-38.664zm176 0h-82.672c-21.344.022-38.642 17.32-38.664 38.664V472a8 8 0 0 0 16 0v-33.336c.013-12.512 10.153-22.651 22.664-22.664h82.672c12.512.013 22.651 10.152 22.664 22.664V472a8 8 0 0 0 16 0v-33.336c-.022-21.344-17.32-38.642-38.664-38.664zM456.4 0H175.6c-13.137.128-23.693 10.863-23.6 24v120a8 8 0 0 0 16 0V48h296v192a7.816 7.816 0 0 1-7.6 8h-273a8 8 0 0 0 0 16h273c13.137-.128 23.693-10.863 23.6-24V24c.093-13.137-10.463-23.872-23.6-24zm7.6 32H168v-8a7.816 7.816 0 0 1 7.6-8h280.8a7.816 7.816 0 0 1 7.6 8v8z"/><path d="M440 102a8 8 0 0 0-8 8v114a8 8 0 0 0 16 0V110a8 8 0 0 0-8-8zm-32 50a8 8 0 0 0-8 8v64a8 8 0 0 0 16 0v-64a8 8 0 0 0-8-8zm-32-16a8 8 0 0 0-8 8v80a8 8 0 0 0 16 0v-80a8 8 0 0 0-8-8zm-32 48a8 8 0 0 0-8 8v32a8 8 0 0 0 16 0v-32a8 8 0 0 0-8-8z"/><path d="M444.44 65.344a8.001 8.001 0 0 0-11.096 2.216l-27.312 40.96L380.8 89.6a8 8 0 0 0-12 2.824l-31.152 62.312L307.2 177.6a8 8 0 0 0-1.6 11.2 8 8 0 0 0 11.2 1.6l32-24a8.066 8.066 0 0 0 2.4-2.824l27.704-55.424L403.2 126.4a8 8 0 0 0 11.456-1.96l32-48a8.001 8.001 0 0 0-2.216-11.096zM288 64h-96a8 8 0 0 0 0 16h96a8 8 0 0 0 0-16zm48 0h-16a8 8 0 0 0 0 16h16a8 8 0 0 0 0-16z"/></symbol><symbol viewBox="0 0 25.929 16.404" id="question_complete" xmlns="http://www.w3.org/2000/svg"><g stroke-width=".433" color="#000" font-weight="400" font-family="sans-serif"><path d="M5.709 2.589c-1.117-.035-2.245.482-2.188 1.696l.076 1.623c.034.709.288 1.22.66 1.543.372.323.852.455 1.323.447a2.468 2.468 0 0 0 1.305-.4c.369-.246.645-.598.691-1.022l.247-2.277c.107-.99-.998-1.575-2.114-1.61zm-.013.324c.949.045 1.889.523 1.81 1.251L7.26 6.442c-.033.305-.24.584-.552.792a2.17 2.17 0 0 1-1.135.346c-.409.007-.808-.106-1.11-.369-.301-.262-.518-.677-.548-1.318l-.078-1.624c-.048-1.012.909-1.401 1.858-1.356zM4.282 8.37a.437.437 0 0 0-.32.01c-.564.232-1.622.292-2.196 1.175a.91.91 0 0 0-.132.255c-.026.092-.033.185-.048.36-.03.35-.087 1.04-.33 2.627l.315.048c.243-1.592.303-2.3.332-2.65a2.16 2.16 0 0 1 .036-.3.628.628 0 0 1 .093-.167c.48-.737 1.391-.783 2.051-1.056.042-.018.058-.015.083-.005.026.01.064.037.106.09.085.107.178.306.267.538.177.464.338 1.054.63 1.425a.16.16 0 0 0 .055.046.345.345 0 0 0 .056.017l.063-.004s.037-.014.05-.023a.178.178 0 0 0 .059-.066c.022-.045.022-.067.027-.098.01-.061.017-.14.023-.238.012-.195.02-.46.026-.728.006-.268.01-.54.017-.74.003-.075.007-.127.01-.177h.198v-.318h-.335l.054.01-.093-.006-.067.036s-.024.024-.03.033c-.007.01-.01.018-.013.024-.013.026-.014.038-.016.052a.729.729 0 0 0-.012.084 7.013 7.013 0 0 0-.013.251c-.007.205-.012.477-.018.744l-.013.394c-.121-.279-.249-.532-.363-.831-.092-.241-.185-.46-.314-.622a.577.577 0 0 0-.238-.19z" overflow="visible"/><path d="M7.524 8.375a.458.458 0 0 0-.32.013.617.617 0 0 0-.234.193c-.129.164-.222.38-.313.618-.112.294-.237.543-.357.817-.004-.133-.009-.249-.012-.397-.007-.267-.01-.539-.018-.744a5.089 5.089 0 0 0-.014-.25c-.003-.032-.005-.058-.01-.085-.003-.014-.004-.026-.016-.052a.198.198 0 0 0-.043-.057l-.067-.036-.093.006.053-.01h-.334v.318h.198c.003.05.006.102.008.178.007.2.013.471.019.74.006.267.012.532.024.727.006.098.013.177.023.238.005.031.006.054.029.098a.163.163 0 0 0 .059.066.356.356 0 0 0 .048.023l.065.004s.04-.01.054-.017a.162.162 0 0 0 .056-.046c.29-.37.449-.949.624-1.406.087-.229.18-.426.266-.536a.323.323 0 0 1 .113-.1c.03-.012.051-.016.095-.002.375.12.856.238 1.257.409.401.17.699.387.771.673l.307-.077c-.112-.44-.517-.703-.953-.889-.437-.186-.93-.303-1.285-.417zm5.49-5.72c-1.352-.043-2.717.576-2.647 2.04-.002.016-.026.35-.03.786-.005.447.007.976.094 1.349.384 1.645 1.48 2.31 2.533 2.272 1.052-.04 2.062-.743 2.326-1.756.242-.929.289-2.742.29-2.759.123-1.183-1.215-1.889-2.566-1.932zM13 2.98c1.184.054 2.36.653 2.263 1.574v.006l-.001.005s-.061 1.86-.28 2.7c-.222.854-1.116 1.486-2.032 1.52-.917.034-1.852-.49-2.21-2.027-.073-.311-.091-.836-.086-1.272.004-.437.028-.789.028-.789l.002-.01-.002-.008C10.622 3.418 11.816 2.926 13 2.98zm-.104 6.824c-1.623.007-3.237.266-4.374.784-.33.15-.552.512-.735.95-.184.439-.323.966-.429 1.484a17.451 17.451 0 0 0-.275 1.897c-.01.124-.017.192-.017.238h.318s.004-.09.014-.21.028-.283.05-.475c.046-.383.117-.88.221-1.386.104-.505.241-1.02.412-1.426.17-.407.38-.695.573-.782 1.069-.488 2.654-.748 4.244-.756 1.59-.007 3.189.238 4.284.73.256.115.49.42.678.837.187.416.329.934.431 1.44a14.492 14.492 0 0 1 .244 1.833l.01.19h.318a14.588 14.588 0 0 0-.052-.68 14.83 14.83 0 0 0-.209-1.406c-.105-.52-.25-1.056-.453-1.508-.203-.451-.465-.828-.838-.996-1.163-.522-2.792-.765-4.415-.758z" overflow="visible"/><path d="M16.843 1.248a.159.159 0 0 0-.141.157v6.093a.159.159 0 0 0 .159.159h1.956a.16.16 0 1 0 0-.318h-1.799V1.564h7.337v5.723h-4.302a.159.159 0 0 0-.122.058L18.077 9.54a.159.159 0 1 0 .243.205l1.806-2.14h4.388a.159.159 0 0 0 .16-.159v-6.04a.159.159 0 0 0-.16-.158h-7.653a.159.159 0 0 0-.018 0z" overflow="visible" opacity=".92"/><path d="M19.03 3.96a.202.202 0 0 0-.201.198v.33c0 .108.092.2.2.2h.553c.108 0 .2-.092.2-.2v-.33a.203.203 0 0 0-.2-.199zm.117.316h.318v.095h-.318zm1.275-.316c-.107 0-.2.09-.2.198v.33c0 .108.093.2.2.2h.554a.203.203 0 0 0 .199-.2v-.33a.203.203 0 0 0-.2-.199zm.118.316h.317v.095h-.317zm1.283-.316c-.108 0-.2.09-.2.198v.33c0 .108.092.2.2.2h.554c.108 0 .2-.092.2-.2v-.33a.203.203 0 0 0-.2-.199zm.119.316h.316v.095h-.316z" overflow="visible" opacity=".92"/></g><g stroke-width=".289"><path d="M-22.572 6.64s.276.04.364.136c.116.128.05.349.136.499.048.084.136.281.201.21.205-.222-.039-1.061.084-1.409.036-.1.152-.224.253-.194.37.112.747.274 1.082.281.521.01.865-.246 1.12-.306.147-.035.332.108.379.253.122.378-.105.954.113 1.182.094.098.19-.082.25-.161.08-.11.04-.277.111-.394.06-.099.251-.239.251-.239M-21.66 9.085s-.217.47-.409.63c-.807.682-2.322.376-2.91 1.253-.444.386-.592 3.025-.521 3.536.912.527 1.953 1.224 2.645 1.623.436.252.668-.65.857-1.064.066-.145.209-.37.084-.469-.77-.612-.936-.54-1.789-1.133-.189-.131.11-1.224 0-1.229m4.534-3.06s.336.515.56.602c.651.254 1.838.7 1.838.7m-4.211 3.761l.213-3.267c.007-.11-.116-.148-.164-.286-.035-.102-.097-.5.05-.5l.938-.003c.143-.001.125.329.088.491-.022.096-.177.14-.172.239l.167 3.318"/><g stroke-width=".515"><path d="M-19.94 8.855h1.35l.438-.653"/><path d="M-20.05 8.541c.117 0 .102.119.102.18 0 .223.02.32-.074.32h-.735c-.14 0-.166.012-.166-.275 0-.221-.008-.23.15-.23l.724.005z"/></g><path d="M-22.572 6.64V5.193c.274-1.65 3.532-2.148 4.228-.15.155.445.018.946.1 1.41.022.125.113.238.105.363-.01.177-.001.354-.025.517-.076.51-.436.942-.728 1.368-.047.07-.125.117-.164.19-.037.07 0 .174-.06.228-1.54 1.424-2.856-.053-3.451-1.582-.082-.209-.005-.896-.005-.897zM-21.932 14.922c.003.017.85-.05 1.189.04.224.059.575.323.778.612a.36.36 0 0 1 .043.32c-.11.287-.326.707-.555.778-.215.067-.588-.054-.879-.1-.422-.068-1.12-.494-1.12-.494M-17.064 7.274l1.358-.695V4.175h5.522v3.881h-5.542v-.825zm2.224-1.93h3.788m-3.788.779h3.788m-3.788.777h1.786m-3.628 7.097l1.068-3.988h6.47"/><path d="M-8.27 9.398l-1.369 5.107h-2.677l.353 1.319h1.131l.717.716h-3.919l-.573-.573h1.243l-.374-1.395h-3.643l1.38-5.148z"/><g stroke-width=".515" stroke-linecap="round" stroke-linejoin="round"><path d="M-13.912 15.58h-4.738l-1.01-.956-.004-.317M-14.81 15.583h.932a.06.06 0 0 1 .061.06v.039a.06.06 0 0 1-.06.06h-.933a.06.06 0 0 1-.06-.06v-.038a.06.06 0 0 1 .06-.061z"/></g><path d="M-25.568 14.263h-1.73l3.867 2.947h16.227l-3.875-2.266v-.371M-17.3 14.235h-5.114"/></g><g stroke-width="3.752" color="#000" font-weight="400" font-family="sans-serif"><path d="M-53.28 4.757a.934.934 0 0 0-.355 0c-.115.026-.24.087-.292.218-.166.413-.272 1.143-.272 1.875s.088 1.454.447 1.842c.083.09.19.1.285.097a.992.992 0 0 0 .282-.057c.094-.032.185-.074.264-.123.08-.05.15-.1.2-.181.086-.14.07-.285.05-.445a1.836 1.836 0 0 0-.127-.469l-.028-.064-.066-.023s-.096-.034-.195-.088c-.099-.053-.176-.143-.175-.137a2.55 2.55 0 0 1-.045-.844c.001-.005-.001-.004.013-.017a.484.484 0 0 1 .087-.056c.083-.044.212-.09.298-.227.18-.29.236-.614.19-.898-.023-.136-.12-.224-.222-.284a1 1 0 0 0-.338-.119zm-.288.31a.667.667 0 0 1 .235.003.725.725 0 0 1 .23.08c.057.033.07.063.07.062.033.203-.007.455-.146.678a.69.69 0 0 1-.178.116.697.697 0 0 0-.152.102.356.356 0 0 0-.112.208c-.042.311-.02.682.051.964.049.193.207.271.332.339.084.045.118.055.162.072.039.103.075.223.09.334.017.128-.008.241-.005.236a.452.452 0 0 1-.096.077 1.047 1.047 0 0 1-.2.093.731.731 0 0 1-.192.041c-.048.002-.057-.014-.04.004-.228-.246-.362-.927-.362-1.626 0-.699.116-1.426.249-1.757-.002.004.006-.013.064-.025z" overflow="visible"/><path d="M-54.96 6.243a.738.738 0 0 0-.491.218 1.23 1.23 0 0 0-.294.423c-.403.968-.589 2.625-.636 3.684-.006.13.056.24.135.337.08.098.186.191.312.287.25.19.581.39.929.594.676.397 1.413.83 1.681 1.145.006.096.074 1.279.014 1.948a.159.159 0 1 0 .316.028c.067-.754-.016-2.055-.016-2.055a.159.159 0 0 0-.033-.088c-.34-.435-1.11-.846-1.801-1.252-.346-.203-.67-.4-.898-.573a1.583 1.583 0 0 1-.257-.234c-.054-.066-.065-.111-.065-.123.046-1.034.246-2.698.612-3.576a.947.947 0 0 1 .216-.313.436.436 0 0 1 .278-.133c.05 0 .122.028.184.08.062.054.11.128.125.186.074.278-.02.922-.124 1.512-.051.295-.102.58-.123.821-.022.241-.043.437.083.601.155.201.418.271.701.333s.595.099.838.14c.712.117 1.486.07 2.218.031.731-.039 1.421-.066 1.943.065.392.099.918.215 1.352.358.217.07.41.149.547.228.136.08.2.159.209.194.096.391.163 1.345.199 2.178.035.833.044 1.56.044 1.56a.159.159 0 1 0 .317-.004s-.009-.73-.044-1.57c-.036-.838-.093-1.772-.208-2.24-.044-.18-.188-.294-.357-.393a3.32 3.32 0 0 0-.608-.255c-.458-.15-.99-.267-1.373-.364-.594-.15-1.305-.113-2.038-.074-.733.039-1.488.082-2.149-.028-.255-.043-.561-.08-.822-.136-.26-.057-.468-.152-.517-.216a1.256 1.256 0 0 1-.02-.38c.02-.218.07-.5.121-.794.103-.59.232-1.22.118-1.649a.693.693 0 0 0-.226-.345.602.602 0 0 0-.392-.156z" overflow="visible"/><path d="M-47.964 12.68a.159.159 0 0 0-.157.16v2.013a.159.159 0 1 0 .318 0V12.84a.159.159 0 0 0-.161-.16zm-2.556-8.223c-1.026-.032-2.064.445-2.01 1.56l.07 1.482c.031.649.263 1.12.606 1.418.342.298.783.418 1.216.41.432-.007.86-.14 1.199-.366.339-.226.594-.552.636-.943l.225-2.077c.099-.914-.916-1.453-1.942-1.484zm-.013.323c.858.041 1.71.474 1.639 1.127l-.225 2.076c-.03.274-.213.525-.496.714a1.97 1.97 0 0 1-1.029.313c-.37.006-.73-.096-1.002-.333-.272-.236-.469-.61-.497-1.193l-.07-1.481c-.044-.915.821-1.265 1.68-1.223zm3.25-3.639a.159.159 0 0 0-.159.159v4.605a.159.159 0 0 0 .16.16h1.582a.159.159 0 1 0 0-.318h-1.424V1.459h5.743v4.234l-3.447.054a.159.159 0 0 0-.11.047c-.575.574-.9 1.08-1.45 1.63a.159.159 0 1 0 .225.225c.558-.558.886-1.053 1.41-1.585l3.533-.056a.159.159 0 0 0 .157-.158V1.3a.159.159 0 0 0-.159-.159z" overflow="visible"/><path d="M-46.254 2.233a.159.159 0 1 0 0 .317h4.003a.159.159 0 1 0 0-.317zm0 .769a.159.159 0 1 0 0 .317h4.003a.159.159 0 1 0 0-.317zm0 .768a.159.159 0 1 0 0 .318h4.003a.159.159 0 1 0 0-.317zm0 .77a.159.159 0 1 0 0 .317h1.9a.159.159 0 1 0 0-.317z" overflow="visible"/></g></symbol><symbol viewBox="0 0 512.001 512" id="round-table" xmlns="http://www.w3.org/2000/svg"><path d="M498.227 440.582c9.484-13.406 14.328-29.55 13.722-46.16-.691-19.05-8.504-36.977-21.996-50.465l-33.46-33.46c6.89-25.333 8.917-51.427 6.007-77.645-.457-4.114-4.164-7.075-8.281-6.625a7.498 7.498 0 0 0-6.625 8.28c2.379 21.427 1.195 42.763-3.485 63.602l-10.734-10.734c-5.504-5.504-12.828-8.535-20.617-8.535-7.809 0-15.133 3.031-20.625 8.539-11.36 11.371-11.36 29.871.004 41.234l28.18 28.168a194.274 194.274 0 0 1-28.02 35.45c-46.89 46.89-114.25 66.175-178.445 51.847l10.75-10.75c5.503-5.508 8.535-12.824 8.535-20.61 0-7.804-3.035-15.128-8.54-20.62-11.363-11.36-29.859-11.36-41.238 0l-28.214 28.21a193.117 193.117 0 0 1-35.56-28.078 194.065 194.065 0 0 1-29.3-37.546c-.078-.16-.137-.329-.23-.48a189.778 189.778 0 0 1-8.63-16.38 190.474 190.474 0 0 1-9.484-24.469 7.635 7.635 0 0 0-.437-1.074c-7.313-23.972-9.879-48.82-7.613-73.879a7.499 7.499 0 0 0-6.793-8.144c-4.114-.38-7.77 2.668-8.145 6.793-2.348 25.906.106 51.61 7.27 76.472L23.926 345.82c-13.422 13.418-21.23 31.242-21.992 50.184-.664 16.512 4.062 32.59 13.398 45.98l-.75.75c-5.64 5.641-8.746 13.137-8.746 21.11s3.105 15.468 8.746 21.11l13.906 13.905c5.817 5.82 13.461 8.73 21.106 8.73s15.285-2.91 21.105-8.73l.672-.672a74.76 74.76 0 0 0 43.297 13.786c4.605 0 9.25-.422 13.875-1.278a7.5 7.5 0 0 0 6.012-8.738c-.754-4.074-4.676-6.758-8.739-6.012-15.312 2.832-30.808-.293-43.629-8.57l15.797-15.797c3.875-3.875 6.551-8.625 7.848-13.808 11.078 7.69 26.445 6.617 36.309-3.25l19.43-19.426.038-.04 32.352-32.347c5.527-5.52 14.516-5.52 20.039.004 2.668 2.66 4.137 6.215 4.137 10.008a14.06 14.06 0 0 1-4.145 10.004l-20 20c-.031.027-.054.054-.082.082l-36.5 36.496a61.372 61.372 0 0 1-6.332 5.52 7.495 7.495 0 0 0-1.457 10.503 7.482 7.482 0 0 0 5.984 2.977 7.464 7.464 0 0 0 4.52-1.52 75.577 75.577 0 0 0 7.89-6.875l33.45-33.441a208.15 208.15 0 0 0 54.457 7.258c19.52 0 38.871-2.766 57.496-8.125l32.434 32.445c13.421 13.418 31.246 21.227 50.191 21.984a72.34 72.34 0 0 0 3.05.063c15.434 0 30.372-4.707 42.934-13.465l.758.758c5.817 5.816 13.461 8.726 21.106 8.726s15.285-2.91 21.105-8.726l13.906-13.906c5.641-5.641 8.746-13.137 8.746-21.11 0-7.972-3.105-15.469-8.746-21.105zM16.918 396.609c.61-15.168 6.863-29.437 17.61-40.183l26.98-26.977a206.518 206.518 0 0 0 12.687 27.36l-14.89 14.886c-5.371 5.364-8.328 12.504-8.328 20.102 0 5.715 1.671 11.172 4.789 15.808a29.68 29.68 0 0 0-13.903 7.848l-15.718 15.719c-6.477-10.242-9.723-22.254-9.227-34.563zm70.46 64.364l-21.8 21.797c0 .003-.004.003-.008.007l-5.476 5.477c-5.79 5.789-15.211 5.789-21.004 0l-13.906-13.906a14.76 14.76 0 0 1-4.352-10.504c0-3.965 1.547-7.696 4.352-10.5l5.363-5.364c.02-.02.039-.035.055-.054l21.867-21.863a14.802 14.802 0 0 1 10.5-4.344c3.785 0 7.566 1.437 10.457 4.304l13.285 13.278.668.668a14.753 14.753 0 0 1 4.348 10.5 14.74 14.74 0 0 1-4.348 10.504zm44.157-17.059a13.335 13.335 0 0 1-9.496 3.938c-3.586 0-6.96-1.399-9.496-3.938l-14.484-14.48s-.075-.07-.075-.075l-6.476-6.476-7.43-7.426c-.015-.016-.035-.031-.05-.047L69.91 401.297a13.337 13.337 0 0 1-3.937-9.5c0-3.586 1.398-6.957 3.937-9.492l12.309-12.309a209.024 209.024 0 0 0 23.215 29.184l-3.856 3.855a7.497 7.497 0 0 0 5.305 12.8 7.48 7.48 0 0 0 5.305-2.194l3.98-3.98a208.195 208.195 0 0 0 28.105 21.519zm271.211-145.937c2.66-2.668 6.215-4.137 10.008-4.137 3.789 0 7.344 1.473 10.016 4.14l56.578 56.583c20.164 20.164 23.105 51.796 8.07 75.21l-15.797-15.796a29.703 29.703 0 0 0-13.808-7.825c3.3-4.726 5.085-10.34 5.085-16.226 0-7.594-2.957-14.73-8.328-20.102l-51.828-51.816c-5.52-5.52-5.52-14.504.004-20.031zm-3.582 108.503l3.906 3.907a7.5 7.5 0 0 0 10.61-.005 7.5 7.5 0 0 0-.004-10.605l-4.04-4.039a208.756 208.756 0 0 0 21.544-28.09l12.785 12.782a13.324 13.324 0 0 1 3.933 9.496c0 3.586-1.394 6.957-3.933 9.496l-14.52 14.52-.039.035-13.906 13.906c-.016.012-.027.027-.04.039l-14.124 14.129c-5.238 5.234-13.758 5.234-19 0l-12.395-12.399a207.792 207.792 0 0 0 29.223-23.172zm-2.523 88.563c-15.168-.61-29.438-6.863-40.184-17.605l-27.059-27.063a206.81 206.81 0 0 0 14.829-6.246 205.7 205.7 0 0 0 12.566-6.406l14.937 14.933c9.747 9.742 24.856 10.918 35.895 3.54 1.29 5.218 3.973 10.007 7.871 13.906l15.711 15.707c-10.246 6.476-22.266 9.722-34.566 9.234zm91.656-22.176l-13.91 13.906c-5.785 5.79-15.207 5.793-21 0l-27.282-27.28a14.74 14.74 0 0 1-4.351-10.5c0-3.958 1.539-7.68 4.332-10.481l13.945-13.946a14.806 14.806 0 0 1 10.48-4.324c3.801 0 7.606 1.446 10.5 4.34l21.93 21.93c.004 0 .008.004.008.008l5.348 5.343c2.808 2.805 4.351 6.535 4.351 10.504s-1.546 7.696-4.351 10.5zm0 0"/><path d="M78.633 224.54c5.504 5.503 12.824 8.534 20.61 8.534 7.808 0 15.132-3.031 20.624-8.539 11.36-11.37 11.36-29.87-.004-41.234L91.56 155c7.328-11.914 15.996-23.055 25.847-33.223.211-.172.418-.351.617-.55a7.51 7.51 0 0 0 .672-.786l.887-.898a193.586 193.586 0 0 1 37.078-28.996 7.587 7.587 0 0 0 1.121-.543 190.461 190.461 0 0 1 16.356-8.629 191.92 191.92 0 0 1 24.48-9.48 7.28 7.28 0 0 0 1.25-.532c32.125-9.734 65.88-10.941 98.453-3.605l-10.87 10.87c-5.512 5.509-8.548 12.829-8.548 20.61 0 7.797 3.04 15.121 8.547 20.617 11.367 11.368 29.864 11.368 41.227 0l28.27-28.265a193.074 193.074 0 0 1 35.343 27.953c12.063 12.07 22.45 25.605 30.875 40.227 3.293 5.726 12.668 25.53 16.73 38.02.106.554.278 1.093.508 1.612.004.012.008.02.008.028 1.508 4.98 4.492 4.449 6.848 4.449h.008a7.495 7.495 0 0 0 5.296-2.195l35.56-35.547c13.421-13.422 21.23-31.242 21.987-50.188.664-16.508-4.062-32.59-13.398-45.98l.75-.75c5.637-5.637 8.742-13.133 8.742-21.11 0-7.972-3.105-15.468-8.742-21.105l-13.906-13.906c-11.64-11.637-30.575-11.637-42.215 0l-.672.672C427.262 4.285 411.128-.562 394.496.05c-19.055.696-36.98 8.509-50.473 22l-33.328 33.33c-36.902-10.059-75.527-9.79-112.28.773l-32.27-32.277c-13.422-13.418-31.247-21.227-50.192-21.984-16.492-.668-32.59 4.062-45.984 13.398l-.75-.754c-11.64-11.637-30.574-11.633-42.215 0L13.102 28.441C7.46 34.078 4.355 41.574 4.355 49.547c0 7.976 3.106 15.473 8.747 21.11l.675.675C4.29 84.742-.55 100.887.051 117.496c.691 19.05 8.504 36.973 21.996 50.465zM413.746 82.28c.102.102.203.211.309.313l28.074 28.062a13.35 13.35 0 0 1 3.937 9.5 13.31 13.31 0 0 1-3.937 9.496l-12.332 12.332a209.116 209.116 0 0 0-23.188-29.21l3.856-3.852a7.497 7.497 0 0 0 0-10.606 7.497 7.497 0 0 0-10.606 0l-3.964 3.965a208.05 208.05 0 0 0-28.079-21.554l12.688-12.688c5.238-5.238 13.766-5.238 19.004 0zm81.379 33.067c-.605 15.168-6.86 29.433-17.605 40.18l-27.18 27.167c-3.852-10.21-9.504-21.664-12.57-27.468l14.96-14.965c5.375-5.367 8.333-12.504 8.333-20.102 0-5.715-1.672-11.168-4.79-15.808A29.666 29.666 0 0 0 470.18 96.5l15.715-15.715c6.48 10.246 9.726 22.254 9.23 34.563zm-32.676-95.989c3.805 0 7.606 1.45 10.5 4.344l13.91 13.906c2.805 2.805 4.348 6.532 4.348 10.5s-1.543 7.7-4.348 10.504l-5.457 5.457c-.015.016-.035.032-.047.047l-21.78 21.778c-5.79 5.789-15.212 5.789-21 0l-13.907-13.907c-5.793-5.793-5.793-15.215-.004-21.004l27.285-27.28a14.785 14.785 0 0 1 10.5-4.345zM354.633 32.652c20.168-20.168 51.804-23.109 75.226-8.07l-15.8 15.797a29.649 29.649 0 0 0-7.829 13.816c-11.078-7.703-26.46-6.632-36.332 3.239l-51.82 51.816c-5.52 5.52-14.5 5.52-20.027-.004a14.032 14.032 0 0 1-4.145-10.008c0-3.773 1.473-7.328 4.153-10.008zm-286.59 98.832a13.324 13.324 0 0 1-3.934-9.496c0-3.586 1.395-6.957 3.934-9.496l42.633-42.625c5.238-5.238 13.758-5.238 18.996 0l12.25 12.246a209.166 209.166 0 0 0-29.207 23.2l-3.785-3.786a7.504 7.504 0 0 0-10.606 0 7.51 7.51 0 0 0 0 10.61l3.899 3.894a207.87 207.87 0 0 0-21.532 28.102zm47.312-114.609c15.168.605 29.442 6.86 40.188 17.605l26.945 26.95a207.364 207.364 0 0 0-27.367 12.672l-14.844-14.844c-9.742-9.742-24.859-10.918-35.898-3.531a29.657 29.657 0 0 0-7.875-13.91L80.789 26.104c10.25-6.48 22.266-9.726 34.566-9.23zM23.707 39.047L37.613 25.14a14.798 14.798 0 0 1 10.5-4.34 14.81 14.81 0 0 1 10.504 4.34l5.434 5.437c.027.024.054.055.082.078l21.77 21.766c2.804 2.808 4.347 6.535 4.347 10.504s-1.543 7.695-4.348 10.5l-13.91 13.906c-5.789 5.79-15.21 5.793-21.004 0l-27.281-27.28a14.743 14.743 0 0 1-4.352-10.504 14.74 14.74 0 0 1 4.352-10.5zm.883 43.098l15.793 15.793a29.69 29.69 0 0 0 13.812 7.828c-3.3 4.726-5.086 10.336-5.086 16.222 0 7.594 2.961 14.735 8.328 20.102l51.82 51.816c5.52 5.52 5.52 14.504-.003 20.031-2.664 2.668-6.219 4.137-10.012 4.137a14.056 14.056 0 0 1-10.004-4.14l-56.586-56.582c-20.168-20.165-23.105-51.793-8.062-75.207zm130.367 200.257l-36.809 32.625c-5.808 5.149-6.347 14.063-1.199 19.871l20.281 22.88c.024.023.043.05.063.077.02.02.035.036.055.051l19.453 21.946c2.773 3.132 6.648 4.73 10.539 4.73 3.32 0 6.652-1.164 9.328-3.535l36.809-32.629c5.812-5.145 6.347-14.063 1.199-19.871l-39.848-44.95c-5.148-5.808-14.062-6.343-19.871-1.195zm9.258 11.836l14.46 16.309-35.202 31.664-14.688-16.57zm3.195 74.973l-13.984-15.777 35.199-31.66 14.215 16.03zm0 0"/><path d="M338.188 133.531l-52.801 46.797a15.142 15.142 0 0 0-5.098 10.48 15.123 15.123 0 0 0 3.805 11.012l38.328 43.235a15.126 15.126 0 0 0 11.41 5.125 15.11 15.11 0 0 0 10.078-3.832l52.8-46.801a15.126 15.126 0 0 0 5.099-10.477 15.11 15.11 0 0 0-3.805-11.015l-38.324-43.23c-5.57-6.282-15.211-6.86-21.493-1.294zm48.648 54.637c-.004.094-.047.133-.074.152v.004l-52.801 46.797c-.027.024-.059.07-.16.059-.094-.004-.133-.051-.156-.075l-38.325-43.234a.2.2 0 0 1-.058-.16c.008-.094.05-.133.074-.156l52.8-46.797a.224.224 0 0 1 .317.015l38.328 43.235c.024.023.063.07.055.16zm0 0"/></symbol><symbol viewBox="0 0 512 512" id="woman" xmlns="http://www.w3.org/2000/svg"><path d="M418.186 366.807c-6.749-33.805-38.461-39.559-38.561-39.605v.001c-.341-.1 2.909.715-77.341-19.177v-2.723h59.075c12.177 0 22.083-9.907 22.083-22.083V170.554a27.596 27.596 0 0 0 0-12.742v-41.119a7.5 7.5 0 0 0-7.501-7.501 7.5 7.5 0 0 0-7.501 7.501v21.527c-3.96-2.364-8.483-4.059-13.357-4.898-1.76-7.817-8.252-13.997-16.485-15.078-8.582-1.128-15.086-6.131-19.331-14.869-1.987-4.091-5.879-6.778-10.409-7.19-4.534-.41-8.827 1.527-11.514 5.185-12.894 17.548-48.739 56.907-110.636 56.905-4.709 0-7.902-.223-9.014-.273-11.374-.685-20.991 8.403-20.991 19.8v17.235c0 27.547 11.428 54.253 31.352 73.269a100.454 100.454 0 0 0 21.67 15.763v6.234H150.92c-3.905 0-7.082-3.177-7.082-7.081v-168.55c0-54.643 44.553-99.669 98.371-99.669l.521.002c19.282.103 41.545 5.58 56.716 13.949 9.615 5.307 15.554 1.089 25.049 1.089 23.175 0 41.747 23.83 43.973 45.263.014.314.047 1.571.051 6.387.005 7.241 8.183 7.797 7.507 7.495a7.5 7.5 0 0 0 7.495-7.507c-.001-1.332.01-6.555-.115-7.767-3.016-29.837-28.467-58.873-58.91-58.873-11.89 0-13.743 3.014-17.802.778C289.491 6.328 264.415.119 242.811.003 180.539-.4 128.835 51.477 128.835 114.671v168.55c0 12.177 9.907 22.083 22.084 22.083h58.806v2.723l-77.038 19.093c-.102.025-.202.054-.303.083l-5.628 1.66a7.91 7.91 0 0 0-.5.166c-10.044 3.748-27.613 13.639-32.434 37.782-22.83 114.682-21.869 109.785-21.924 110.178-2.75 19.451 6.987 35.01 30.41 35.01h81.115a7.5 7.5 0 0 0 7.501-7.501 7.5 7.5 0 0 0-7.501-7.501h-28.227v-70.75c0-4.144-3.358-7.501-7.501-7.501s-7.501 3.358-7.501 7.501v70.75h-37.886c-9.964 0-15.75-3.208-15.846-13.675-.042-5.106-.243-.129 22.073-113.578 3.359-16.823 15.575-23.85 22.732-26.571l5.202-1.534 44.24-10.965c49.213 57.976 46.299 54.904 49.143 57.678 16.426 16.023 39.864 14.892 55.29-3.224l46.325-54.413 44.071 10.923c1.275.586 23.213 4.445 27.936 28.103 22.124 112.467 22.116 108.451 22.074 113.575-.076 10.252-5.622 13.682-15.846 13.682h-37.617v-70.751c0-4.144-3.357-7.501-7.501-7.501s-7.501 3.358-7.501 7.501v70.75H218.428a7.5 7.5 0 0 0-7.501 7.501 7.5 7.5 0 0 0 7.501 7.501h191.275c18.532 0 30.677-10.197 30.848-28.563.063-8.577-.448-4.479-22.365-116.629zm-62.612-218.01c6.264 1.863 11.095 5.991 12.867 11.089v8.594c-1.772 5.099-6.603 9.227-12.867 11.089v-30.772zm0 47.546v-1.385c4.688-.866 9.041-2.526 12.867-4.811v93.074c0 3.905-3.177 7.08-7.081 7.08h-59.076v-5.797c31.804-16.627 53.29-49.918 53.29-88.161zm-157.16 61.109c-16.973-16.201-26.707-38.95-26.707-62.417.446-16.332-1.081-18.311 1.525-20.765a4.733 4.733 0 0 1 3.561-1.295c53.784 3.238 100.044-20.406 130.586-59.994 8.235 14.46 20.312 18.962 29.266 20.139 2.238.294 3.927 2.204 3.927 4.445v58.779c0 74.636-89.352 111.507-142.158 61.108zm75.303 117.95c-10.451 12.277-25.081 12.244-35.507-.062l-15.651-18.473h66.938l-15.78 18.535zm28.554-33.538H209.85l-12.891-15.216 22.074-5.472c3.348-.829 5.696-3.907 5.696-7.355l.001-23.206c20.64 6.88 42.437 6.805 62.552.214.141 23.975-.322 23.426.418 25.541a7.502 7.502 0 0 0 5.277 4.805l22.219 5.507-12.925 15.182z"/></symbol></svg>