<svg width="2007" height="1570" viewBox="0 0 2007 1570" fill="none" xmlns="http://www.w3.org/2000/svg">
<path fill-rule="evenodd" clip-rule="evenodd" d="M1818.79 891.08C1840.17 875.786 1860.94 863.551 1874.4 860.54C1712.2 721.251 1414.16 478.349 1175.65 285.261C1141.64 257.734 1105.8 230.781 1072.79 205.955L1066.53 201.243L996.727 147.499C911.552 78.1886 856.493 16.988 849.239 7.32087C844.974 1.63687 832.314 1.255 825.061 2.7415C779.122 12.1545 701.729 38.3342 663.068 55.6582L283.468 652.624L94.6914 990.985C122.579 1027.13 157.926 1065.11 200.214 1102.16C228.863 1127.26 260.698 1151.93 295.557 1175.31C324.881 1194.97 356.344 1213.72 389.852 1231.04C414.534 1243.8 434.288 1257.19 453.239 1270.03L454.592 1270.95C455.58 1271.62 456.566 1272.29 457.551 1272.95C491.937 1296.22 524.696 1317.38 580.86 1329.29C589.326 1331.09 598.211 1332.7 607.457 1334.14C672.722 1344.28 755.999 1345.72 837.15 1341.57C841.186 1341.36 845.216 1341.14 849.239 1340.91C892.233 1338.41 934.344 1334.38 972.548 1329.29C1005.67 1324.88 1037.41 1323.17 1068.96 1321.47C1106.55 1319.44 1143.86 1317.43 1182.9 1310.89C1223.05 1304.16 1265.04 1292.62 1311.04 1271.34C1319.15 1267.59 1328.09 1262.89 1337.64 1257.49C1370.63 1238.8 1410.85 1211.69 1448.56 1186.26L1448.56 1186.26L1448.58 1186.25L1448.65 1186.2C1459.45 1178.92 1470.05 1171.77 1480.22 1165C1495.12 1155.08 1509.09 1145.96 1521.39 1138.41C1533.54 1130.96 1546.77 1125.55 1560.13 1120.08C1575.75 1113.68 1591.55 1107.21 1606.02 1097.33C1628.75 1081.8 1647.65 1061.17 1666.36 1039.32C1669.63 1035.5 1672.89 1031.65 1676.17 1027.78C1695.35 1005.13 1714.99 981.933 1739 962.353C1749.38 947.302 1784.87 915.342 1818.79 891.08ZM885.507 396.436C881.477 435.912 875.835 517.763 885.507 529.364C897.596 543.865 914.52 558.366 953.206 558.366C984.154 558.366 996.727 524.53 999.144 507.612C976.578 470.553 922.258 396.436 885.507 396.436ZM631.635 253.841C605.039 282.843 555.715 354.866 551.847 381.935C547.978 409.004 576.025 416.577 592.95 420.605C605.039 421.41 628.733 417.705 646.142 406.104C663.55 394.503 645.336 300.567 631.635 253.841ZM534.921 575.284C483.341 622.01 395.654 721.263 457.551 744.465C519.447 767.667 559.1 725.13 559.1 710.629C559.906 675.987 560.066 602.353 534.921 575.284ZM796.047 671.959C774.287 722.713 742.855 821.321 762.197 838.723C786.376 860.475 800.883 862.891 829.897 860.475C858.91 858.058 880.671 841.14 885.507 831.472C886.239 830.009 887.192 828.49 888.233 826.832C894.07 817.537 902.653 803.866 890.342 771.051C873.491 726.132 827.479 686.46 796.047 671.959ZM1153.89 671.959C1153.89 746.882 1171.78 885.127 1243.34 838.723C1314.91 792.319 1213.53 708.212 1153.89 671.959ZM302.811 855.641C255.26 898.339 181.436 990.985 266.543 1019.99C351.651 1048.99 326.183 922.508 302.811 855.641ZM568.772 983.735C527.669 1045.77 470.124 1172.25 568.772 1181.92C667.419 1191.59 609.875 1053.82 568.772 983.735ZM979.802 961.983C943.535 1049.8 900.981 1213.34 1020.9 1165C1140.83 1116.66 1043.47 1009.51 979.802 961.983ZM1337.64 882.226C1348.92 953.927 1392.77 1081.86 1477.87 1019.99C1562.98 958.116 1419.85 902.367 1337.64 882.226Z" fill="#FF0000"/>
<path d="M1122.45 386.768C1136.15 373.878 1167.43 348.582 1182.9 350.515M1231.26 478.61C1235.29 467.331 1250.11 444.29 1277.19 442.357M1422.26 638.123L1487.55 597.036M1540.74 696.128L1581.84 659.875M1642.29 797.636L1697.9 763.8M796.047 94.3277L841.986 62.9085M854.075 169.251C857.299 156.361 872.45 130.581 907.267 130.581M948.37 270.759C964.489 260.286 999.628 234.506 1011.23 234.506M663.068 55.6582C692.997 91.061 759.273 154.734 849.239 227.256C903.324 270.854 973.692 318.662 1028.16 362.6C1221.97 518.95 1549.77 795.654 1739 962.353M663.068 55.6582C701.729 38.3342 779.122 12.1545 825.061 2.7415C832.314 1.255 844.974 1.63687 849.239 7.32087C856.493 16.988 911.552 78.1886 996.727 147.499M663.068 55.6582L283.468 652.624L94.6914 990.985M1884.07 1097.33C1874.07 1083.49 1818.88 1032.72 1739 962.353M1884.07 1097.33C1871.28 1121.12 1856.31 1143.58 1839.37 1165M1884.07 1097.33C1909.89 1077.97 1951.68 1038.71 1978.9 1007.9M996.727 147.499C1016.42 163.47 1040.48 181.648 1066.53 201.243M996.727 147.499L1066.53 201.243M1175.65 285.261L1066.53 201.243M1175.65 285.261C1414.16 478.349 1712.2 721.251 1874.4 860.54M1175.65 285.261C1141.64 257.734 1105.8 230.781 1072.79 205.955M1066.53 201.243C1068.6 202.805 1070.69 204.375 1072.79 205.955M1066.53 201.243L1072.79 205.955M1739 962.353C1749.38 947.302 1784.87 915.342 1818.79 891.08M1739 962.353C1714.99 981.933 1695.35 1005.13 1676.17 1027.78C1672.89 1031.65 1669.63 1035.5 1666.36 1039.32M1874.4 860.54C1908.35 889.696 1936.35 914.311 1956.6 932.981C1968.67 944.106 1981.55 953.119 1990.98 959.723C1999.75 965.857 2005.54 969.913 2004.96 971.651C2002.41 979.295 1992.46 992.55 1978.9 1007.9M1874.4 860.54C1860.94 863.551 1840.17 875.786 1818.79 891.08M94.6914 990.985L3 1155.33C39.8644 1210.9 81.2238 1259.63 126.309 1302.17M94.6914 990.985C122.579 1027.13 157.926 1065.11 200.214 1102.16M972.548 1329.29L1066.53 1560.17M972.548 1329.29C934.344 1334.38 892.233 1338.41 849.239 1340.91C845.216 1341.14 841.186 1341.36 837.15 1341.57M972.548 1329.29C1005.67 1324.88 1037.41 1323.17 1068.96 1321.47C1106.55 1319.44 1143.86 1317.43 1182.9 1310.89M1606.02 1097.33L1739 1264.65M1606.02 1097.33C1628.75 1081.8 1647.65 1061.17 1666.36 1039.32M1606.02 1097.33C1591.55 1107.21 1575.75 1113.68 1560.13 1120.08C1546.77 1125.55 1533.54 1130.96 1521.39 1138.41C1509.09 1145.96 1495.12 1155.08 1480.22 1165M1182.9 1310.89C1223.05 1304.16 1265.04 1292.62 1311.04 1271.34C1319.15 1267.59 1328.09 1262.89 1337.64 1257.49M1182.9 1310.89L1277.19 1531.86M1277.19 1531.86C1296.85 1527.18 1316.21 1521.76 1335.22 1515.45C1375.34 1502.13 1414.04 1482.53 1451.28 1460.39M1277.19 1531.86C1209.46 1548.01 1138.32 1555.38 1066.53 1560.17M1451.28 1460.39L1337.64 1257.49M1451.28 1460.39C1486.88 1439.23 1521.14 1415.74 1554.05 1393.18L1554.07 1393.17L1554.08 1393.16L1554.09 1393.15L1554.09 1393.15M1337.64 1257.49C1370.63 1238.8 1410.85 1211.69 1448.56 1186.26L1448.56 1186.26L1448.58 1186.25M1480.22 1165L1581.84 1374.2M1480.22 1165C1470.05 1171.77 1459.45 1178.92 1448.65 1186.2M1581.84 1374.2C1594.96 1365.31 1607.86 1356.73 1620.53 1348.68C1663.55 1321.34 1703.28 1293.69 1739 1264.65M1581.84 1374.2C1572.78 1380.34 1563.6 1386.63 1554.32 1392.99M1739 1264.65C1777.38 1233.46 1811.13 1200.68 1839.37 1165M1666.36 1039.32L1839.37 1165M1066.53 1560.17C1036.76 1562.15 1006.88 1563.69 977.085 1565.23L977.074 1565.23M607.457 1334.14C598.211 1332.7 589.326 1331.09 580.86 1329.29C524.696 1317.38 491.937 1296.22 457.551 1272.95M607.457 1334.14L631.635 1538.76M607.457 1334.14C672.722 1344.28 755.999 1345.72 837.15 1341.57M631.635 1538.76C656.415 1542.95 681.416 1546.44 706.587 1549.28C721.887 1551.01 737.435 1552.95 753.137 1554.91C797.553 1560.45 843.198 1566.15 887.924 1567.63M631.635 1538.76C572.086 1528.69 513.817 1514.61 457.551 1495.91M457.551 1495.91V1272.95M457.551 1495.91C385.227 1471.88 316.211 1440.21 252.036 1399.63M457.551 1272.95C456.566 1272.29 455.58 1271.62 454.592 1270.95M295.557 1175.31C324.881 1194.97 356.344 1213.72 389.852 1231.04C414.534 1243.8 434.288 1257.19 453.239 1270.03M295.557 1175.31L252.036 1399.63M295.557 1175.31C260.698 1151.93 228.863 1127.26 200.214 1102.16M252.036 1399.63C207.641 1371.55 165.563 1339.21 126.309 1302.17M200.214 1102.16L126.309 1302.17M1818.79 891.08L1978.9 1007.9M977.035 1565.23L977.074 1565.23M977.035 1565.23L976.97 1565.23M977.035 1565.23C977.013 1565.23 976.991 1565.23 976.97 1565.23M977.035 1565.23C977.048 1565.23 977.061 1565.23 977.074 1565.23M1554.09 1393.15L1554.18 1393.09M1554.09 1393.15C1554.12 1393.13 1554.15 1393.11 1554.18 1393.09M1554.32 1392.99L1554.18 1393.09M1554.32 1392.99C1554.27 1393.02 1554.23 1393.06 1554.18 1393.09M976.97 1565.23L976.909 1565.24M976.97 1565.23C976.95 1565.23 976.929 1565.24 976.909 1565.24M976.909 1565.24L976.837 1565.24M976.909 1565.24C976.885 1565.24 976.861 1565.24 976.837 1565.24M976.837 1565.24C964.103 1565.9 951.385 1566.55 938.699 1567.24C921.988 1568.15 905.024 1568.2 887.924 1567.63M453.239 1270.03L454.592 1270.95M453.239 1270.03C453.69 1270.34 454.141 1270.64 454.592 1270.95M1448.58 1186.25L1448.65 1186.2M1448.58 1186.25C1448.6 1186.23 1448.62 1186.22 1448.65 1186.2M837.15 1341.57L887.924 1567.63M827.479 746.882L825.061 783.135L849.24 809.72L856.493 775.884L827.479 746.882ZM573.607 1039.32V1116.66H607.457L573.607 1039.32ZM1018.49 1051.41L1040.25 1102.16L1059.59 1090.08L1035.41 1046.57L1018.49 1051.41ZM1390.83 935.397L1417.43 978.901H1429.52L1436.77 966.817C1434.35 965.206 1429.52 960.533 1429.52 954.732C1429.52 948.932 1423.07 941.037 1419.85 937.814L1410.18 935.397L1395.67 932.981L1390.83 935.397ZM295.557 918.479C290.722 927.341 281.051 946.998 281.051 954.732C281.051 957.447 280.669 962.257 280.228 967.826C279.097 982.09 277.573 1001.33 281.051 1003.07C282.192 1003.64 283.334 1004.48 284.539 1005.37C288.439 1008.24 293.004 1011.6 300.393 1007.9C310.064 1003.07 300.394 923.313 295.557 918.479ZM527.668 628.455C526.862 651.818 521.865 700.961 508.326 710.629C494.786 720.296 515.579 659.875 527.668 628.455ZM621.964 338.431C613.904 349.71 599.72 374.201 607.457 381.935C615.194 389.669 625.187 381.935 629.217 377.101C628.411 365.017 625.832 340.365 621.964 338.431ZM943.534 478.61C939.505 489.888 934.347 513.412 945.952 517.279C957.558 521.146 960.459 504.39 960.459 495.528C958.041 486.666 951.271 470.876 943.534 478.61ZM1207.08 742.048C1207.08 756.549 1209.98 786.035 1221.58 787.969C1233.19 789.902 1216.75 758.161 1207.08 742.048ZM631.635 253.841C605.039 282.843 555.715 354.866 551.847 381.935C547.978 409.004 576.025 416.577 592.95 420.605C605.039 421.41 628.733 417.705 646.142 406.104C663.55 394.503 645.336 300.567 631.635 253.841ZM885.507 396.436C881.477 435.912 875.835 517.763 885.507 529.364C897.596 543.865 914.52 558.366 953.206 558.366C984.154 558.366 996.727 524.53 999.144 507.612C976.578 470.553 922.258 396.436 885.507 396.436ZM796.047 671.959C774.287 722.713 742.855 821.321 762.197 838.723C786.376 860.475 800.883 862.891 829.897 860.475C858.91 858.058 880.671 841.14 885.507 831.472C886.239 830.009 887.192 828.49 888.233 826.832C894.07 817.537 902.653 803.866 890.342 771.051C873.491 726.132 827.479 686.46 796.047 671.959ZM1153.89 671.959C1153.89 746.882 1171.78 885.127 1243.34 838.723C1314.91 792.319 1213.53 708.212 1153.89 671.959ZM1337.64 882.226C1348.92 953.927 1392.77 1081.86 1477.87 1019.99C1562.98 958.116 1419.85 902.367 1337.64 882.226ZM979.802 961.983C943.535 1049.8 900.981 1213.34 1020.9 1165C1140.83 1116.66 1043.47 1009.51 979.802 961.983ZM568.772 983.735C527.669 1045.77 470.124 1172.25 568.772 1181.92C667.419 1191.59 609.875 1053.82 568.772 983.735ZM302.811 855.641C255.26 898.339 181.436 990.985 266.543 1019.99C351.651 1048.99 326.183 922.508 302.811 855.641ZM534.921 575.284C483.341 622.01 395.654 721.263 457.551 744.465C519.447 767.667 559.1 725.13 559.1 710.629C559.906 675.987 560.066 602.353 534.921 575.284Z" stroke="black" stroke-width="4"/>
</svg>
