<svg height="511pt" viewBox="0 1 511.99964 511" width="511pt" xmlns="http://www.w3.org/2000/svg"><path d="m452.347656 60.152344c-79.539062-79.535156-208.953125-79.535156-288.488281 0-15.226563 15.222656-27.789063 32.46875-37.457031 51.398437l-12.523438-12.523437c-17.125-17.125-44.984375-17.125-62.109375 0l-29.585937 29.582031c-25.988282 25.988281-29.160156 63.089844-9.425782 110.273437 3.039063 7.269532 9.605469 17.355469 20.074219 30.839844.160157.203125.328125.402344.5.597656l20.632813 22.664063c.105468.117187.214844.230469.324218.339844l50.632813 50.632812c3.90625 3.90625 10.238281 3.90625 14.148437 0 3.902344-3.90625 3.902344-10.238281 0-14.144531l-50.46875-50.464844-20.210937-22.203125c-11.332031-14.621093-15.601563-22.195312-17.183594-25.980469-16.523437-39.519531-14.851562-68.441406 5.121094-88.410156l10.75-10.75 94.472656 94.472656-14.671875 14.667969c-8.421875 8.421875-9.15625 21.75-1.707031 31.007813 11.402344 14.167968 32.074219 36.542968 55.324219 59.871094 23.308594 23.226562 45.679687 43.902343 59.851562 55.304687 9.253906 7.445313 22.582032 6.710937 31-1.710937l14.671875-14.671876 94.472657 94.472657-10.75 10.75c-19.96875 19.972656-48.890626 21.648437-88.410157 5.121093-3.976562-1.664062-13.902343-7.121093-35.789062-25.003906l-62.859375-62.855468c-3.90625-3.90625-10.238282-3.90625-14.144532 0s-3.90625 10.238281 0 14.144531l63.210938 63.210937c.238281.234375.484375.457032.738281.667969 18.65625 15.265625 32.109375 24.515625 41.125 28.289063 20.34375 8.507812 38.808594 12.757812 55.320313 12.757812 21.785156 0 40.167968-7.402344 54.953125-22.1875l29.585937-29.582031c17.121094-17.125 17.121094-44.988281 0-62.109375l-12.523437-12.527344c18.921875-9.664062 36.167969-22.222656 51.394531-37.453125 79.539062-79.535156 79.539062-208.953125.003906-288.488281zm-352.613281 53.015625 60.652344 60.65625c9.324219 9.324219 9.324219 24.492187 0 33.816406l-4.691407 4.691406-94.472656-94.472656 4.691406-4.691406c9.324219-9.324219 24.496094-9.320313 33.820313 0zm299.59375 333.417969-4.6875 4.6875-94.472656-94.472657 4.6875-4.6875c9.324219-9.328125 24.496093-9.324219 33.820312 0l60.652344 60.652344c9.324219 9.324219 9.324219 24.496094 0 33.820313zm-13.332031-75.441407-33.175782-33.175781c-17.121093-17.121094-44.984374-17.125-62.109374 0l-33.503907 33.503906c-1.183593 1.1875-3.039062 1.300782-4.320312.273438-13.648438-10.988282-35.433594-31.132813-58.246094-53.863282-22.753906-22.835937-42.902344-44.621093-53.886719-58.269531-1.027344-1.28125-.914062-3.136719.273438-4.320312l33.503906-33.503907c17.125-17.125 17.125-44.988281 0-62.109374l-33.171875-33.175782c9.039063-19.371094 21.351563-36.917968 36.644531-52.207031 71.738282-71.738281 188.460938-71.738281 260.199219 0s71.738281 188.464844 0 260.199219c-15.296875 15.296875-32.835937 27.605468-52.207031 36.648437zm0 0"/><path d="m143.675781 378.566406c-4.1875 0-7.992187-2.699218-9.410156-6.632812-1.390625-3.867188-.199219-8.335938 2.941406-10.992188 3.28125-2.777344 8.09375-3.121094 11.746094-.863281 3.503906 2.167969 5.324219 6.410156 4.523437 10.445313-.914062 4.621093-5.097656 8.042968-9.800781 8.042968zm0 0"/><path d="m358.945312 226.355469h-50.84375c-5.523437 0-10-4.476563-10-10v-73.722657c0-5.523437 4.476563-10 10-10 5.523438 0 10.003907 4.476563 10.003907 10v63.722657h40.839843c5.523438 0 10 4.476562 10 10 0 5.523437-4.476562 10-10 10zm0 0"/><path d="m411.570312 317.867188c-2.558593 0-5.121093-.976563-7.070312-2.929688-3.90625-3.90625-3.90625-10.238281 0-14.144531 25.703125-25.703125 39.859375-59.9375 39.859375-96.398438 0-36.457031-14.15625-70.691406-39.859375-96.394531-38.617188-38.617188-96.40625-50.433594-147.222656-30.097656-5.128906 2.050781-10.949219-.445313-13.003906-5.570313-2.050782-5.128906.445312-10.949219 5.574218-13.003906 58.257813-23.308594 124.511719-9.753906 168.792969 34.527344 29.484375 29.484375 45.71875 68.738281 45.71875 110.542969 0 41.800781-16.234375 81.058593-45.71875 110.539062-1.949219 1.953125-4.511719 2.929688-7.070313 2.929688zm0 0"/></svg>