<svg width="783" height="925" viewBox="0 0 783 925" fill="none" xmlns="http://www.w3.org/2000/svg">
<path d="M783 86.3764C702.4 -39.9936 23.0592 -17.0191 0.0336274 86.3764C0.0337261 212.748 -11.4804 787.157 391.515 925C690.884 821.622 817.573 362.11 771.483 339.118C679.367 293.165 426.06 281.661 403.031 281.661C384.609 281.661 395.355 396.559 403.031 454C441.412 450.17 501.306 453.747 536 469C554.313 477.051 449.086 649.283 380.003 683.748C253.345 580.354 200.379 320.721 218.802 247.197C237.224 173.672 602.608 224.236 782.997 270.189L783 86.3764Z" fill="url(#paint0_linear)"/>
<defs>
<linearGradient id="paint0_linear" x1="782.997" y1="419.535" x2="-34.5088" y2="419.535" gradientUnits="userSpaceOnUse">
<stop stop-color="#780F0F"/>
<stop offset="0.0001" stop-color="#A80000"/>
<stop offset="1" stop-color="#E42626"/>
</linearGradient>
</defs>
</svg>
