<?xml version="1.0" encoding="UTF-8" standalone="no"?>
<!-- Created with Inkscape (http://www.inkscape.org/) -->

<svg
   xmlns:dc="http://purl.org/dc/elements/1.1/"
   xmlns:cc="http://creativecommons.org/ns#"
   xmlns:rdf="http://www.w3.org/1999/02/22-rdf-syntax-ns#"
   xmlns:svg="http://www.w3.org/2000/svg"
   xmlns="http://www.w3.org/2000/svg"
   xmlns:sodipodi="http://sodipodi.sourceforge.net/DTD/sodipodi-0.dtd"
   xmlns:inkscape="http://www.inkscape.org/namespaces/inkscape"
   width="67"
   height="62"
   viewBox="0 0 17.727082 16.404167"
   version="1.1"
   id="svg8"
   sodipodi:docname="people.svg"
   inkscape:version="0.92.4 (5da689c313, 2019-01-14)">
  <defs
     id="defs2" />
  <sodipodi:namedview
     id="base"
     pagecolor="#ffffff"
     bordercolor="#666666"
     borderopacity="1.0"
     inkscape:pageopacity="0.0"
     inkscape:pageshadow="2"
     inkscape:zoom="4.9529364"
     inkscape:cx="51.862272"
     inkscape:cy="13.614643"
     inkscape:document-units="mm"
     inkscape:current-layer="layer10"
     showgrid="false"
     inkscape:snap-bbox="true"
     inkscape:snap-bbox-edge-midpoints="false"
     inkscape:window-width="1600"
     inkscape:window-height="847"
     inkscape:window-x="-8"
     inkscape:window-y="22"
     inkscape:window-maximized="1"
     units="px" />
  <metadata
     id="metadata5">
    <rdf:RDF>
      <cc:Work
         rdf:about="">
        <dc:format>image/svg+xml</dc:format>
        <dc:type
           rdf:resource="http://purl.org/dc/dcmitype/StillImage" />
        <dc:title></dc:title>
        <dc:title />
      </cc:Work>
    </rdf:RDF>
  </metadata>
  <g
     inkscape:groupmode="layer"
     id="layer15"
     inkscape:label="conversation_body_2"
     transform="translate(-7.7270692,-2.1692991)" />
  <g
     inkscape:groupmode="layer"
     id="layer14"
     inkscape:label="conversation_body_1"
     style="display:inline"
     transform="translate(-7.7270692,-2.1692991)" />
  <g
     inkscape:groupmode="layer"
     id="layer13"
     inkscape:label="conversation_msg"
     transform="translate(-7.7270692,-2.1692991)" />
  <g
     inkscape:groupmode="layer"
     id="layer11"
     inkscape:label="conversation"
     transform="translate(-7.7270692,-2.1692991)">
    <g
       id="g4962"
       transform="matrix(0.73382516,0,0,0.73382516,29.023984,-19.241789)"
       style="stroke-width:0.43266436;stroke-miterlimit:4;stroke-dasharray:none">
      <path
         style="display:inline;fill:none;stroke:#000000;stroke-width:0.43266436;stroke-linecap:butt;stroke-linejoin:miter;stroke-miterlimit:4;stroke-dasharray:none;stroke-opacity:1"
         d="m 32.224898,38.450445 0.105437,2.212113 c 0.17536,3.679059 4.774061,2.748557 4.989239,0.760554 l 0.335754,-3.101992 c 0.253292,-2.340148 -5.574976,-2.903198 -5.430431,0.12932 z"
         id="path21-7"
         inkscape:connector-curvature="0"
         sodipodi:nodetypes="sssss" />
      <path
         sodipodi:nodetypes="cssscc"
         inkscape:connector-curvature="0"
         id="path4824"
         d="m 29.137239,50.094141 c 0.661459,-4.332552 0.323153,-3.812939 0.661459,-4.332552 0.7185,-1.103563 2.06024,-1.176628 2.89388,-1.521354 0.799395,-0.330564 1.036589,1.968775 1.732436,2.856086 0.126213,0.16094 0.09049,-2.851369 0.169257,-2.823013 h 0.455623"
         style="fill:none;stroke:#000000;stroke-width:0.43266436;stroke-linecap:butt;stroke-linejoin:miter;stroke-miterlimit:4;stroke-dasharray:none;stroke-opacity:1" />
      <path
         sodipodi:nodetypes="csscc"
         inkscape:connector-curvature="0"
         id="path4824-5"
         d="m 40.304811,45.867681 c -0.250689,-0.989545 -1.912102,-1.307936 -2.906285,-1.627446 -0.82356,-0.264676 -1.036589,1.968775 -1.732436,2.856086 -0.126213,0.16094 -0.09049,-2.851369 -0.169257,-2.823013 H 35.04121"
         style="fill:none;stroke:#000000;stroke-width:0.43266436;stroke-linecap:butt;stroke-linejoin:miter;stroke-miterlimit:4;stroke-dasharray:none;stroke-opacity:1" />
      <path
         style="display:inline;fill:none;stroke:#000000;stroke-width:0.43266436;stroke-linecap:butt;stroke-linejoin:miter;stroke-miterlimit:4;stroke-dasharray:none;stroke-opacity:1"
         d="m 41.554012,39.008365 c 0,0 -0.134598,1.93929 0.08279,2.872035 1.010785,4.336957 5.538919,3.240412 6.200819,0.6973 0.314676,-1.209031 0.389181,-3.72767 0.389181,-3.72767 0.299258,-2.866365 -6.850402,-3.554441 -6.672788,0.158329 z"
         id="path21-7-1"
         inkscape:connector-curvature="0"
         sodipodi:nodetypes="cssssc" />
      <path
         sodipodi:nodetypes="cssc"
         inkscape:connector-curvature="0"
         id="path4936"
         d="m 37.05673,53.277207 c 0,-0.255281 0.43178,-5.378886 1.857712,-6.028887 3.006132,-1.370325 8.721473,-1.41591 11.798281,-0.03508 1.71482,0.769588 1.986296,5.898792 1.986296,6.056995"
         style="display:inline;fill:none;stroke:#000000;stroke-width:0.43266436;stroke-linecap:butt;stroke-linejoin:miter;stroke-miterlimit:4;stroke-dasharray:none;stroke-opacity:1" />
      <path
         inkscape:connector-curvature="0"
         id="path4911"
         d="m 52.010648,45.763304 2.525699,-2.993419 h 6.080382 V 34.537983 H 50.186534 v 8.302061 h 2.666016"
         style="fill:none;stroke:#000000;stroke-width:0.43266436;stroke-linecap:round;stroke-linejoin:round;stroke-miterlimit:4;stroke-dasharray:none;stroke-opacity:1" />
      <rect
         ry="0.055388141"
         y="38.232986"
         x="53.086411"
         height="0.56126595"
         width="0.8652851"
         id="rect4913"
         style="fill:#000000;fill-opacity:1;stroke:#000000;stroke-width:0.43266436;stroke-linecap:round;stroke-linejoin:round;stroke-miterlimit:4;stroke-dasharray:none;stroke-opacity:1;paint-order:normal" />
      <rect
         ry="0.055388141"
         y="38.232986"
         x="54.984692"
         height="0.56126601"
         width="0.8652851"
         id="rect4913-2"
         style="fill:#000000;fill-opacity:1;stroke:#000000;stroke-width:0.43266436;stroke-linecap:round;stroke-linejoin:round;stroke-miterlimit:4;stroke-dasharray:none;stroke-opacity:1;paint-order:normal" />
      <rect
         ry="0.055388141"
         y="38.232986"
         x="56.894676"
         height="0.56126601"
         width="0.8652851"
         id="rect4913-7"
         style="fill:#000000;fill-opacity:1;stroke:#000000;stroke-width:0.43266436;stroke-linecap:round;stroke-linejoin:round;stroke-miterlimit:4;stroke-dasharray:none;stroke-opacity:1;paint-order:normal" />
    </g>
  </g>
  <g
     inkscape:groupmode="layer"
     id="layer9"
     inkscape:label="pc_user"
     transform="translate(-7.7270692,-2.1692991)" />
  <g
     inkscape:groupmode="layer"
     id="layer8"
     inkscape:label="pc_msg"
     transform="translate(-7.7270692,-2.1692991)" />
  <g
     inkscape:groupmode="layer"
     id="layer6"
     inkscape:label="pc"
     style="display:inline"
     transform="translate(-7.7270692,-2.1692991)" />
  <g
     inkscape:groupmode="layer"
     id="layer10"
     inkscape:label="pc_table"
     transform="translate(-7.7270692,-2.1692991)">
    <g
       id="g4777"
       transform="matrix(1.1001988,0,0,1.1001988,-1.8160771,-3.2641259)"
       style="stroke-width:0.28858423;stroke-miterlimit:4;stroke-dasharray:none">
      <path
         sodipodi:nodetypes="caasssssssaac"
         inkscape:connector-curvature="0"
         id="path4675"
         d="m 32.417781,11.579191 c 0,0 0.251469,0.03696 0.330821,0.12396 0.105469,0.11566 0.04648,0.316861 0.123657,0.453028 0.04351,0.07673 0.12345,0.255691 0.183259,0.19087 0.185926,-0.201493 -0.03567,-0.964484 0.07634,-1.28013 0.03231,-0.09103 0.137482,-0.204169 0.229966,-0.176305 0.335705,0.101132 0.678582,0.248921 0.983583,0.255204 0.473534,0.0097 0.785927,-0.223762 1.017097,-0.278201 0.134509,-0.03169 0.302476,0.09847 0.344944,0.229966 0.110862,0.34328 -0.09542,0.867412 0.102979,1.074476 0.08539,0.08911 0.173143,-0.07453 0.226631,-0.146957 0.07359,-0.09965 0.03751,-0.251435 0.101519,-0.357486 0.05426,-0.08993 0.228102,-0.217424 0.228102,-0.217424"
         style="display:inline;fill:none;stroke:#000000;stroke-width:0.28858423;stroke-linecap:butt;stroke-linejoin:miter;stroke-miterlimit:4;stroke-dasharray:none;stroke-opacity:1" />
      <path
         sodipodi:nodetypes="caccsassc"
         inkscape:connector-curvature="0"
         id="path4677"
         d="m 33.246853,13.801566 c 0,0 -0.197427,0.426547 -0.371447,0.573482 -0.733402,0.619254 -2.110685,0.340923 -2.645098,1.138262 -0.40402,0.350829 -0.538221,2.749084 -0.473875,3.213932 0.828921,0.478574 1.775646,1.112163 2.404257,1.475092 0.39636,0.228841 0.607309,-0.590823 0.779129,-0.967585 0.05986,-0.131244 0.189548,-0.336258 0.07654,-0.425908 -0.700745,-0.555938 -0.851039,-0.49068 -1.62608,-1.029853 -0.171646,-0.119408 0.100147,-1.112185 0,-1.116581"
         style="display:inline;fill:none;stroke:#000000;stroke-width:0.28858423;stroke-linecap:round;stroke-linejoin:round;stroke-miterlimit:4;stroke-dasharray:none;stroke-opacity:1" />
      <path
         sodipodi:nodetypes="csc"
         inkscape:connector-curvature="0"
         id="path4679"
         d="m 35.511276,13.88046 c 0,0 0.305253,0.46808 0.508074,0.547113 0.592711,0.230974 1.671067,0.636231 1.671067,0.636231"
         style="display:inline;fill:none;stroke:#000000;stroke-width:0.28858423;stroke-linecap:round;stroke-linejoin:round;stroke-miterlimit:4;stroke-dasharray:none;stroke-opacity:1" />
      <path
         sodipodi:nodetypes="cssssasc"
         inkscape:connector-curvature="0"
         id="path4681"
         d="m 33.86292,18.482236 0.194111,-2.968926 c 0.0065,-0.0997 -0.105536,-0.134458 -0.148833,-0.260176 -0.03191,-0.0926 -0.08902,-0.453817 0.04469,-0.454344 l 0.852602,-0.0033 c 0.130084,-5.14e-4 0.113846,0.299245 0.08024,0.446779 -0.01982,0.08692 -0.161102,0.127767 -0.156622,0.216812 l 0.151767,3.016585"
         style="display:inline;fill:none;stroke:#000000;stroke-width:0.28858423;stroke-linecap:round;stroke-linejoin:round;stroke-miterlimit:4;stroke-dasharray:none;stroke-opacity:1" />
      <g
         transform="matrix(0.55996435,0,0,0.55996435,-48.689046,-75.790192)"
         id="g4687"
         style="display:inline;stroke-width:0.51536179;stroke-miterlimit:4;stroke-dasharray:none">
        <path
           style="fill:none;stroke:#000000;stroke-width:0.51536179;stroke-linecap:round;stroke-linejoin:round;stroke-miterlimit:4;stroke-dasharray:none;stroke-opacity:1"
           d="m 149.11601,159.62244 h 2.19027 l 0.71183,-1.06091"
           id="path4673"
           inkscape:connector-curvature="0" />
        <path
           style="fill:none;stroke:#000000;stroke-width:0.51536179;stroke-linecap:butt;stroke-linejoin:miter;stroke-miterlimit:4;stroke-dasharray:none;stroke-opacity:1"
           d="m 148.93805,159.11253 c 0.18891,0 0.16463,0.19289 0.16463,0.29317 0,0.36135 0.0318,0.51804 -0.11962,0.51804 h -1.19438 c -0.22509,0 -0.26798,0.0192 -0.26798,-0.44582 0,-0.35948 -0.013,-0.37376 0.2435,-0.37376 0.39047,0.003 0.78273,0.006 1.17385,0.008 z"
           id="path4683"
           inkscape:connector-curvature="0"
           sodipodi:nodetypes="cccsccc" />
      </g>
      <path
         sodipodi:nodetypes="ccsassaasscc"
         inkscape:connector-curvature="0"
         id="path4667"
         d="M 32.417781,11.579191 V 10.2643 c 0.249649,-1.5005816 3.210695,-1.9523049 3.843378,-0.137376 0.141145,0.404899 0.01612,0.860973 0.09115,1.283147 0.02,0.112385 0.101884,0.215082 0.09493,0.329018 -0.0098,0.160811 -0.0011,0.322232 -0.02291,0.469799 -0.06874,0.46458 -0.395967,0.856567 -0.661313,1.244062 -0.04306,0.06284 -0.113964,0.105503 -0.149337,0.17295 -0.0331,0.06306 -5.6e-4,0.157882 -0.05365,0.206811 -1.400438,1.294179 -2.59674,-0.0481 -3.137794,-1.43857 -0.07371,-0.189436 -0.0039,-0.814323 -0.0044,-0.81495 z"
         style="display:inline;fill:none;stroke:#000000;stroke-width:0.28858423;stroke-linecap:round;stroke-linejoin:round;stroke-miterlimit:4;stroke-dasharray:none;stroke-opacity:1" />
      <path
         sodipodi:nodetypes="csssssc"
         inkscape:connector-curvature="0"
         id="path4716"
         d="m 32.999886,19.106875 c 0.0028,0.01523 0.771703,-0.04552 1.080373,0.03601 0.203642,0.05381 0.523029,0.29374 0.707151,0.556554 0.05624,0.08026 0.07465,0.199963 0.03931,0.291371 -0.100833,0.260815 -0.296322,0.642566 -0.504169,0.707151 -0.195707,0.06082 -0.535018,-0.0495 -0.798817,-0.09167 -0.384103,-0.06139 -1.018167,-0.44852 -1.018167,-0.44852"
         style="display:inline;fill:none;stroke:#000000;stroke-width:0.28858423;stroke-linecap:butt;stroke-linejoin:miter;stroke-miterlimit:4;stroke-dasharray:none;stroke-opacity:1" />
      <path
         sodipodi:nodetypes="cccccccc"
         inkscape:connector-curvature="0"
         id="path4689"
         d="m 37.424636,12.155456 1.234268,-0.631824 V 9.3383146 h 5.018826 v 3.5279934 h -5.037344 v -0.750043 z"
         style="display:inline;fill:none;stroke:#000000;stroke-width:0.28858423;stroke-linecap:round;stroke-linejoin:round;stroke-miterlimit:4;stroke-dasharray:none;stroke-opacity:1" />
      <path
         inkscape:connector-curvature="0"
         id="path4693"
         d="m 39.445055,10.40172 h 3.444089"
         style="display:inline;fill:none;stroke:#000000;stroke-width:0.28858423;stroke-linecap:round;stroke-linejoin:round;stroke-miterlimit:4;stroke-dasharray:none;stroke-opacity:1" />
      <path
         inkscape:connector-curvature="0"
         id="path4693-7"
         d="m 39.445055,11.108871 h 3.444089"
         style="display:inline;fill:none;stroke:#000000;stroke-width:0.28858423;stroke-linecap:round;stroke-linejoin:round;stroke-miterlimit:4;stroke-dasharray:none;stroke-opacity:1" />
      <path
         inkscape:connector-curvature="0"
         id="path4710"
         d="m 39.445055,11.816022 h 1.623823"
         style="display:inline;fill:none;stroke:#000000;stroke-width:0.28858423;stroke-linecap:round;stroke-linejoin:round;stroke-miterlimit:4;stroke-dasharray:none;stroke-opacity:1" />
      <path
         inkscape:connector-curvature="0"
         id="path4635"
         d="m 37.771282,18.266106 0.971242,-3.62471 h 5.881031"
         style="display:inline;fill:none;stroke:#000000;stroke-width:0.28858423;stroke-linecap:round;stroke-linejoin:round;stroke-miterlimit:4;stroke-dasharray:none;stroke-opacity:1" />
      <path
         inkscape:connector-curvature="0"
         id="path4637"
         d="m 45.417254,14.085961 -1.243843,4.642088 h -2.433634 l 0.32118,1.198649 h 1.028111 l 0.651278,0.651278 H 40.178838 L 39.657864,20.057002 H 40.78734 L 40.447565,18.78894 h -3.311243 l 1.253727,-4.678962 z"
         style="display:inline;fill:none;stroke:#000000;stroke-width:0.28858423;stroke-linecap:round;stroke-linejoin:round;stroke-miterlimit:4;stroke-dasharray:none;stroke-opacity:1" />
      <g
         transform="matrix(0.55996435,0,0,0.55996435,-48.684418,-75.783249)"
         id="g4659"
         style="display:inline;stroke-width:0.51536179;stroke-miterlimit:4;stroke-dasharray:none">
        <path
           sodipodi:nodetypes="cccc"
           style="fill:none;stroke:#000000;stroke-width:0.51536179;stroke-linecap:round;stroke-linejoin:round;stroke-miterlimit:4;stroke-dasharray:none;stroke-opacity:1"
           d="m 158.89126,170.5264 h -7.69082 l -1.63944,-1.55187 -0.006,-0.51494"
           id="path4639"
           inkscape:connector-curvature="0" />
        <rect
           ry="0.098913528"
           style="fill:#000000;fill-opacity:1;stroke:#000000;stroke-width:0.51536179;stroke-linecap:round;stroke-linejoin:round;stroke-miterlimit:4;stroke-dasharray:none;stroke-opacity:1;paint-order:normal"
           id="rect4647"
           width="1.7108741"
           height="0.25968432"
           x="157.33566"
           y="170.53044" />
      </g>
      <path
         sodipodi:nodetypes="cccccc"
         inkscape:connector-curvature="0"
         id="path4712"
         d="m 29.694948,18.507759 h -1.573085 l 3.515776,2.678505 H 46.386636 L 42.863979,19.12652 v -0.337211"
         style="display:inline;fill:none;stroke:#000000;stroke-width:0.28858423;stroke-linecap:round;stroke-linejoin:miter;stroke-miterlimit:4;stroke-dasharray:none;stroke-opacity:1" />
      <path
         sodipodi:nodetypes="cc"
         inkscape:connector-curvature="0"
         id="path4714"
         d="M 37.209739,18.482393 H 32.56149"
         style="display:inline;fill:none;stroke:#000000;stroke-width:0.28858423;stroke-linecap:butt;stroke-linejoin:round;stroke-miterlimit:4;stroke-dasharray:none;stroke-opacity:1" />
    </g>
  </g>
  <g
     inkscape:groupmode="layer"
     id="layer5"
     inkscape:label="phone"
     style="display:inline"
     transform="translate(-7.7270692,-2.1692991)" />
  <g
     inkscape:groupmode="layer"
     id="layer4"
     inkscape:label="body"
     style="display:inline"
     transform="translate(-7.7270692,-2.1692991)" />
  <g
     inkscape:groupmode="layer"
     id="layer3"
     inkscape:label="head"
     style="display:inline"
     transform="translate(-7.7270692,-2.1692991)" />
  <g
     inkscape:groupmode="layer"
     id="layer2"
     inkscape:label="msg"
     style="display:inline"
     transform="translate(-7.7270692,-2.1692991)">
    <g
       id="g4622"
       transform="matrix(0.0846181,0,0,0.0846181,7.8752167,-1.8068071)"
       style="stroke-width:3.7521522;stroke-miterlimit:4;stroke-dasharray:none">
      <path
         style="color:#000000;font-style:normal;font-variant:normal;font-weight:normal;font-stretch:normal;font-size:medium;line-height:normal;font-family:sans-serif;font-variant-ligatures:normal;font-variant-position:normal;font-variant-caps:normal;font-variant-numeric:normal;font-variant-alternates:normal;font-feature-settings:normal;text-indent:0;text-align:start;text-decoration:none;text-decoration-line:none;text-decoration-style:solid;text-decoration-color:#000000;letter-spacing:normal;word-spacing:normal;text-transform:none;writing-mode:lr-tb;direction:ltr;text-orientation:mixed;dominant-baseline:auto;baseline-shift:baseline;text-anchor:start;white-space:normal;shape-padding:0;clip-rule:nonzero;display:inline;overflow:visible;visibility:visible;opacity:1;isolation:auto;mix-blend-mode:normal;color-interpolation:sRGB;color-interpolation-filters:linearRGB;solid-color:#000000;solid-opacity:1;vector-effect:none;fill:#000000;fill-opacity:1;fill-rule:nonzero;stroke:none;stroke-width:3.7521522;stroke-linecap:butt;stroke-linejoin:miter;stroke-miterlimit:4;stroke-dasharray:none;stroke-dashoffset:0;stroke-opacity:1;color-rendering:auto;image-rendering:auto;shape-rendering:auto;text-rendering:auto;enable-background:accumulate"
         d="m 49.146484,104.45703 c -1.419054,-0.24576 -2.86024,-0.28829 -4.210937,0.006 -1.350697,0.29415 -2.822348,1.01571 -3.445313,2.56445 -1.965143,4.88553 -3.211578,13.516 -3.210937,22.16211 6.41e-4,8.64611 1.033206,17.17827 5.275391,21.76758 0.982958,1.06339 2.252757,1.1918 3.365234,1.15235 1.112477,-0.0395 2.237939,-0.30374 3.34375,-0.68165 1.105811,-0.3779 2.178982,-0.87573 3.11914,-1.45312 0.940159,-0.57739 1.761351,-1.17063 2.359376,-2.14063 1.019106,-1.65299 0.836295,-3.36934 0.58789,-5.2539 -0.248405,-1.88456 -0.781506,-3.86846 -1.5,-5.54297 l -0.326172,-0.75781 -0.779297,-0.27344 c 0,0 -1.135964,-0.40069 -2.30664,-1.0332 -1.170676,-0.63252 -2.087176,-1.69421 -2.06836,-1.61914 -0.679603,-2.71117 -0.940882,-6.90298 -0.527343,-9.97266 0.0085,-0.0632 -0.01772,-0.0475 0.152343,-0.20508 0.170061,-0.15756 0.539948,-0.39746 1.029297,-0.66016 0.978699,-0.52538 2.504408,-1.07131 3.513672,-2.6914 2.126578,-3.41362 2.788207,-7.25429 2.242188,-10.60156 -0.263664,-1.61635 -1.41809,-2.65269 -2.613282,-3.36133 -1.195191,-0.70865 -2.580945,-1.15854 -4,-1.4043 z m -3.412109,3.67188 c 0.683168,-0.14878 1.738855,-0.15379 2.773437,0.0254 1.034583,0.17917 2.059345,0.53994 2.726563,0.93554 0.667218,0.39561 0.825745,0.75766 0.822266,0.73633 0.392055,2.40343 -0.08822,5.38692 -1.72461,8.01367 -0.156575,0.25134 -0.964845,0.76088 -2.101562,1.3711 -0.568359,0.3051 -1.20109,0.65185 -1.806641,1.21289 -0.60555,0.56104 -1.181645,1.42771 -1.320312,2.45703 -0.495462,3.67779 -0.225695,8.06119 0.607422,11.38476 0.573472,2.28777 2.445593,3.20913 3.923828,4.00782 0.990433,0.53513 1.395305,0.6561 1.910156,0.85547 0.457087,1.2109 0.891809,2.63161 1.064453,3.9414 0.19941,1.51286 -0.09728,2.85451 -0.06055,2.79492 -0.02184,0.0354 -0.46844,0.5065 -1.128906,0.91211 -0.660466,0.40562 -1.52108,0.8098 -2.369141,1.09961 -0.848061,0.28982 -1.696545,0.46231 -2.263672,0.48243 -0.567126,0.0201 -0.681702,-0.17115 -0.476562,0.0508 -2.690603,-2.91077 -4.278684,-10.96187 -4.279297,-19.22071 -6.13e-4,-8.25884 1.368579,-16.85638 2.939453,-20.76172 -0.01987,0.0494 0.0805,-0.15004 0.763672,-0.29882 z"
         id="path4570"
         inkscape:connector-curvature="0" />
      <path
         style="color:#000000;font-style:normal;font-variant:normal;font-weight:normal;font-stretch:normal;font-size:medium;line-height:normal;font-family:sans-serif;font-variant-ligatures:normal;font-variant-position:normal;font-variant-caps:normal;font-variant-numeric:normal;font-variant-alternates:normal;font-feature-settings:normal;text-indent:0;text-align:start;text-decoration:none;text-decoration-line:none;text-decoration-style:solid;text-decoration-color:#000000;letter-spacing:normal;word-spacing:normal;text-transform:none;writing-mode:lr-tb;direction:ltr;text-orientation:mixed;dominant-baseline:auto;baseline-shift:baseline;text-anchor:start;white-space:normal;shape-padding:0;clip-rule:nonzero;display:inline;overflow:visible;visibility:visible;opacity:1;isolation:auto;mix-blend-mode:normal;color-interpolation:sRGB;color-interpolation-filters:linearRGB;solid-color:#000000;solid-opacity:1;vector-effect:none;fill:#000000;fill-opacity:1;fill-rule:nonzero;stroke:none;stroke-width:3.7521522;stroke-linecap:round;stroke-linejoin:round;stroke-miterlimit:4;stroke-dasharray:none;stroke-dashoffset:0;stroke-opacity:1;color-rendering:auto;image-rendering:auto;shape-rendering:auto;text-rendering:auto;enable-background:accumulate"
         d="m 29.28125,122.01172 c -2.28342,0.0151 -4.259039,1.14074 -5.806641,2.57617 -1.547602,1.43543 -2.730491,3.22199 -3.472656,5.00391 -4.762895,11.4356 -6.957861,31.02695 -7.513672,43.53711 -0.06817,1.53426 0.657655,2.82534 1.601563,3.98437 0.943907,1.15903 2.193833,2.25781 3.675781,3.38672 2.963897,2.25783 6.87284,4.61148 10.982422,7.02539 7.987173,4.69155 16.700107,9.81587 19.869141,13.52344 0.06673,1.14443 0.868016,15.11453 0.162109,23.02344 a 1.8765852,1.8765852 0 1 0 3.738281,0.33398 c 0.795044,-8.90759 -0.185547,-24.2832 -0.185547,-24.2832 A 1.8762637,1.8762637 0 0 0 51.9375,199.08203 c -4.021598,-5.13728 -13.120497,-9.99487 -21.289062,-14.79297 -4.084283,-2.39905 -7.917255,-4.72264 -10.609376,-6.77344 -1.34606,-1.02539 -2.403866,-1.98912 -3.041015,-2.77148 -0.637149,-0.78236 -0.765823,-1.31094 -0.759766,-1.44726 0.5432,-12.22631 2.906808,-31.89204 7.226563,-42.26368 0.529373,-1.27101 1.473038,-2.68662 2.560547,-3.69531 1.087508,-1.00869 2.255645,-1.56747 3.279297,-1.57422 0.585424,-0.004 1.439654,0.32989 2.173828,0.95508 0.734173,0.62519 1.301861,1.50716 1.482422,2.18555 0.873671,3.28248 -0.243114,10.9006 -1.464844,17.87109 -0.610865,3.48524 -1.206018,6.8563 -1.462891,9.70508 -0.256873,2.84878 -0.508841,5.16135 0.986328,7.10351 1.827025,2.37323 4.939217,3.20004 8.285157,3.93164 3.345939,0.73161 7.025135,1.16435 9.902343,1.64258 8.411648,1.39812 17.560208,0.83417 26.207031,0.37696 8.646824,-0.45721 16.800119,-0.78349 22.96875,0.77148 4.626048,1.16612 10.843598,2.54274 15.974608,4.22266 2.56551,0.83995 4.85687,1.76391 6.4668,2.69922 1.60993,0.9353 2.36298,1.87752 2.46484,2.29101 1.1392,4.62441 1.93144,15.89226 2.34961,25.74024 0.41817,9.84797 0.52539,18.43554 0.52539,18.43554 a 1.8762637,1.8762637 0 1 0 3.75196,-0.0469 c 0,0 -0.10836,-8.63354 -0.5293,-18.54688 -0.42095,-9.91333 -1.09212,-20.9458 -2.45508,-26.47851 -0.52179,-2.11811 -2.22046,-3.47548 -4.22266,-4.63867 -2.00219,-1.1632 -4.48388,-2.13695 -7.18554,-3.02149 -5.40334,-1.76907 -11.69664,-3.15352 -16.224612,-4.29492 -7.021195,-1.76988 -15.4203,-1.33701 -24.083984,-0.87891 -8.663685,0.4581 -17.584303,0.9658 -25.392578,-0.33203 -3.01824,-0.50167 -6.635367,-0.93366 -9.716797,-1.60742 -3.081431,-0.67377 -5.527372,-1.79166 -6.113281,-2.55273 -0.01124,-0.0146 -0.454265,-1.88827 -0.220704,-4.47852 0.233562,-2.59025 0.809089,-5.91142 1.419922,-9.39648 1.221666,-6.97013 2.745903,-14.40516 1.394532,-19.48243 -0.42937,-1.61319 -1.414939,-3.00445 -2.675782,-4.07812 -1.260842,-1.07368 -2.843017,-1.86136 -4.628906,-1.84961 z"
         id="path23"
         inkscape:connector-curvature="0" />
      <path
         style="color:#000000;font-style:normal;font-variant:normal;font-weight:normal;font-stretch:normal;font-size:medium;line-height:normal;font-family:sans-serif;font-variant-ligatures:normal;font-variant-position:normal;font-variant-caps:normal;font-variant-numeric:normal;font-variant-alternates:normal;font-feature-settings:normal;text-indent:0;text-align:start;text-decoration:none;text-decoration-line:none;text-decoration-style:solid;text-decoration-color:#000000;letter-spacing:normal;word-spacing:normal;text-transform:none;writing-mode:lr-tb;direction:ltr;text-orientation:mixed;dominant-baseline:auto;baseline-shift:baseline;text-anchor:start;white-space:normal;shape-padding:0;clip-rule:nonzero;display:inline;overflow:visible;visibility:visible;opacity:1;isolation:auto;mix-blend-mode:normal;color-interpolation:sRGB;color-interpolation-filters:linearRGB;solid-color:#000000;solid-opacity:1;vector-effect:none;fill:#000000;fill-opacity:1;fill-rule:nonzero;stroke:none;stroke-width:3.7521522;stroke-linecap:round;stroke-linejoin:round;stroke-miterlimit:4;stroke-dasharray:none;stroke-dashoffset:0;stroke-opacity:1;color-rendering:auto;image-rendering:auto;shape-rendering:auto;text-rendering:auto;enable-background:accumulate"
         d="m 111.95703,198.07812 a 1.8762637,1.8762637 0 0 0 -1.84765,1.90235 v 23.78711 a 1.8762637,1.8762637 0 1 0 3.75195,0 v -23.78711 a 1.8762637,1.8762637 0 0 0 -1.9043,-1.90235 z"
         id="path4606"
         inkscape:connector-curvature="0" />
      <path
         style="color:#000000;font-style:normal;font-variant:normal;font-weight:normal;font-stretch:normal;font-size:medium;line-height:normal;font-family:sans-serif;font-variant-ligatures:normal;font-variant-position:normal;font-variant-caps:normal;font-variant-numeric:normal;font-variant-alternates:normal;font-feature-settings:normal;text-indent:0;text-align:start;text-decoration:none;text-decoration-line:none;text-decoration-style:solid;text-decoration-color:#000000;letter-spacing:normal;word-spacing:normal;text-transform:none;writing-mode:lr-tb;direction:ltr;text-orientation:mixed;dominant-baseline:auto;baseline-shift:baseline;text-anchor:start;white-space:normal;shape-padding:0;clip-rule:nonzero;display:inline;overflow:visible;visibility:visible;opacity:1;isolation:auto;mix-blend-mode:normal;color-interpolation:sRGB;color-interpolation-filters:linearRGB;solid-color:#000000;solid-opacity:1;vector-effect:none;fill:#000000;fill-opacity:1;fill-rule:nonzero;stroke:none;stroke-width:3.7521522;stroke-linecap:butt;stroke-linejoin:miter;stroke-miterlimit:4;stroke-dasharray:none;stroke-dashoffset:0;stroke-opacity:1;color-rendering:auto;image-rendering:auto;shape-rendering:auto;text-rendering:auto;enable-background:accumulate"
         d="m 81.751953,100.9043 c -12.125682,-0.36854 -24.386455,5.26223 -23.757812,18.45117 l 0.833984,17.50195 c 0.365607,7.67044 3.111646,13.2427 7.158203,16.75977 4.046557,3.51706 9.258503,4.94019 14.369141,4.84961 5.110638,-0.0906 10.169779,-1.66488 14.171875,-4.33203 4.002095,-2.66715 7.014756,-6.51901 7.515626,-11.14649 l 2.65625,-24.54297 C 105.86864,107.64118 93.877635,101.27283 81.751953,100.9043 Z m -0.15625,3.81836 c 10.144006,0.48937 20.207677,5.60726 19.373047,13.31836 l -2.65625,24.54296 c -0.350372,3.23707 -2.524935,6.20229 -5.867188,8.42969 -3.342252,2.22741 -7.784422,3.62368 -12.15625,3.70117 -4.371827,0.0775 -8.622763,-1.13186 -11.841796,-3.92968 -3.219034,-2.79783 -5.542977,-7.22352 -5.871094,-14.10743 l -0.833984,-17.50195 c -0.514984,-10.80436 9.70951,-14.9425 19.853515,-14.45312 z"
         id="path21"
         inkscape:connector-curvature="0" />
      <path
         style="color:#000000;font-style:normal;font-variant:normal;font-weight:normal;font-stretch:normal;font-size:medium;line-height:normal;font-family:sans-serif;font-variant-ligatures:normal;font-variant-position:normal;font-variant-caps:normal;font-variant-numeric:normal;font-variant-alternates:normal;font-feature-settings:normal;text-indent:0;text-align:start;text-decoration:none;text-decoration-line:none;text-decoration-style:solid;text-decoration-color:#000000;letter-spacing:normal;word-spacing:normal;text-transform:none;writing-mode:lr-tb;direction:ltr;text-orientation:mixed;dominant-baseline:auto;baseline-shift:baseline;text-anchor:start;white-space:normal;shape-padding:0;clip-rule:nonzero;display:inline;overflow:visible;visibility:visible;opacity:1;isolation:auto;mix-blend-mode:normal;color-interpolation:sRGB;color-interpolation-filters:linearRGB;solid-color:#000000;solid-opacity:1;vector-effect:none;fill:#000000;fill-opacity:1;fill-rule:nonzero;stroke:none;stroke-width:3.7521522;stroke-linecap:round;stroke-linejoin:round;stroke-miterlimit:4;stroke-dasharray:none;stroke-dashoffset:0;stroke-opacity:1;color-rendering:auto;image-rendering:auto;shape-rendering:auto;text-rendering:auto;enable-background:accumulate"
         d="m 120.00781,61.722656 a 1.8762637,1.8762637 0 0 0 -1.87695,1.876953 v 54.427731 a 1.8762637,1.8762637 0 0 0 1.87695,1.87696 h 18.70899 a 1.8762637,1.8762637 0 1 0 0,-3.75196 H 121.88281 V 65.476562 h 67.875 v 50.042968 l -40.74219,0.63867 a 1.8762637,1.8762637 0 0 0 -1.29687,0.55078 c -6.78834,6.78835 -10.62704,12.76572 -17.13086,19.26954 a 1.8762637,1.8762637 0 1 0 2.65234,2.65234 c 6.59749,-6.59748 10.47658,-12.44113 16.65625,-18.73438 l 41.76758,-0.65429 a 1.8762637,1.8762637 0 0 0 1.84571,-1.875 V 63.599609 a 1.8762637,1.8762637 0 0 0 -1.875,-1.876953 z"
         id="path25"
         inkscape:connector-curvature="0" />
      <path
         style="color:#000000;font-style:normal;font-variant:normal;font-weight:normal;font-stretch:normal;font-size:medium;line-height:normal;font-family:sans-serif;font-variant-ligatures:normal;font-variant-position:normal;font-variant-caps:normal;font-variant-numeric:normal;font-variant-alternates:normal;font-feature-settings:normal;text-indent:0;text-align:start;text-decoration:none;text-decoration-line:none;text-decoration-style:solid;text-decoration-color:#000000;letter-spacing:normal;word-spacing:normal;text-transform:none;writing-mode:lr-tb;direction:ltr;text-orientation:mixed;dominant-baseline:auto;baseline-shift:baseline;text-anchor:start;white-space:normal;shape-padding:0;clip-rule:nonzero;display:inline;overflow:visible;visibility:visible;opacity:1;isolation:auto;mix-blend-mode:normal;color-interpolation:sRGB;color-interpolation-filters:linearRGB;solid-color:#000000;solid-opacity:1;vector-effect:none;fill:#000000;fill-opacity:1;fill-rule:nonzero;stroke:none;stroke-width:3.7521522;stroke-linecap:round;stroke-linejoin:miter;stroke-miterlimit:4;stroke-dasharray:none;stroke-dashoffset:0;stroke-opacity:1;color-rendering:auto;image-rendering:auto;shape-rendering:auto;text-rendering:auto;enable-background:accumulate"
         d="m 132.16797,74.626953 a 1.8762637,1.8762637 0 1 0 0,3.751953 h 47.30664 a 1.8762637,1.8762637 0 1 0 0,-3.751953 z"
         id="path4541"
         inkscape:connector-curvature="0" />
      <path
         style="color:#000000;font-style:normal;font-variant:normal;font-weight:normal;font-stretch:normal;font-size:medium;line-height:normal;font-family:sans-serif;font-variant-ligatures:normal;font-variant-position:normal;font-variant-caps:normal;font-variant-numeric:normal;font-variant-alternates:normal;font-feature-settings:normal;text-indent:0;text-align:start;text-decoration:none;text-decoration-line:none;text-decoration-style:solid;text-decoration-color:#000000;letter-spacing:normal;word-spacing:normal;text-transform:none;writing-mode:lr-tb;direction:ltr;text-orientation:mixed;dominant-baseline:auto;baseline-shift:baseline;text-anchor:start;white-space:normal;shape-padding:0;clip-rule:nonzero;display:inline;overflow:visible;visibility:visible;opacity:1;isolation:auto;mix-blend-mode:normal;color-interpolation:sRGB;color-interpolation-filters:linearRGB;solid-color:#000000;solid-opacity:1;vector-effect:none;fill:#000000;fill-opacity:1;fill-rule:nonzero;stroke:none;stroke-width:3.7521522;stroke-linecap:round;stroke-linejoin:miter;stroke-miterlimit:4;stroke-dasharray:none;stroke-dashoffset:0;stroke-opacity:1;color-rendering:auto;image-rendering:auto;shape-rendering:auto;text-rendering:auto;enable-background:accumulate"
         d="m 132.16797,83.712891 a 1.876953,1.876953 0 1 0 0,3.753906 h 47.30664 a 1.876953,1.876953 0 1 0 0,-3.753906 z"
         id="path4541-8"
         inkscape:connector-curvature="0" />
      <path
         style="color:#000000;font-style:normal;font-variant:normal;font-weight:normal;font-stretch:normal;font-size:medium;line-height:normal;font-family:sans-serif;font-variant-ligatures:normal;font-variant-position:normal;font-variant-caps:normal;font-variant-numeric:normal;font-variant-alternates:normal;font-feature-settings:normal;text-indent:0;text-align:start;text-decoration:none;text-decoration-line:none;text-decoration-style:solid;text-decoration-color:#000000;letter-spacing:normal;word-spacing:normal;text-transform:none;writing-mode:lr-tb;direction:ltr;text-orientation:mixed;dominant-baseline:auto;baseline-shift:baseline;text-anchor:start;white-space:normal;shape-padding:0;clip-rule:nonzero;display:inline;overflow:visible;visibility:visible;opacity:1;isolation:auto;mix-blend-mode:normal;color-interpolation:sRGB;color-interpolation-filters:linearRGB;solid-color:#000000;solid-opacity:1;vector-effect:none;fill:#000000;fill-opacity:1;fill-rule:nonzero;stroke:none;stroke-width:3.7521522;stroke-linecap:round;stroke-linejoin:miter;stroke-miterlimit:4;stroke-dasharray:none;stroke-dashoffset:0;stroke-opacity:1;color-rendering:auto;image-rendering:auto;shape-rendering:auto;text-rendering:auto;enable-background:accumulate"
         d="m 132.16797,92.800781 a 1.8762637,1.8762637 0 1 0 0,3.751953 h 47.30664 a 1.8762637,1.8762637 0 1 0 0,-3.751953 z"
         id="path4541-7"
         inkscape:connector-curvature="0" />
      <path
         style="color:#000000;font-style:normal;font-variant:normal;font-weight:normal;font-stretch:normal;font-size:medium;line-height:normal;font-family:sans-serif;font-variant-ligatures:normal;font-variant-position:normal;font-variant-caps:normal;font-variant-numeric:normal;font-variant-alternates:normal;font-feature-settings:normal;text-indent:0;text-align:start;text-decoration:none;text-decoration-line:none;text-decoration-style:solid;text-decoration-color:#000000;letter-spacing:normal;word-spacing:normal;text-transform:none;writing-mode:lr-tb;direction:ltr;text-orientation:mixed;dominant-baseline:auto;baseline-shift:baseline;text-anchor:start;white-space:normal;shape-padding:0;clip-rule:nonzero;display:inline;overflow:visible;visibility:visible;opacity:1;isolation:auto;mix-blend-mode:normal;color-interpolation:sRGB;color-interpolation-filters:linearRGB;solid-color:#000000;solid-opacity:1;vector-effect:none;fill:#000000;fill-opacity:1;fill-rule:nonzero;stroke:none;stroke-width:3.7521522;stroke-linecap:round;stroke-linejoin:miter;stroke-miterlimit:4;stroke-dasharray:none;stroke-dashoffset:0;stroke-opacity:1;color-rendering:auto;image-rendering:auto;shape-rendering:auto;text-rendering:auto;enable-background:accumulate"
         d="m 132.16797,101.88867 a 1.8762637,1.8762637 0 1 0 0,3.75195 h 22.44922 a 1.8762637,1.8762637 0 1 0 0,-3.75195 z"
         id="path4564"
         inkscape:connector-curvature="0" />
    </g>
  </g>
</svg>
